<?xml version="1.0" standalone="no"?>
<!DOCTYPE svg PUBLIC "-//W3C//DTD SVG 1.1//EN" "http://www.w3.org/Graphics/SVG/1.1/DTD/svg11.dtd" >
<svg xmlns="http://www.w3.org/2000/svg">
<metadata></metadata>
<defs>
<font id="larish_neuesemibold_italic" horiz-adv-x="632" >
<font-face units-per-em="2048" ascent="1626" descent="-422" />
<missing-glyph horiz-adv-x="573" />
<glyph unicode="&#xfb01;" horiz-adv-x="1075" d="M-195 -305q3 59 39.5 100t98.5 51h47q42 -10 71 -48t23 -87h18q35 13 66 45.5t37 67.5q5 33 -2 60.5t-19.5 44.5t-24.5 39.5t-16 46t7 63.5l208 758q4 17 -10 45t-26 28h-158v72h231l37 121q62 202 205 334.5t305 132.5q72 0 119 -45t47 -111q0 -72 -45 -119.5 t-117 -58.5h-55q-55 8 -93.5 64t-21.5 118h-20q-34 -5 -78 -46t-51 -77q-8 -40 5 -83.5t24 -72t-3 -85.5l-20 -72h112q94 0 170.5 6.5t106.5 13.5l29 7l-133 -787q-4 -24 16 -50t41 -26q11 0 42 25.5t52 46.5l41 -53q-26 -30 -66 -68t-101 -78t-103 -41q-72 -1 -118.5 52.5 t-41.5 126.5q3 46 31 198.5t57.5 301t30.5 153.5q4 25 -23 62.5t-49 37.5h-113l-252 -932q-54 -185 -171 -300t-263 -115q-56 0 -91 39.5t-32 93.5z" />
<glyph unicode="&#xfb02;" horiz-adv-x="1097" d="M-195 -305q3 59 39.5 100t98.5 51h47q42 -10 71 -48t23 -87h18q35 13 66 45.5t37 67.5q8 40 -3 72t-27.5 51t-26 52.5t1.5 76.5l176 737q5 17 -14.5 56.5t-32.5 39.5h-138v72h217l33 125q36 138 95 241.5t147 166.5t192 63q51 0 116.5 -4t112.5 -4t99 8l-235 -1356 q-4 -24 16 -50t41 -26q11 0 42 25.5t52 46.5l39 -53q-27 -31 -66 -68.5t-99.5 -77.5t-102.5 -41q-72 -1 -118 52t-46 127l135 753h-225l-221 -929q-43 -184 -165.5 -301t-271.5 -117q-56 0 -91 39.5t-32 93.5zM561 1307q-8 -33 2 -67t26 -59t26.5 -60t2.5 -68l-16 -72h219 q64 358 66 365h-39q-17 0 -74.5 42t-71.5 42q-53 0 -90 -32.5t-51 -90.5z" />
<glyph unicode="&#xfb03;" horiz-adv-x="1595" d="M-195 -305q3 59 39.5 100t98.5 51h47q42 -10 71 -48t23 -87h18q35 13 66 45.5t37 67.5q5 33 -2 60.5t-19.5 44.5t-24.5 39.5t-16 46t7 63.5l249 735q5 17 -14.5 56.5t-32.5 39.5h-125v72h213l43 121q75 209 203 338t291 129q57 0 94 -36.5t37 -88.5v-55q73 87 165 133.5 t189 46.5q72 0 119 -45t47 -111q0 -72 -45 -119.5t-117 -58.5h-55q-55 8 -93.5 64t-21.5 118h-20q-34 -5 -78 -46t-51 -77q-7 -32 0 -64.5t17.5 -55t15.5 -55.5t-6 -66l-21 -72h113q94 0 170 6.5t106 13.5l29 7l-133 -787q-4 -24 16 -50t41 -26q11 0 42 25.5t52 46.5l41 -53 q-26 -30 -66 -68t-101 -78t-103 -41q-72 -1 -118.5 52.5t-41.5 126.5q3 46 28.5 195t54 297.5t28.5 150.5q5 25 -22 67.5t-48 42.5h-108l-263 -932q-54 -185 -171 -300t-263 -115q-56 0 -91 39.5t-32 93.5q3 59 39.5 100t98.5 51h47q42 -10 71 -48t23 -87h18q35 13 66 45.5 t37 67.5q7 40 -5.5 73t-29 52t-25.5 53t4 76l217 735q5 17 -14.5 56.5t-32.5 39.5h-159l-306 -932q-54 -185 -171 -300t-263 -115q-56 0 -91 39.5t-32 93.5zM684 981h231l37 121q38 122 113 227q-27 -27 -94 -43h-49q-43 9 -69.5 46t-16.5 83h-21q-35 -5 -79.5 -45 t-51.5 -76q-8 -40 4 -83.5t22.5 -72t-3.5 -85.5z" />
<glyph unicode="&#xfb04;" horiz-adv-x="1638" d="M-195 -305q3 59 39.5 100t98.5 51h47q42 -10 71 -48t23 -87h18q35 13 66 45.5t37 67.5q5 33 -2 60.5t-19.5 44.5t-24.5 39.5t-16 46t7 63.5l253 758q4 17 -10 45t-26 28h-140v72h213l43 121q75 209 203 338t291 129q60 0 95.5 -34t37.5 -85q52 59 119.5 93t138.5 34 q51 0 116 -4t111.5 -4t98.5 8l-234 -1356q-4 -24 16.5 -50t41.5 -26q11 0 42 25.5t52 46.5l39 -53q-26 -31 -66 -68.5t-100.5 -77.5t-102.5 -41q-71 -1 -117 52t-46 127l135 753h-226l-221 -929q-43 -184 -165 -301t-271 -117q-56 0 -91 39.5t-32 93.5q3 59 39 100t98 51h47 q42 -10 71.5 -48t23.5 -87h18q35 13 66 45.5t37 67.5q6 33 0 60t-18.5 43.5t-24.5 39t-17 45.5t4 64l176 737q4 17 -13.5 56.5t-29.5 39.5h-159l-304 -932q-54 -185 -171 -300t-263 -115q-56 0 -91 39.5t-32 93.5zM684 981h234l30 125q13 61 41.5 127t57.5 108 q-35 -37 -101 -55h-49q-42 9 -66 47t-14 84h-20q-34 -5 -69 -42t-44 -81q-8 -40 4 -83.5t22.5 -72t-3.5 -85.5zM1104 1307q-8 -33 2 -67t26 -59t26.5 -60t2.5 -68l-16 -72h219l66 365h-39q-17 0 -74.5 42t-71.5 42q-53 0 -89.5 -32.5t-51.5 -90.5z" />
<glyph horiz-adv-x="0" />
<glyph horiz-adv-x="682" />
<glyph unicode=" "  horiz-adv-x="573" />
<glyph unicode="&#x09;" horiz-adv-x="573" />
<glyph unicode="&#xa0;" horiz-adv-x="573" />
<glyph unicode="!" horiz-adv-x="530" d="M135 162q0 -66 48.5 -114t117.5 -48t117.5 48t48.5 114t-48.5 114t-117.5 48t-117.5 -48t-48.5 -114zM301 422v930q0 74 53 120t129 46q69 0 113 -46t35 -118l-281 -932h-49z" />
<glyph unicode="&#x22;" horiz-adv-x="716" d="M260 750v610q9 60 56 100.5t104 40.5q80 0 104 -65l-30 -197l-179 -489h-55zM565 1239l2 -489h56l213 610q9 60 -24.5 100.5t-90.5 40.5q-77 0 -127 -65z" />
<glyph unicode="#" horiz-adv-x="1380" d="M123 328v131h266l115 522h-244v131h272l82 379h148l-82 -379h344l82 379h147l-82 -379h252v-131h-280l-115 -522h258v-131h-287l-69 -328h-148l70 328h-344l-70 -328h-147l69 328h-237zM537 459h344l114 522h-344z" />
<glyph unicode="$" horiz-adv-x="1122" d="M141 0l60 532h73q-3 -40 4 -97.5t24.5 -124.5t56.5 -124.5t92 -81.5l84 539q-139 90 -193.5 188.5t-54.5 212.5q0 168 107 292t288 157l23 147h86l-25 -149h82l24 149h86l-26 -151q3 -1 32 -13.5t47 -18t31 -5.5q62 0 95 39h65l-61 -487h-70q3 20 -13 90.5t-55 159 t-88 124.5l-86 -522q122 -60 198.5 -159t76.5 -236q0 -187 -114.5 -313t-305.5 -148l-35 -211h-86l33 211h-80l-35 -211h-86l37 215q-3 2 -14 8t-16 8.5t-15.5 8t-17.5 7.5t-17 5.5t-19.5 4.5t-19.5 1q-62 0 -106 -47h-66zM475 1192q0 -57 35 -112.5t88 -88.5l66 408 q-73 -13 -131 -70.5t-58 -136.5zM532 92h78l76 463l-72 43zM676 942l74 -43l79 500h-77zM700 98q86 6 147.5 64t61.5 145q0 127 -141 207z" />
<glyph unicode="%" horiz-adv-x="1476" d="M168 0l1165 1491h131l-1161 -1491h-135zM236 1085q0 113 46.5 212t134 161t197.5 62q119 0 187.5 -75.5t68.5 -207.5q0 -110 -47 -211t-135 -166t-194 -65q-111 0 -184.5 78.5t-73.5 211.5zM399 1079q-5 -87 20.5 -138.5t82.5 -51.5q60 0 107 48t69 130t31 178 q8 84 -20 136.5t-83 52.5q-64 0 -110 -46.5t-68 -132.5q-24 -96 -29 -176zM780 266q0 113 46.5 211.5t134.5 160.5t198 62q119 0 187.5 -75t68.5 -207q0 -110 -47 -211t-135.5 -166.5t-194.5 -65.5q-111 0 -184.5 79t-73.5 212zM944 260q-5 -87 20.5 -138.5t82.5 -51.5 q60 0 107 48t69 130q20 76 30 178q8 84 -19.5 136t-82.5 52q-65 0 -110.5 -46t-67.5 -132q-24 -96 -29 -176z" />
<glyph unicode="&#x26;" horiz-adv-x="1462" d="M162 291q0 284 420 504l-33 69q-51 104 -51 234q0 190 117 316t290 126q138 0 220.5 -72t82.5 -200q0 -121 -98.5 -231t-247.5 -195l176 -416q51 45 84 76t77 83t81 109q33 59 25.5 108.5t-52.5 79t-106 19.5v80h397q4 -46 -8 -90t-43.5 -94t-57.5 -84t-77 -95 q-115 -139 -283 -274l64 -135q36 -84 104 -133h80v-76h-96q-115 0 -213 44t-152 118q-82 -76 -189 -128t-206 -52q-135 0 -220 87t-85 222zM373 356q1 -94 58 -148t142 -54q110 0 242 92l-194 469q-119 -69 -184 -161t-64 -198zM621 1204q0 -38 18 -60t41.5 -29t51 -25.5 t40.5 -49.5l53 -120q97 74 149 164t52 186q0 71 -45 119.5t-117 48.5q-99 0 -171 -70.5t-72 -163.5z" />
<glyph unicode="'" horiz-adv-x="436" d="M266 745v613q11 62 55 102.5t107 40.5q62 0 98.5 -42.5t26.5 -102.5l-234 -611h-53z" />
<glyph unicode="(" horiz-adv-x="686" d="M172.5 358q-3.5 109 17.5 222q21 127 68.5 253.5t109 231t129 197t137.5 165.5t125.5 123t100.5 82l55 -73q-54 -51 -87.5 -85t-82.5 -91t-81.5 -108t-72.5 -126.5t-68.5 -156t-56.5 -187.5t-48 -230q-29 -175 -33 -318t7 -233t44.5 -177t59 -129.5t72.5 -110.5 q11 -15 16 -23l-78 -69q-29 27 -61 67t-71 100.5t-72.5 131t-64 158t-46 182.5t-19 204z" />
<glyph unicode=")" horiz-adv-x="686" d="M-80 -412q54 51 87.5 85t82.5 91t81.5 107.5t73 126t69 156t56.5 187.5t48 230q21 126 29 236t6.5 190.5t-15.5 155.5t-29 123.5t-42.5 102.5t-47 84.5t-51.5 76.5q-11 15 -16 23l78 69q29 -27 61 -67t71 -100.5t72 -131t63.5 -158t46 -182.5t19 -204t-17.5 -222 q-21 -127 -68.5 -253.5t-109 -231t-129 -197t-137.5 -165.5t-125.5 -123t-100.5 -82z" />
<glyph unicode="*" horiz-adv-x="974" d="M248 1153l74 74q48 -3 161 -29.5t154 -32.5q-41 32 -138 94t-132 89v102h114q30 -35 89.5 -132t76.5 -122q-6 37 -30.5 150t-28.5 151l80 80l80 -80q-4 -42 -30 -150.5t-32 -150.5q28 39 81.5 126t86.5 128h115v-102q-36 -29 -134 -90.5t-139 -92.5q47 6 159 31.5 t159 30.5l73 -74l-73 -74q-50 4 -163 30t-155 32q35 -25 134 -87.5t139 -95.5v-102h-115q-30 36 -88 130.5t-82 127.5q7 -47 33 -156.5t31 -148.5l-80 -82l-84 82q5 39 30.5 148.5t32.5 156.5q-27 -37 -81 -128t-85 -130h-114v102q33 27 134.5 92.5t135.5 90.5 q-48 -7 -158 -32t-157 -30z" />
<glyph unicode="+" horiz-adv-x="1302" d="M188 514v154h476v475h165v-475h474v-154h-474v-487h-165v487h-476z" />
<glyph unicode="," horiz-adv-x="536" d="M0 -143q74 -9 139.5 3t113.5 48.5t60 91.5h-57q-50 14 -84.5 62t-28.5 106q7 71 56 113.5t118 42.5t113 -51t33 -119l-8 -56q-12 -83 -48 -146.5t-82.5 -99.5t-105 -57t-112 -26t-107.5 0v88z" />
<glyph unicode="-" d="M121 440l43 236h541l-41 -236h-543z" />
<glyph unicode="." horiz-adv-x="522" d="M121 162q0 66 48.5 114t117.5 48t117.5 -48t48.5 -114t-48.5 -114t-117.5 -48t-117.5 48t-48.5 114z" />
<glyph unicode="/" horiz-adv-x="774" d="M0 -397l774 2048l113 -41l-772 -2050z" />
<glyph unicode="0" horiz-adv-x="1161" d="M170 569q0 129 28.5 263t85.5 257t135 219.5t185 154t227 57.5q96 0 174 -46t128 -125t77 -182t27 -219q0 -128 -28 -263t-85 -262t-134.5 -227t-186 -160.5t-230.5 -60.5q-102 0 -181 47.5t-126.5 130.5t-71.5 188t-24 228zM406 471q-17 -179 27 -277t145 -98 q59 0 110.5 31t85.5 75.5t63 106.5t44 110t28 101q61 249 86 522q18 173 -24.5 268t-143.5 95q-61 0 -113 -29t-85.5 -70.5t-62 -102.5t-42.5 -107t-28 -103q-67 -273 -90 -522z" />
<glyph unicode="1" horiz-adv-x="890" d="M129 0v76h88q19 0 69 48t56 75l170 870q4 24 -23 61t-45 37h-110v76q129 25 213 75t151 142l152 62l-248 -1323q-4 -26 27.5 -74.5t52.5 -48.5h82v-76h-635z" />
<glyph unicode="2" horiz-adv-x="993" d="M43 0v70q39 129 209 318t383 362q98 77 155.5 161t57.5 187q0 99 -62 162t-159 63q-47 0 -92.5 -17t-81 -41t-75 -64t-65 -72t-59.5 -78l-84 65q29 42 41 59.5t43 59t50 62.5t52.5 56.5t60 54.5t64.5 44t73.5 37.5t79.5 21.5t89 9q160 0 267.5 -105t107.5 -266 q0 -83 -30 -159.5t-86 -142t-118.5 -117.5t-144.5 -105q-97 -63 -185.5 -129t-169 -143t-98.5 -126l643 4v-231h-866z" />
<glyph unicode="3" horiz-adv-x="1038" d="M68 31q86 4 180 29t186 73.5t165.5 112.5t119 153.5t45.5 188.5q0 138 -110.5 184.5t-282.5 -8.5v80l231 86q176 113 176 256q0 69 -45.5 112t-116.5 43q-74 0 -168 -46t-169 -109l-56 78q69 60 146 112.5t182.5 97t191.5 44.5q120 0 196.5 -65.5t76.5 -178.5 q0 -118 -84 -216t-217 -159q44 1 87.5 -7t85.5 -28.5t74.5 -51.5t52 -78.5t19.5 -106.5q0 -104 -44.5 -200.5t-119.5 -171.5t-173 -137t-206 -103.5t-216 -66t-207 -28.5v111z" />
<glyph unicode="4" horiz-adv-x="1105" d="M70 369v100q246 287 401 486t330 446q62 26 128 56.5t101 47.5l35 17l-168 -1008h193v-145h-218l-28 -170q-4 -27 27.5 -75t52.5 -48h32v-76h-610v76h109q21 0 71 48t56 75l30 170h-542zM244 514h395l111 627h-11q-207 -289 -495 -627z" />
<glyph unicode="5" horiz-adv-x="1030" d="M39 31q127 0 263.5 49.5t248 131.5t184 200t72.5 243q0 105 -60.5 167.5t-168.5 62.5q-43 0 -93.5 -22t-89.5 -48.5t-110 -79.5l-80 47l194 709h97q402 2 438 29l72 -230q-6 -3 -29.5 -7t-164 -10t-361.5 -5l-117 -385q209 192 368 192t257 -90t98 -248 q0 -128 -64.5 -254.5t-171.5 -225.5t-239 -176.5t-274 -119t-269 -41.5v111z" />
<glyph unicode="6" horiz-adv-x="1128" d="M199 526q0 154 44 305t127.5 280t195.5 228t257.5 154.5t304.5 54.5v-112q-120 4 -238.5 -48t-208.5 -138t-150 -200.5t-70 -232.5q23 32 52.5 61t73 59.5t102.5 48.5t126 18q147 0 236.5 -107.5t89.5 -292.5q0 -116 -40.5 -229t-110 -201.5t-172 -143.5t-218.5 -55 q-189 0 -295 154t-106 397zM446 475q0 -155 55.5 -259.5t145.5 -104.5q63 0 113.5 36t80 95t45 127.5t15.5 140.5q0 146 -55.5 237t-147.5 91q-81 0 -140 -54t-85.5 -134.5t-26.5 -174.5z" />
<glyph unicode="7" horiz-adv-x="940" d="M72 0q159 278 313.5 519.5t269.5 397.5t172.5 230t98.5 121q-44 -11 -557 -11q-21 0 -68 -40t-57 -58h-84l151 332h811v-76l-102 -155q-108 -151 -351 -638.5t-284 -621.5h-313z" />
<glyph unicode="8" horiz-adv-x="1110" d="M90 319q0 75 35.5 144t95.5 121.5t122.5 91t133.5 69.5q-196 155 -196 338q0 76 30.5 145.5t83 122t120.5 91t145.5 58.5t154.5 20q93 0 174 -32t135 -99t54 -156q0 -67 -28 -132.5t-74.5 -117t-100 -91.5t-109.5 -67q59 -36 96.5 -64t78 -70t60 -93t19.5 -113 q0 -105 -52.5 -201.5t-135.5 -163t-187.5 -106t-207.5 -39.5q-124 0 -225 40.5t-161.5 119.5t-60.5 184zM289 322q0 -102 76 -164t188 -62q91 0 169 31.5t127.5 93.5t49.5 141q0 26 -8 50t-26 45.5t-34 37.5t-45 35t-44.5 28t-48 26t-40.5 22q-3 2 -12 6.5t-12 6.5 t-10.5 6.5t-11 7t-9.5 6.5t-8.5 6.5l-6.5 6.5t-6 7.5t-3.5 8t-2.5 8.5q-132 -65 -207 -154t-75 -200zM512 1190q5 -129 197 -252q4 -3 20 -12t23 -14t15 -15t9 -20q88 55 151.5 143.5t63.5 175.5q-3 95 -65 156t-154 61q-100 0 -180 -68.5t-80 -154.5z" />
<glyph unicode="9" horiz-adv-x="1110" d="M188 -53v112q120 -4 242 49t217 140t160.5 203t79.5 233q-23 -32 -52.5 -60.5t-73 -58.5t-103 -47.5t-126.5 -17.5q-145 0 -235 109.5t-90 287.5q0 116 40.5 228t110 199.5t172 141.5t218.5 54q189 0 295 -154t106 -397q0 -154 -47 -305.5t-135.5 -280t-205 -227.5 t-265.5 -154.5t-308 -54.5zM446 991q0 -145 55.5 -235t147.5 -90q80 0 138.5 53.5t85 133t26.5 173.5q0 154 -54.5 256t-144.5 102q-63 0 -113.5 -35t-80 -93t-45 -125.5t-15.5 -139.5z" />
<glyph unicode=":" horiz-adv-x="501" d="M162 160q0 53 37.5 90t91.5 37t91.5 -37t37.5 -90t-37.5 -90t-91.5 -37t-91.5 37t-37.5 90zM233 809q0 66 48.5 114t117.5 48t117.5 -48t48.5 -114t-48.5 -114t-117.5 -48t-117.5 48t-48.5 114z" />
<glyph unicode=";" horiz-adv-x="532" d="M-12 -143q115 -14 203 23t106 120h-55q-49 14 -83 62t-28 106q7 71 56 113.5t118 42.5t112 -51t34 -119l-9 -56q-15 -83 -51.5 -146t-82.5 -99t-103.5 -57.5t-110.5 -26.5t-106 0v88zM266 799q0 53 37.5 90t91.5 37t91.5 -37t37.5 -90t-37.5 -90t-91.5 -37t-91.5 37 t-37.5 90z" />
<glyph unicode="&#x3c;" horiz-adv-x="1024" d="M61 561v105l990 559v-168l-803 -445l608 -424v-188z" />
<glyph unicode="=" horiz-adv-x="1310" d="M180 338v158h1114v-158h-1114zM180 690v158h1114v-158h-1114z" />
<glyph unicode="&#x3e;" horiz-adv-x="1024" d="M100 0v168l803 444l-608 424v189l795 -561v-105z" />
<glyph unicode="?" horiz-adv-x="743" d="M244 127q0 -53 37.5 -90t91.5 -37t91.5 37t37.5 90t-37.5 90t-91.5 37t-91.5 -37t-37.5 -90zM258 584q0 52 20.5 103.5t54 95.5t73 88t79.5 86.5t73.5 84t54 88.5t20.5 93q0 60 -36 95.5t-95 35.5q-62 0 -102 -41t-40 -103v-229h-98v231q0 146 97 227t241 81 q114 0 190 -71t76 -183q0 -62 -24.5 -121t-63.5 -106t-86.5 -92t-95 -87.5t-86.5 -84t-63.5 -89.5t-24.5 -96q0 -25 17 -41.5t44 -16.5t50.5 19.5t27.5 50.5l39 180h82l-39 -188q-18 -86 -77.5 -133t-139.5 -47q-72 0 -120 48t-48 122z" />
<glyph unicode="@" horiz-adv-x="1615" d="M139 307q0 148 39.5 292.5t116 269t180.5 219.5t242.5 149.5t292.5 54.5q183 0 320.5 -82t208.5 -223t71 -321q0 -176 -57 -328.5t-160 -245t-228 -92.5q-72 0 -109.5 51.5t-27.5 136.5h-12q-41 -86 -116.5 -138t-158.5 -52q-126 0 -210.5 88t-84.5 233q0 88 20.5 176.5 t62 168.5t98 142t134.5 99t167 37q67 0 121.5 -39.5t83.5 -101.5l178 127h18l-158 -721q-7 -36 8 -60t44 -24q69 0 132 77t100.5 203t37.5 263q0 235 -131 376.5t-354 141.5q-155 0 -293.5 -69.5t-237 -187t-156 -279.5t-57.5 -341q0 -244 146 -389t399 -145h219v-115h-221 q-193 0 -345 79.5t-237.5 228t-85.5 341.5zM651 377q-11 -115 18.5 -189.5t104.5 -74.5q72 0 128.5 65.5t88.5 173.5q39 129 51 248q11 109 -17 179.5t-97 70.5q-142 0 -223 -234q-42 -117 -54 -239z" />
<glyph unicode="A" horiz-adv-x="1396" d="M41 0v76h27q19 1 84 53t88 82l618 1223l133 88l254 -1313q21 -35 61.5 -84t57.5 -49h33v-76h-660v76h78q24 2 73.5 54.5t49.5 78.5l-35 223h-434l-113 -221q0 -29 25.5 -82t44.5 -53h82v-76h-467zM516 535h371l-92 532h-11z" />
<glyph unicode="B" horiz-adv-x="1331" d="M92 0v76h37q21 0 69.5 49t53.5 74l182 1095q3 22 -30 71.5t-52 49.5h-90v76h645q99 0 179.5 -17.5t143.5 -54t97.5 -97.5t34.5 -142q0 -105 -51.5 -194t-147.5 -144l-139 -39q38 -2 78 -12.5t84.5 -34.5t79.5 -58t57.5 -88.5t22.5 -120.5q0 -99 -39.5 -181t-105.5 -138 t-154 -95t-183 -57t-194 -18h-578zM543 170q-3 -17 17 -42.5t34 -25.5h100q115 0 207.5 73t122.5 192q12 49 18 114q1 16 1 30q-1 97 -63 154q-72 66 -171 66h-172zM653 827h168q82 0 153.5 58t94.5 168q10 46 16 102q2 18 2 35q-1 82 -49 138q-58 68 -145 69h-82 q-18 0 -45.5 -25.5t-30.5 -44.5z" />
<glyph unicode="C" horiz-adv-x="1411" d="M205 618q0 104 27.5 212t77.5 207.5t123.5 188t161 153.5t195.5 103t222 38q77 0 177 -35t148 -35q60 0 90 41h76l-125 -516h-80q0 41 -8 92.5t-29.5 115t-53.5 114.5t-87 85.5t-123 34.5q-70 0 -132.5 -25t-120.5 -78.5t-104 -147t-73 -220.5q-38 -166 -61 -379 q-4 -36 -4 -69q0 -146 78 -246q96 -123 264 -123q136 0 258.5 66t218.5 194h117q-68 -115 -160 -204t-223 -148t-277 -62h-19q-261 0 -405 165q-148 171 -149 478z" />
<glyph unicode="D" horiz-adv-x="1398" d="M92 0v76h37q21 0 69 46t52 73l184 1099q3 22 -30 71.5t-52 49.5h-90v76h621q165 0 295.5 -73t206 -211.5t75.5 -321.5q0 -178 -64.5 -341t-173.5 -282.5t-262.5 -190.5t-322.5 -71h-545zM547 201v-5q-1 -22 25 -56q30 -38 46 -38h46q348 0 458 471q36 150 56 347 q7 61 7 113q0 61 -9 111q-16 94 -58.5 148t-102.5 78.5t-141 24.5h-43q-20 0 -59.5 -40t-40.5 -63z" />
<glyph unicode="E" horiz-adv-x="1347" d="M92 0v76h41q20 0 66.5 46t50.5 71l184 1099v6q0 24 -28 68q-32 48 -54 49h-90v76h1157l-69 -408h-70q5 31 -74 170.5t-102 139.5h-326q-6 0 -22 -16t-17 -25l-88 -539h150q24 0 99 65.5t75 88.5v37h78v-490h-78v43q0 25 -75 90.5t-99 65.5h-168l-96 -566q0 -10 9.5 -27.5 t16.5 -17.5h381q32 0 97 87t115 180.5t50 117.5h74v-487h-1188z" />
<glyph unicode="F" horiz-adv-x="1261" d="M92 0v76h37q19 0 69 49.5t54 73.5l182 1093v6q0 26 -29 69q-33 48 -53 48h-90v76h1143l-90 -426h-70v7q0 46 -68 178q-74 142 -104 143h-295q-7 0 -22 -16t-17 -25l-92 -561h197q22 0 101 64.5t79 86.5v62h80v-551h-80v82q0 24 -77.5 89.5t-100.5 65.5h-217l-82 -491 q-1 -4 -1 -8q0 -24 26 -66q30 -49 51 -49h159v-76h-690z" />
<glyph unicode="G" horiz-adv-x="1456" d="M205 604q0 131 38 263t112 249t173.5 207.5t233.5 143.5t282 53q73 0 135 -17.5t112 -35t91 -17.5q61 0 91 41h75l-123 -516h-82q1 14 1 28q0 27 -4 57q-5 46 -18.5 96t-39 96.5t-58.5 83.5t-81 59t-103 22q-162 0 -282.5 -112.5t-182.5 -354.5q-41 -159 -67 -393 q-5 -47 -5 -89q0 -141 57 -235q73 -122 224 -122h23q71 0 146 45.5t106 103.5l-2 215q0 23 -39.5 72t-56.5 49h-179v80h764v-80h-125q-18 0 -60 -48t-42 -71l2 -477h-25l-147 172q-156 -197 -379 -197q-264 0 -414.5 173t-150.5 456z" />
<glyph unicode="H" horiz-adv-x="1478" d="M92 0v76h39q19 0 68 49.5t53 73.5l182 1093q3 21 -33 72t-49 51h-90v76h664v-76h-76q-16 0 -67 -51t-54 -72l-82 -481h508l82 481q1 22 -36 72.5t-54 50.5h-76v76h612v-76h-38q-16 0 -67 -51t-54 -72l-183 -1093q-1 -3 -1 -7q0 -24 28 -67q32 -49 51 -49h78v-76h-657v76 h90q19 0 69 49.5t54 73.5l84 499h-508l-84 -499v-5q0 -24 29 -68q33 -50 51 -50h82v-76h-615z" />
<glyph unicode="I" horiz-adv-x="720" d="M92 0v76h58q19 0 68.5 49.5t53.5 73.5l183 1093q3 24 -30.5 73.5t-53.5 49.5h-103v76h658v-76h-58q-22 0 -72 -50t-53 -73l-184 -1093q-3 -25 27.5 -74t50.5 -49h102v-76h-647z" />
<glyph unicode="J" horiz-adv-x="817" d="M41 0h106v-121q0 -32 19 -52t51 -20q50 0 82.5 34.5t38.5 92.5l158 1356q3 23 -32.5 74t-53.5 51h-111v76h641v-76h-39q-20 0 -65 -50.5t-48 -74.5l-126 -1069q-24 -128 -88.5 -248t-162 -200t-200.5 -80q-81 0 -125.5 49.5t-44.5 136.5v121z" />
<glyph unicode="K" horiz-adv-x="1456" d="M92 0v76h39q22 0 69 48.5t52 74.5l182 1093v5q0 25 -30 69q-34 50 -52 49h-90v76h672v-76h-78q-20 0 -69 -50t-52 -73l-133 -635h14l592 617q7 7 7 19q-1 22 -21 61q-32 61 -51 61h-84v76h551v-76h-35q-18 0 -117 -65.5t-115 -83.5l-366 -381l315 -676q12 -28 59 -80.5 t66 -52.5h37v-76h-643v76h76q21 0 59 52q30 42 31 64q0 5 -2 9l-203 473l-178 -187l-49 -288v-6q0 -25 27 -68q31 -49 49 -49h69v-76h-598z" />
<glyph unicode="L" horiz-adv-x="1234" d="M92 0v76h41q19 0 66.5 48.5t50.5 72.5l184 1095v5q0 25 -30 69q-34 49 -54 49h-88v76h723v-76h-129q-19 0 -70 -49t-55 -74l-186 -1112q-3 -19 16 -44t33 -25h268q35 0 96 95.5t107 198.5t49 136h80v-541h-1102z" />
<glyph unicode="M" horiz-adv-x="1796" d="M92 0v76h39q20 0 67 49t52 74l184 1093q3 22 -32.5 72.5t-51.5 50.5h-90v76h512l203 -1030h12l588 1030h426v-76h-37q-17 0 -67.5 -51.5t-53.5 -71.5l-182 -1093v-5q-1 -22 27 -68q32 -50 49 -50h43v-76h-625v76h88q17 0 67.5 51t53.5 72l174 991h-12l-719 -1245 l-275 1245h-10l-162 -991q-3 -21 31 -72t49 -51h47v-76h-395z" />
<glyph unicode="N" horiz-adv-x="1449" d="M92 0v76h39q18 0 84.5 65.5t69.5 89.5l178 1049q1 23 -33.5 79t-48.5 56h-84v76h457l493 -920h10l115 705q4 24 -34 81.5t-54 57.5h-90v76h461v-76h-39q-19 0 -75 -57t-60 -82l-219 -1315l-695 1264h-10l-160 -994q-4 -24 42 -89.5t65 -65.5h94v-76h-506z" />
<glyph unicode="O" horiz-adv-x="1560" d="M207 616q0 169 68 334t180.5 290.5t269.5 203.5q155 77 320 76h4q180 -1 317 -86q138 -86 208 -233q65 -135 65 -301q0 -14 -1 -28q-9 -171 -77 -333t-177 -287t-264 -201t-327 -76q-179 0 -314 83t-205 228q-67 139 -67 315v15zM494 510q-4 -39 -4 -74q0 -148 67 -234 q83 -106 254 -106q155 0 283.5 122.5t179.5 320.5q23 90 44.5 221.5t29.5 224.5q3 35 3 67q-1 156 -69 248q-82 112 -250 111q-160 0 -288.5 -128t-174.5 -327q-53 -222 -75 -446z" />
<glyph unicode="P" horiz-adv-x="1243" d="M92 0v76h37q18 0 68 48.5t53 72.5l182 1097v5q0 23 -30 67q-34 49 -54 49h-86v76h647q132 0 236.5 -40.5t167.5 -125t63 -201.5q0 -157 -96 -286q-94 -128 -248 -196q-139 -61 -293 -61q-16 0 -32 1l-99 4l-63 -389q-3 -23 29 -72t51 -49h90v-76h-623zM625 692h94 q115 0 219 69.5t131 178.5q26 110 31 186q1 15 1 30q0 98 -53 166q-61 78 -161 77h-80q-17 0 -44 -25.5t-30 -44.5z" />
<glyph unicode="Q" horiz-adv-x="1550" d="M205 621q0 170 66 334t177 288t267 200.5t325 76.5q268 0 423 -175t155 -460q0 -145 -46 -277t-128 -236.5t-187.5 -186.5t-232.5 -140v-8l211 -37l526 -401v-21h-334l-473 346q-65 51 -163 51h-11h-19q-163 0 -289 81q-132 85 -199.5 232t-67.5 333zM489 512 q-3 -36 -3 -68q0 -153 65 -239q79 -105 248 -105q148 0 274.5 123.5t179.5 317.5q25 93 49 223t31 221q3 35 3 68q0 154 -67 247q-81 111 -249 111q-149 0 -280.5 -129t-176.5 -324q-57 -238 -74 -446z" />
<glyph unicode="R" horiz-adv-x="1384" d="M92 0v76h41q17 0 66 50t53 73l182 1095v5q0 23 -30 67q-34 49 -52 49h-90v76h649q102 0 186 -20t148.5 -60.5t100.5 -106.5t36 -153q0 -115 -63 -210t-167.5 -152t-233.5 -72l204 -37q136 -362 260 -584q12 -20 43 -20v-76l-301 -25l-69 76q-114 237 -193 492 q-18 59 -46.5 91t-59.5 32h-131l-78 -467q-3 -24 29.5 -73.5t52.5 -49.5h92v-76h-629zM641 770h139q39 6 80 22t82.5 43.5t74.5 71t48 97.5q18 67 25 155q1 14 1 28q0 91 -51 147q-59 66 -147 65h-82q-18 0 -44.5 -25.5t-29.5 -44.5z" />
<glyph unicode="S" horiz-adv-x="1183" d="M184 0v487h76v-8q0 -37 32 -97q36 -67 93.5 -132t134 -112.5t142.5 -47.5q127 0 204.5 59t77.5 170q0 30 -9 58.5t-19 49.5t-34 45t-38.5 37t-49 35t-47.5 29t-52.5 28.5t-47.5 25.5q-165 89 -258.5 195.5t-93.5 246.5q0 200 139 324.5t354 124.5q65 0 162 -31t131 -31 q28 0 56.5 9.5t42.5 25.5h65l-102 -422h-72v9q1 32 -17 82q-20 58 -56.5 117t-93 101.5t-116.5 42.5q-115 0 -185.5 -59t-70.5 -158q0 -33 9.5 -63.5t22 -54t37.5 -48t43 -40t51.5 -36.5t51 -30.5l52.5 -28.5q52 -28 83 -45.5t77 -47t73.5 -53.5t60 -59t50 -69.5t29.5 -79.5 t12 -94q0 -216 -147.5 -347t-377.5 -131q-62 0 -158.5 33t-144.5 33q-58 0 -104 -43h-68z" />
<glyph unicode="T" horiz-adv-x="1359" d="M195 1004q73 262 116 516h70q31 -29 227 -29h611q192 0 235 29h70q-18 -113 -31 -242t-17 -202l-3 -72h-70q0 49 -83 219t-116 170h-155l-199 -1194q-1 -3 -1 -7q-1 -23 27 -66q32 -50 52 -50h104v-76h-706v76h104q20 0 69 50.5t54 72.5l199 1194h-156q-27 0 -106.5 -86 t-148.5 -181.5t-71 -121.5h-75z" />
<glyph unicode="U" horiz-adv-x="1452" d="M276 1415v76h633v-76h-47q-13 0 -67.5 -57t-57.5 -74l-137 -752q-9 -51 -9 -97q-1 -111 55 -187q77 -105 225 -105h6q105 1 191 50t138 130.5t66 182.5l98 751q1 20 -41.5 89t-56.5 69h-94v76h479v-76h-35q-14 0 -77 -69t-66 -89l-99 -747q-33 -248 -202.5 -391.5 t-411.5 -143.5q-109 0 -203 44.5t-157 120.5q-64 76 -90 186q-14 60 -15 124q0 53 10 109l133 725q3 17 -32.5 74t-46.5 57h-89z" />
<glyph unicode="V" horiz-adv-x="1372" d="M256 1415v76h674v-76h-90q-22 0 -70 -64t-53 -96l143 -829h8l404 827q2 5 2 12q0 29 -27 83q-33 67 -55 67h-92v76h508v-76h-33q-16 0 -87.5 -64.5t-98.5 -99.5l-603 -1194l-127 -77l-260 1273q-17 38 -55.5 100t-54.5 62h-33z" />
<glyph unicode="W" horiz-adv-x="1918" d="M256 1415v76h664v-76h-97q-19 0 -69 -69.5t-56 -100.5l82 -760h6l322 764l262 271l135 -1033h8l308 758v7q1 30 -27 92q-32 70 -49 71h-98v76h507v-76h-24q-18 0 -99.5 -73t-95.5 -99l-518 -1184l-127 -79l-139 1089h-10l-430 -1010l-127 -79l-185 1261 q-5 29 -51.5 101.5t-64.5 72.5h-27z" />
<glyph unicode="X" horiz-adv-x="1421" d="M61 0v76h37q17 0 93 65.5t108 102.5l422 467l-256 540q-9 25 -65 94.5t-76 69.5h-29v76h686v-76h-80q-14 0 -54.5 -64.5t-45.5 -90.5l133 -306h10l270 306q1 5 1 12q-1 29 -19 80q-22 63 -39 63h-84v76h533v-76h-27q-16 0 -100 -60t-119 -98l-369 -407l287 -606 q16 -34 62 -101t65 -67h29v-76h-703v76h98q22 0 66.5 64.5t44.5 95.5l-162 368h-10l-322 -366q-1 -6 -1 -13q-1 -29 19 -83q24 -66 46 -66h90v-76h-539z" />
<glyph unicode="Y" horiz-adv-x="1312" d="M248 1415v76h676v-76h-88q-18 0 -61.5 -62t-51.5 -93l143 -531h13l311 524v8q0 31 -17 88q-20 66 -36 66h-86v76h485v-76h-35q-22 -4 -98.5 -70.5t-95.5 -93.5l-389 -628l-70 -424v-5q0 -23 28 -68q31 -50 48 -50h104v-76h-694v76h104q15 0 64 51t53 72l74 426l-209 626 q-10 26 -62 95t-71 69h-39z" />
<glyph unicode="Z" horiz-adv-x="1236" d="M102 0v84l942 1307h-378q-26 0 -144 -142.5t-123 -171.5h-71l63 414h1041l-1000 -1387h381q39 0 115.5 91.5t136 191.5t59.5 127h78v-514h-1100z" />
<glyph unicode="[" horiz-adv-x="700" d="M150 -524l368 2187h463l-18 -86h-187q-16 0 -53.5 -35t-40.5 -55l-309 -1835q-3 -18 22.5 -54t40.5 -36h189l-17 -86h-458z" />
<glyph unicode="\" horiz-adv-x="774" d="M258 1671l117 21l407 -2151l-120 -22z" />
<glyph unicode="]" horiz-adv-x="702" d="M-96 -524l18 86h187q16 0 53.5 35t40.5 55l309 1835q3 18 -22.5 54t-40.5 36h-191l16 86h461l-368 -2187h-463z" />
<glyph unicode="^" horiz-adv-x="1257" d="M172 590l657 901h97l354 -901h-156l-272 704l-510 -704h-170z" />
<glyph unicode="_" horiz-adv-x="1032" d="M-23 -145l23 145h1032l-24 -145h-1031z" />
<glyph unicode="`" horiz-adv-x="849" d="M358 1460h265l61 -360h-74z" />
<glyph unicode="a" horiz-adv-x="1171" d="M150 334q0 116 42 235.5t112.5 216t172.5 157.5t213 61q178 0 238 -160l188 137h19l-166 -760q-4 -23 17 -48.5t42 -25.5q11 0 46 27.5t50 46.5l39 -53q-43 -56 -125 -120.5t-143 -65.5h-2q-66 0 -89 57q-15 38 -15 89q0 26 4 56h-11q-66 -104 -153 -155.5t-174 -51.5 q-143 0 -224 97.5t-81 259.5zM371 381q-4 -33 -4 -63q0 -74 25 -130q35 -78 116 -77q80 0 147 70.5t103 176.5q36 107 61 281q7 43 7 81q0 64 -20 110q-30 74 -114 73q-80 0 -149 -70.5t-109 -179.5q-45 -121 -63 -272z" />
<glyph unicode="b" horiz-adv-x="1122" d="M135 0l221 1298v5q0 22 -27 56q-31 38 -48 38h-45v65q98 21 196.5 50t147.5 48l49 19l-121 -711q50 54 125.5 95t165.5 41q154 0 240.5 -95.5t86.5 -279.5q0 -89 -25.5 -182t-75 -176t-114.5 -148.5t-151 -104t-178 -38.5q-86 0 -152.5 56t-97.5 118h-13l-165 -154h-19z M420 338q-1 -14 -1 -27q0 -89 41 -143q47 -62 126 -62t152.5 73t105.5 188q44 151 47 280v15q1 98 -37 155q-40 62 -119 62q-91 0 -170 -73.5t-100 -189.5q-38 -177 -45 -278z" />
<glyph unicode="c" horiz-adv-x="946" d="M150 365q0 88 24.5 178t73 172.5t114 147t155 103t188.5 38.5q182 0 292 -148l-192 -242q-44 0 -61 33q-8 16 -8 36q0 21 9 46q18 51 18 91q0 37 -22 65q-23 30 -73 30q-95 -14 -163.5 -84.5t-101 -171.5t-32.5 -219q0 -121 65 -194.5t176 -73.5q58 0 111 20.5t87.5 50 t60.5 59.5t37 50l12 21h75q-74 -173 -209.5 -284.5t-287.5 -111.5q-157 0 -252.5 110t-95.5 278z" />
<glyph unicode="d" horiz-adv-x="1165" d="M150 332q0 117 40.5 236.5t109 216t169 158t211.5 61.5q62 0 107.5 -22t86.5 -73l62 369v5q0 26 -27 69q-30 47 -49 47h-98v63q98 19 210 48.5t175 49.5l63 19l-229 -1354q-3 -24 16.5 -49.5t40.5 -25.5q11 0 43 25.5t52 45.5l38 -53q-28 -33 -65 -69t-97 -76.5 t-102 -40.5q-106 0 -106 154q0 22 2 46h-10q-73 -97 -158 -151t-164 -54q-150 0 -235.5 93t-85.5 262zM371 381q-3 -29 -3 -55q0 -82 26 -140q34 -77 118 -77q93 0 156.5 69.5t93.5 179.5q37 133 55 281q4 34 4 64q-1 75 -25 127q-34 74 -118 73q-83 0 -147.5 -69.5 t-100.5 -180.5q-47 -141 -59 -272z" />
<glyph unicode="e" horiz-adv-x="948" d="M150 369q0 85 27.5 176.5t78 172.5t114.5 145.5t144 102.5t160 38q118 0 190 -53.5t72 -159.5q0 -109 -95.5 -181.5t-240.5 -99.5q-96 -18 -221 -31q-6 -38 -6 -72q1 -87 39 -149q54 -88 172 -88q91 0 175 56t138 147h76q-73 -173 -204 -284.5t-271 -111.5 q-170 0 -259 111t-89 281zM385 549q116 17 217 45q76 21 129 72.5t53 115.5q0 59 -33 96t-87 37q-64 -7 -125.5 -66t-101.5 -140t-52 -160z" />
<glyph unicode="f" horiz-adv-x="626" d="M-195 -305q3 59 39.5 100t98.5 51h47q42 -10 71 -48q24 -31 24 -71q0 -8 -1 -16h18q35 13 66 45.5t37 67.5q3 17 3 32q0 21 -6 40q-11 32 -27.5 51t-26.5 53q-4 15 -4 33q0 20 6 43l178 737q5 20 -20 58t-44 38h-121v72h224l39 125q57 192 181.5 327.5t268.5 135.5 q58 0 94.5 -35t36.5 -88q0 -62 -40 -104.5t-101 -55.5h-49q-43 9 -69 46q-20 27 -20 58q0 12 3 25h-21q-23 -10 -49 -42t-33 -66q-3 -15 -3 -33q0 -40 15 -92q13 -50 13 -89q0 -22 -4 -40l-19 -72h193v-72h-211l-230 -932q-40 -183 -162 -299t-272 -116q-56 0 -91 40 q-32 36 -32 85v8z" />
<glyph unicode="g" horiz-adv-x="1028" d="M-18 -233q0 48 39 88.5t91 64.5t117 41q-57 5 -106 43t-49 92t45 99t110 72t146 44q-28 7 -59.5 28t-63 54t-52 83.5t-20.5 107.5q0 187 127.5 303.5t317.5 116.5q126 0 201 -88q64 -77 64 -185q0 -16 -1 -33h12q5 67 14.5 126.5t29 129t55.5 107.5q31 32 72 32 q7 0 15 -1l64 -304h-55q-24 0 -67 -65t-48 -98q-24 -154 -150 -265.5t-303 -111.5h-129q-110 -19 -110 -105q0 -34 27 -57t73 -27q98 -11 272 -11q40 0 84 1h8q90 0 149 -45q61 -48 61 -125q0 -76 -42 -137.5t-113 -100t-162 -59t-193 -20.5q-205 0 -338 55t-133 150z M143 -186q-1 -3 -1 -6q0 -31 59 -68q64 -41 143 -67.5t123 -26.5q35 1 68 3.5t81.5 11t83.5 22.5t60.5 40.5t25.5 61.5q0 25 -20 39t-55 14q-61 -2 -117 -2h-54q-81 2 -141 8t-92.5 24.5t-27.5 49.5q-41 -10 -85 -38.5t-51 -65.5zM385 563q-1 -11 -1 -22q0 -69 34 -119 q38 -57 112 -57q77 0 132 48.5t77 131.5q24 93 29 160q1 12 1 23q0 75 -35 124q-40 57 -111 57q-79 0 -134 -49t-77 -139q-22 -92 -27 -158z" />
<glyph unicode="h" horiz-adv-x="1112" d="M135 0l225 1298v6q0 23 -24 56q-28 37 -49 37h-47v63q90 21 189.5 50t153.5 48l54 19l-139 -825q242 252 372 252q114 0 176 -92q40 -58 40 -122q0 -37 -13 -77q-101 -311 -153 -496q-6 -25 14.5 -48.5t42.5 -23.5q14 0 48.5 27.5t51.5 48.5l39 -53q-48 -66 -122 -126 t-136 -60q-86 0 -140 66q-37 46 -37 105q0 26 7 54q36 149 154 502q2 7 2 14q0 27 -28 61q-36 44 -68 43q-34 0 -99.5 -47.5t-116.5 -99t-53 -66.5l-106 -614h-238z" />
<glyph unicode="i" horiz-adv-x="604" d="M135 811v66q92 21 201.5 53.5t173.5 55.5l63 22q-25 -119 -81.5 -417t-67.5 -370q-3 -24 16.5 -50t40.5 -26q11 0 42 25.5t52 46.5l39 -53q-27 -31 -66 -68.5t-99.5 -77.5t-102.5 -41h-3q-71 0 -115 52q-43 50 -42 118v9q2 46 26.5 174t51 251t27.5 130v6q0 23 -27 56 q-31 38 -49 38h-80zM358 1286q0 60 44 104t106 44q61 0 105 -44t44 -104t-44 -103.5t-105 -43.5q-63 0 -106.5 43.5t-43.5 103.5z" />
<glyph unicode="j" horiz-adv-x="598" d="M-57 -270l26 159h84l-26 -157q-5 -28 9.5 -48t39.5 -20q27 0 50.5 21t27.5 51l165 930v6q0 25 -25 66q-30 48 -48 48h-94v62q111 30 226.5 70t175.5 65l60 25l-182 -1051q-17 -95 -69 -185t-129.5 -150t-157.5 -60q-70 0 -108 44q-28 33 -28 86q0 18 3 38zM389 1286 q0 53 37.5 90t91.5 37t91.5 -37t37.5 -90t-37.5 -90t-91.5 -37t-91.5 37t-37.5 90z" />
<glyph unicode="k" horiz-adv-x="1044" d="M135 0l223 1296v5q0 22 -27 57q-31 39 -50 39h-56v61q95 19 198.5 49t159.5 50l56 20l-217 -1139h14l338 336q6 6 6 17q0 21 -18 59q-28 60 -55 59h-103l12 72h566v-72h-41q-24 0 -125.5 -63.5t-130.5 -91.5l-154 -142l223 -440q12 -26 37.5 -57t46.5 -41v-74l-235 -25 l-80 97l-172 368l-121 -112l-53 -328h-242z" />
<glyph unicode="l" horiz-adv-x="575" d="M154 156q0 34 51.5 319t102.5 553l52 268q3 22 -29 61.5t-48 39.5h-50v63q96 22 195.5 51.5t151.5 48.5l51 19l-236 -1358q-4 -24 16.5 -50t41.5 -26q11 0 42 25.5t52 46.5l39 -53q-26 -31 -66 -68.5t-100.5 -77.5t-102.5 -41h-3q-69 0 -114 52q-46 53 -46 127z" />
<glyph unicode="m" horiz-adv-x="1656" d="M141 815v62q73 20 159 52.5t136 54.5l49 22v-295h11q36 49 75 94.5t89 93t102.5 76.5t97.5 29q48 0 88.5 -26t62.5 -67.5t30 -93.5q3 -18 3 -36q0 -34 -10 -68q225 291 371 291q56 0 100 -25t67.5 -66t31.5 -93q3 -18 3 -37q0 -35 -10 -70l-133 -496q-6 -23 15.5 -49.5 t42.5 -26.5q11 0 48 30.5t52 49.5l39 -53q-29 -33 -64.5 -68.5t-94.5 -76t-101 -41.5h-4q-75 0 -129 68q-40 50 -39 109q0 23 6 48l131 500q2 10 2 20q0 30 -19 64q-26 45 -61 45q-36 0 -95 -49t-102.5 -102t-46.5 -71l-108 -614h-234l129 705q2 10 2 21q0 32 -19 66 q-25 44 -60 44t-93.5 -49.5t-102 -103t-46.5 -71.5l-106 -612h-236l129 717q3 24 -26 61t-48 37h-84z" />
<glyph unicode="n" horiz-adv-x="1153" d="M141 815v62q76 24 166 56t143 53l52 20v-283h10q56 63 118 120t143.5 109t137.5 52q115 0 177 -92q40 -58 39 -122q0 -37 -13 -77q-101 -311 -153 -496q-6 -25 14.5 -48.5t42.5 -23.5q14 0 48.5 27.5t51.5 48.5l39 -53q-48 -66 -122 -126t-136 -60q-85 0 -139 66 q-37 46 -38 105q0 26 7 54q36 149 154 502q2 7 2 14q0 27 -29 61q-37 44 -68 43q-34 0 -100.5 -47.5t-118 -99t-53.5 -66.5l-108 -614h-238l127 717q3 22 -26 60t-48 38h-82z" />
<glyph unicode="o" horiz-adv-x="1062" d="M143 387q0 115 43 227t115.5 198t175 139t213.5 53q177 0 280 -113.5t104 -302.5q0 -93 -28 -183.5t-79 -167t-118 -135.5t-151.5 -92t-173.5 -33q-175 0 -278 110t-103 300zM373 336q-2 -20 -2 -39q-1 -89 35 -141q42 -64 131 -64q82 0 158 76t104 188q39 154 51 314 q2 18 2 36q0 85 -38 135q-45 60 -134 60q-80 0 -153.5 -73.5t-102.5 -186.5q-38 -145 -51 -305z" />
<glyph unicode="p" horiz-adv-x="1163" d="M-31 -348h39q20 0 63.5 42t47.5 70l162 949q3 21 -29.5 59.5t-48.5 38.5h-70v61q88 24 180 57.5t141 54.5l48 22v-195q51 73 141.5 133t194.5 60q154 0 241.5 -95.5t87.5 -279.5q0 -89 -25.5 -182t-75 -176t-114.5 -148.5t-151 -104t-178 -38.5q-78 0 -131.5 47.5 t-75.5 122.5h-10l-48 -386v-6q0 -26 25 -64q28 -42 47 -42h92v-74h-553v74zM461 346q-2 -19 -2 -36q0 -84 41 -138q48 -66 127 -66q78 0 148.5 72.5t107.5 188.5q46 142 49 280v14q0 97 -38 155q-42 63 -118 63q-91 0 -169 -73t-101 -190q-39 -204 -45 -270z" />
<glyph unicode="q" horiz-adv-x="1087" d="M150 332q0 117 40.5 236.5t109 216t169 158t211.5 61.5q165 0 238 -156l182 133h20l-254 -1403h-229l92 422l45 154h-10q-138 -177 -293 -177q-150 0 -235.5 93t-85.5 262zM371 381q-3 -30 -3 -57q0 -81 25 -138q33 -77 117 -77q93 0 157.5 69.5t94.5 179.5 q37 133 55 281q4 34 4 64q0 74 -25 127q-34 73 -118 73q-83 0 -147.5 -69.5t-100.5 -180.5q-47 -141 -59 -272z" />
<glyph unicode="r" horiz-adv-x="804" d="M141 799v61q70 25 149.5 61.5t123.5 60.5l45 24v-394h8q13 27 35.5 76.5t33.5 73t26.5 53t27.5 49.5q45 76 89 108t99 32q42 0 103 -23v-166l-56 -59h-92q-64 0 -117 -51.5t-116 -163.5l-90 -541h-236l121 700v6q0 23 -28 56q-32 37 -52 37h-74z" />
<glyph unicode="s" horiz-adv-x="874" d="M106 170q-8 19 -8 36q0 28 22 50q30 31 73 31q7 0 15 -1q53 -6 71 -57q19 -52 78.5 -97.5t113.5 -45.5q89 0 141 33t52 100q0 28 -13 51t-39 40.5t-47 28t-55.5 25t-46.5 19.5q-56 25 -96.5 49.5t-80.5 58.5t-61.5 78t-21.5 95q0 141 113.5 239t273.5 98 q90 0 177.5 -45.5t123.5 -124.5q9 -19 9 -36q0 -25 -20 -45q-30 -32 -74 -32h-8q-49 3 -65 48q-18 50 -69.5 95.5t-98.5 45.5q-80 0 -130 -33t-50 -94q0 -24 13.5 -47t30.5 -38t49 -33.5t50 -27t54 -24.5q119 -52 162 -81q116 -77 116 -195q0 -98 -57.5 -180t-155.5 -129.5 t-213 -47.5q-93 0 -194 58t-134 135z" />
<glyph unicode="t" horiz-adv-x="700" d="M141 868v113h197l131 264h160l-51 -264h225v-117h-242l-110 -624q-1 -4 0 -8q1 -25 21 -54q24 -33 48 -33q30 0 77.5 35t76.5 64l41 -64q-23 -30 -72.5 -73.5t-122.5 -86t-127 -43.5h-4q-75 1 -137 67q-50 55 -50 124q0 18 3 37l102 590q3 17 -16 45t-31 28h-119z" />
<glyph unicode="u" horiz-adv-x="1144" d="M143 811q27 32 66.5 70t101 80t103.5 43h2q84 0 133 -68q32 -46 32 -101q0 -28 -8 -57l-141 -485q-6 -22 -6 -42q0 -31 14 -57q24 -42 74 -42q45 0 123 56.5t137 125.5l113 647h231l-131 -750q-3 -20 16.5 -46.5t38.5 -26.5q18 0 97 69l39 -55q-178 -188 -260 -190h-3 q-71 0 -107 54q-34 51 -34 126v12l2 43h-10q-99 -111 -191.5 -176.5t-187.5 -65.5q-67 0 -119 44q-50 44 -70 111q-10 36 -11 72q0 31 8 62l147 496q6 21 -15 48.5t-42 27.5q-11 0 -42.5 -25.5t-52.5 -46.5z" />
<glyph unicode="v" horiz-adv-x="950" d="M88 909v72h393v-186q16 -88 34 -201t28 -182l10 -70h12l244 453q5 9 5 23q0 18 -8 44q-15 47 -32 47h-84v72h373v-72h-29q-16 0 -58.5 -41.5t-60.5 -72.5l-423 -744l-121 -74q-76 497 -142 818q-9 29 -44 71.5t-52 42.5h-45z" />
<glyph unicode="w" horiz-adv-x="1392" d="M88 909v72h365v-188q11 -88 22.5 -192.5t16.5 -164.5l6 -61h8l205 461l196 217q25 -132 50.5 -301t38.5 -272l12 -103h8l198 414q4 8 4 19q0 20 -12 50q-18 48 -35 49h-92l-16 72h412v-72h-37q-14 0 -58.5 -44.5t-64.5 -73.5l-373 -736l-111 -80q-41 426 -90 678h-10 l-297 -598l-115 -80q-53 499 -102 813q-5 26 -38 73.5t-50 47.5h-41z" />
<glyph unicode="x" horiz-adv-x="1148" d="M20 0v74h29q17 1 90.5 54t93.5 73l289 295l-211 290q-21 31 -61.5 77t-56.5 46h-74v72h555v-72h-66q-17 0 -38 -54q-14 -37 -14 -57q0 -10 3 -16l119 -176l188 176q6 9 6 25q0 20 -9 49q-16 53 -32 53h-69v72h438v-72h-24q-17 -1 -96 -55t-99 -74l-260 -241l242 -342 q22 -31 62.5 -77t57.5 -46h68v-74h-559v74h70q18 0 41 54q17 38 17 58q0 8 -3 13l-152 223l-209 -223q-10 -17 -4.5 -44.5t21 -54t26.5 -26.5h72v-74h-451z" />
<glyph unicode="y" horiz-adv-x="927" d="M88 909v72h387v-197l74 -458h14l246 465q1 7 1 14q0 25 -15 59q-20 45 -39 45h-66v72h379v-72h-31q-12 0 -57.5 -44.5t-67.5 -73.5l-419 -740l-226 -473h-137l236 475q-70 421 -146 733q-8 26 -44 74.5t-52 48.5h-37z" />
<glyph unicode="z" horiz-adv-x="960" d="M61 0v74l721 721l-364 -4q-25 0 -75.5 -47t-59.5 -76h-58v313h848v-23l-756 -765l383 4q42 0 113.5 62.5t71.5 92.5h55l-53 -352h-826z" />
<glyph unicode="{" horiz-adv-x="700" d="M201 606v76q49 11 116 29q96 29 131.5 93t20.5 165q-5 35 -8.5 66t-4.5 91.5t5.5 110.5t26.5 110t52.5 103.5t89.5 78.5t132 46v-80q-56 -15 -90.5 -39t-47.5 -54.5t-14 -64.5t8 -76t19.5 -81t19.5 -87.5t9 -88.5q0 -149 -107.5 -254.5t-255.5 -108.5q47 0 92 -15.5 t83 -45t61.5 -79.5t23.5 -112q0 -54 -25.5 -120.5t-59 -121.5t-62.5 -113t-40.5 -102.5t12.5 -81.5t91 -57l-28 -80q-197 43 -197 242q0 141 106 364q23 52 27.5 100.5t-17 90t-69.5 61.5q-65 27 -100 35z" />
<glyph unicode="|" horiz-adv-x="565" d="M322 -422v1999h122v-1999h-122z" />
<glyph unicode="}" horiz-adv-x="700" d="M137 -207q56 15 90.5 39t47.5 55t14 64.5t-8 76t-19.5 81.5t-19.5 87.5t-9 88.5q0 149 107.5 254t255.5 108q-47 0 -92 15.5t-83 45t-61.5 79.5t-23.5 112q0 54 25.5 120.5t59 121.5t62.5 113t40.5 102.5t-12.5 81.5t-91 57l29 80q196 -43 196 -242q0 -141 -106 -364 q-17 -38 -23.5 -75.5t-1.5 -71.5t26.5 -61.5t57.5 -43.5q47 -20 100 -35v-76q-72 -16 -116 -28q-184 -52 -152 -259q5 -35 8.5 -66t4.5 -91.5t-5.5 -110.5t-26.5 -110t-52.5 -103.5t-89.5 -78.5t-132 -46v80z" />
<glyph unicode="~" horiz-adv-x="1269" d="M143 432q-24 92 3.5 173.5t100 131t171.5 49.5q92 0 225 -40t250.5 -79.5t171.5 -39.5q75 0 116.5 35.5t41.5 97.5h84q24 -92 -3.5 -173.5t-100 -131t-171.5 -49.5q-60 0 -154 25t-176.5 54.5t-173 54.5t-143.5 25q-75 0 -116.5 -35.5t-41.5 -97.5h-84z" />
<glyph unicode="&#xa1;" horiz-adv-x="530" d="M104 -274l281 931h49v-929q0 -74 -53 -120t-129 -46q-69 0 -113 46t-35 118zM268 918q0 66 48.5 113.5t117.5 47.5t117.5 -47.5t48.5 -113.5t-48.5 -114t-117.5 -48t-117.5 48t-48.5 114z" />
<glyph unicode="&#xa2;" horiz-adv-x="1034" d="M190 616q0 117 38 230.5t117.5 210t186.5 143.5l-45 289l86 14l43 -276q53 12 109 12q183 0 293 -147l-225 -246h-80l75 115q23 44 20.5 86.5t-36 73t-84.5 30.5q-35 0 -59 -8l110 -733q81 33 137.5 113.5t75.5 183.5h76q-22 -145 -92.5 -259t-175.5 -176l43 -270 l-90 -16l-37 250q-65 -19 -133 -19q-154 0 -253.5 116t-99.5 283zM381 684q0 -129 68 -212t186 -83h18l-106 715q-79 -54 -122.5 -169t-43.5 -251z" />
<glyph unicode="&#xa3;" horiz-adv-x="1157" d="M78 66q157 97 249.5 202.5t137.5 245.5h-244v96h271l24 92h-217v97h240q22 78 33 164.5t18 242.5q7 153 99.5 233.5t250.5 80.5q107 0 175.5 -73t68.5 -194v-133h-92v133q0 56 -32 92.5t-83 36.5q-67 0 -105.5 -43t-40.5 -116q-3 -231 -65 -424h203v-97h-226l-38 -92h329 v-96h-366q-65 -101 -156.5 -186t-149.5 -111q271 11 519 6q12 0 45.5 25.5t60.5 50.5l27 25h76l-158 -324h-823z" />
<glyph unicode="&#xa4;" horiz-adv-x="1243" d="M170 1012l104 106l105 -106q136 102 303 102q165 0 301 -102l102 102l103 -102l-103 -103q103 -137 103 -301q0 -166 -103 -303l109 -106l-107 -105l-108 107q-136 -99 -297 -99q-168 0 -303 101l-103 -103l-102 103l102 102q-100 133 -100 303q0 162 98 297zM309 608 q0 -113 62 -207l73 74l105 -104l-74 -74q92 -61 207 -61q114 0 203 59l-74 74l107 106l73 -76q64 92 64 209q0 115 -64 207l-73 -74l-103 103l74 74q-91 63 -207 63q-118 0 -209 -63l76 -74l-107 -107l-73 74q-60 -91 -60 -203z" />
<glyph unicode="&#xa5;" horiz-adv-x="1257" d="M162 1415v76h684v-76h-76q-16 0 -55 -61.5t-47 -93.5l118 -596h15l313 589q3 28 -29 95t-49 67h-80v76h498v-76h-24q-22 -4 -101 -70.5t-98 -93.5l-295 -544h240v-97h-293l-52 -92h304v-96h-330l-39 -223q-4 -21 29 -72t49 -51h96v-76h-670v76h97q15 0 63.5 51t52.5 72 l43 223h-307v96h316l-19 92h-254v97h236l-133 544q-7 24 -61.5 94t-74.5 70h-67z" />
<glyph unicode="&#xa6;" horiz-adv-x="612" d="M326 336h141v-758h-141v758zM326 819v758h141v-758h-141z" />
<glyph unicode="&#xa7;" horiz-adv-x="1110" d="M193 651q0 184 237 330q-69 32 -118.5 110t-49.5 154q0 120 56.5 213.5t148.5 142t201 48.5q42 0 122 -26t125 -26q43 0 78 35h66l-84 -483h-68q-1 63 -14 128.5t-38.5 129t-71.5 103.5t-105 40q-97 0 -157 -57t-60 -152q0 -124 141 -196q112 -58 256 -107 q111 -37 177.5 -115.5t66.5 -193.5q0 -185 -238 -332q69 -31 118.5 -108t49.5 -154q0 -120 -56 -213.5t-148 -141.5t-201 -48q-41 0 -122 25.5t-126 25.5q-43 0 -78 -35h-65l83 483h68q1 -63 14 -128.5t38.5 -129t71.5 -103.5t105 -40q97 0 157.5 57t60.5 152 q0 125 -142 197q-77 40 -237 100q-52 20 -87.5 37t-71.5 43.5t-56.5 57.5t-33.5 75.5t-13 101.5zM379 750q0 -65 35 -111.5t96 -63.5q273 -76 287 -143q49 36 83.5 89.5t34.5 109.5q0 64 -34.5 110.5t-96.5 63.5q-272 76 -288 141q-48 -34 -82.5 -87t-34.5 -109z" />
<glyph unicode="&#xa8;" horiz-adv-x="849" d="M287 1272q0 53 37.5 90t91.5 37t91.5 -37t37.5 -90t-37.5 -90t-91.5 -37t-91.5 37t-37.5 90zM705 1272q0 53 37.5 90t91.5 37t91.5 -37t37.5 -90t-37.5 -90t-91.5 -37t-91.5 37t-37.5 90z" />
<glyph unicode="&#xa9;" horiz-adv-x="1521" d="M203 612q0 132 38 264t111 247t169.5 203.5t223 140t263.5 51.5q134 0 243 -48.5t181 -135t110.5 -205t38.5 -257.5q0 -171 -62 -333.5t-167.5 -286.5t-257 -199.5t-320.5 -75.5q-175 0 -306 83.5t-198 226.5t-67 325zM309 610q0 -235 125.5 -382.5t345.5 -147.5 q145 0 276.5 68t222.5 178.5t144.5 254.5t53.5 293q0 240 -130.5 393.5t-345.5 153.5q-146 0 -276.5 -70t-220.5 -183.5t-142.5 -260t-52.5 -297.5zM494 651q0 142 59 269t171.5 208.5t252.5 81.5q43 0 102 -20.5t88 -20.5q14 0 35 8.5t29 20.5l41 -37l-41 -293h-68 q3 18 -7.5 58.5t-31.5 86.5t-61 80.5t-88 34.5q-89 0 -159 -66t-105 -208q-21 -88 -33 -207q-8 -114 49 -183t158 -69q77 0 150.5 48.5t125.5 134.5h88q-62 -126 -168 -209.5t-235 -83.5q-164 0 -258 101t-94 265z" />
<glyph unicode="&#xaa;" horiz-adv-x="888" d="M199 995q0 125 53 243t149.5 194.5t208.5 76.5q62 0 105.5 -27t77.5 -91l153 100h17l-125 -580q-4 -18 11.5 -37.5t31.5 -19.5q8 0 34.5 20.5t38.5 34.5l29 -41q-39 -46 -97 -92.5t-104 -46.5q-52 -1 -68.5 43t-11.5 111h-8q-56 -74 -120 -116t-123 -42q-113 0 -182.5 74 t-69.5 196zM373 1055q-14 -88 14.5 -150.5t93.5 -62.5q124 0 191 196q30 90 43 172q14 88 -14.5 147.5t-92.5 59.5q-63 0 -112.5 -54t-79.5 -140q-30 -85 -43 -168z" />
<glyph unicode="&#xab;" horiz-adv-x="1157" d="M178 553v119l561 475v-166l-438 -371l285 -342v-190zM596 553v119l561 475v-166l-438 -371l282 -342v-190z" />
<glyph unicode="&#xac;" horiz-adv-x="1157" d="M172 514v180h934v-479l-184 -96v395h-750z" />
<glyph unicode="&#xad;" d="M121 440l43 236h541l-41 -236h-543z" />
<glyph unicode="&#xae;" horiz-adv-x="1521" d="M203 612q0 132 38 264t111 247t169.5 203.5t223 140t263.5 51.5q134 0 243 -48.5t181 -135t110.5 -205t38.5 -257.5q0 -171 -62 -333.5t-167.5 -286.5t-257 -199.5t-320.5 -75.5q-175 0 -306 83.5t-198 226.5t-67 325zM309 610q0 -235 125.5 -382.5t345.5 -147.5 q145 0 276.5 68t222.5 178.5t144.5 254.5t53.5 293q0 240 -130.5 393.5t-345.5 153.5q-146 0 -276.5 -70t-220.5 -183.5t-142.5 -260t-52.5 -297.5zM434 342v59h80q9 0 39 30t31 42l104 592q2 11 -19 40.5t-30 29.5h-35v57h383q119 0 203 -54t84 -151q0 -92 -70 -155.5 t-186 -94.5l90 -37q62 -183 139 -317l-30 -41l-166 -25q-32 51 -66.5 152t-58.5 171.5t-39 70.5h-70l-47 -248v-121h-336zM827 782h86q49 0 93.5 32.5t62.5 94.5q11 43 14 86q4 66 -27.5 100.5t-82.5 34.5h-41q-11 0 -34 -19.5t-24 -31.5z" />
<glyph unicode="&#xaf;" horiz-adv-x="849" d="M348 1167l35 160h496l-33 -160h-498z" />
<glyph unicode="&#xb0;" horiz-adv-x="753" d="M231 1223q0 124 89 210.5t217 86.5t217.5 -86t89.5 -209q0 -124 -89.5 -210.5t-217.5 -86.5t-217 85.5t-89 209.5zM354 1223q0 -77 53.5 -132t129.5 -55q77 0 130.5 54t53.5 133t-53.5 133.5t-130.5 54.5t-130 -54.5t-53 -133.5z" />
<glyph unicode="&#xb1;" horiz-adv-x="1181" d="M219 0v152h871v-152h-871zM219 668v153h354v350h166v-350h348v-153h-348v-346h-166v346h-354z" />
<glyph unicode="&#xb2;" horiz-adv-x="737" d="M180 690v60q56 123 350 340q57 42 86 83t29 95t-35.5 88.5t-89.5 34.5q-98 0 -215 -123l-43 49q72 83 161 136.5t177 53.5q87 0 149 -57t62 -143q0 -180 -236 -301q-67 -35 -137.5 -83.5t-101.5 -88.5l371 4v-148h-527z" />
<glyph unicode="&#xb3;" horiz-adv-x="737" d="M250 666v79q54 9 109.5 27t114 49t95.5 80.5t37 108.5q0 65 -56.5 89.5t-141.5 0.5v61l110 37q90 58 90 129q0 34 -22.5 55t-59.5 21q-67 0 -192 -94l-21 67q166 129 308 129q58 0 95.5 -34t37.5 -95q0 -58 -49 -111t-119 -87q65 8 122.5 -30.5t57.5 -107.5 q0 -78 -52 -147.5t-132.5 -114.5t-166.5 -74t-165 -38z" />
<glyph unicode="&#xb4;" horiz-adv-x="849" d="M528 1100l179 360h288l-391 -360h-76z" />
<glyph unicode="&#xb6;" horiz-adv-x="886" d="M158 1143q0 137 91 242.5t230 105.5h557v-76h-32q-22 0 -74.5 -50t-55.5 -73l-262 -1597l-153 -121l305 1821h-107l-305 -1817h-129l228 1323h-72q-96 0 -158.5 69t-62.5 173z" />
<glyph unicode="&#xb7;" horiz-adv-x="600" d="M252 696q0 68 50 117t120 49t120 -49t50 -117t-50 -117t-120 -49t-120 49t-50 117z" />
<glyph unicode="&#xb8;" horiz-adv-x="849" d="M215 -332l72 56q44 -64 116 -64q51 0 86 27.5t35 68.5q0 29 -18.5 45.5t-46.5 16.5q-26 0 -70 -21l-47 41l92 193h107l-109 -154q45 29 96 29q60 0 98 -37t38 -94q0 -96 -77 -153.5t-186 -57.5q-63 0 -112 29.5t-74 74.5z" />
<glyph unicode="&#xb9;" horiz-adv-x="739" d="M297 690v72h55q10 0 36.5 26.5t29.5 40.5l69 406q2 14 -12 34.5t-24 20.5h-70v58q44 4 85.5 19.5t68.5 34.5t48 37t31 30l9 12l88 39l-115 -691q-3 -14 14 -40.5t27 -26.5h65v-72h-405z" />
<glyph unicode="&#xba;" horiz-adv-x="890" d="M254 1044q0 118 53.5 224.5t151 173.5t213.5 67q128 0 213.5 -83.5t85.5 -225.5q0 -124 -54 -233t-150.5 -175.5t-211.5 -66.5q-138 0 -219.5 86.5t-81.5 232.5zM440 1024q-11 -88 20.5 -146.5t94.5 -58.5q69 0 114 48.5t74 144.5q28 97 37 202q8 91 -21 152t-89 61 q-70 0 -115.5 -51.5t-73.5 -148.5q-30 -110 -41 -203z" />
<glyph unicode="&#xbb;" horiz-adv-x="1157" d="M178 76v166l438 370l-282 342v191l405 -475v-119zM596 76v166l438 370l-284 342v191l407 -475v-119z" />
<glyph unicode="&#xbc;" horiz-adv-x="1492" d="M223 0l1166 1491h124l-1171 -1491h-119zM262 690v72h55q10 0 36.5 26.5t29.5 40.5l70 406q1 13 -12.5 34t-24.5 21h-70v58q44 4 85.5 19.5t68.5 34.5t48 37t30 30l10 12l88 39l-115 -691q-3 -14 14 -40.5t27 -26.5h66v-72h-406zM788 176v74q116 118 236.5 249.5 t183.5 204.5l62 72l116 37l-90 -543h93v-94h-109l-8 -47q-3 -15 15 -41.5t30 -26.5h29v-61h-394v61h78q11 0 39 26.5t31 41.5l8 47h-320zM905 264h215l49 291q-121 -148 -264 -291z" />
<glyph unicode="&#xbd;" horiz-adv-x="1503" d="M223 0l1166 1491h124l-1171 -1491h-119zM262 690v72h55q10 0 36.5 26.5t29.5 40.5l70 406q1 13 -12.5 34t-24.5 21h-70v58q44 4 85.5 19.5t68.5 34.5t48 37t30 30l10 12l88 39l-115 -691q-3 -14 14 -40.5t27 -26.5h66v-72h-406zM858 0h526v147l-370 -4q31 40 101.5 88.5 t137.5 83.5q236 121 236 301q0 86 -62.5 143.5t-148.5 57.5q-88 0 -177 -53.5t-161 -136.5l43 -49q116 122 215 122q54 0 89.5 -34t35.5 -88t-29 -95.5t-86 -83.5q-294 -217 -350 -340v-59z" />
<glyph unicode="&#xbe;" horiz-adv-x="1511" d="M223 0l1166 1491h124l-1171 -1491h-119zM256 666v79q54 9 109.5 27t114 49t95.5 80.5t37 108.5q0 65 -56.5 89.5t-141.5 0.5v61l110 37q90 58 90 129q0 34 -22.5 55t-59.5 21q-67 0 -192 -94l-21 67q166 129 308 129q58 0 95.5 -34t37.5 -95q0 -58 -49 -111t-119 -87 q65 8 122.5 -30.5t57.5 -107.5q0 -78 -52 -147.5t-132.5 -114.5t-166.5 -74t-165 -38zM788 176v74q116 118 236.5 249.5t183.5 204.5l62 72l116 37l-90 -543h93v-94h-109l-8 -47q-3 -15 15 -41.5t30 -26.5h29v-61h-394v61h78q11 0 39 26.5t31 41.5l8 47h-320zM905 264h215 l49 291q-121 -148 -264 -291z" />
<glyph unicode="&#xbf;" horiz-adv-x="743" d="M63 -184q0 85 46 163.5t111.5 139.5t130.5 118.5t111 123t46 131.5q0 25 -17 41t-45 16q-27 0 -50 -19.5t-27 -50.5l-39 -180h-82l39 188q18 86 77.5 133.5t139.5 47.5q72 0 120 -48t48 -122q0 -52 -20.5 -103.5t-54 -95.5t-73.5 -88t-79.5 -86.5t-73 -84t-54 -88.5 t-20.5 -93q0 -60 36 -95.5t95 -35.5q62 0 101.5 40.5t39.5 102.5v229h99v-231q0 -146 -97 -226.5t-241 -80.5q-114 0 -190.5 71t-76.5 183zM430 952q0 53 37.5 90t91.5 37t91.5 -37t37.5 -90t-37.5 -90t-91.5 -37t-91.5 37t-37.5 90z" />
<glyph unicode="&#xc0;" horiz-adv-x="1396" d="M41 0h467v76h-82q-19 0 -44.5 53t-25.5 82l113 221h434l35 -223q0 -26 -49.5 -78.5t-73.5 -54.5h-78v-76h660v76h-33q-17 0 -57.5 49t-61.5 84l-254 1313l-133 -88l-618 -1223q-23 -30 -88 -82t-84 -53h-27v-76zM516 535l268 532h11l92 -532h-371zM600 1878h334l94 -287 h-96z" />
<glyph unicode="&#xc1;" horiz-adv-x="1396" d="M41 0v76h27q19 1 84 53t88 82l618 1223l133 88l254 -1313q21 -35 61.5 -84t57.5 -49h33v-76h-660v76h78q24 2 73.5 54.5t49.5 78.5l-35 223h-434l-113 -221q0 -29 25.5 -82t44.5 -53h82v-76h-467zM516 535h371l-92 532h-11zM842 1591l196 287h332l-428 -287h-100z" />
<glyph unicode="&#xc2;" horiz-adv-x="1396" d="M41 0h467v76h-82q-19 0 -44.5 53t-25.5 82l113 221h434l35 -223q0 -26 -49.5 -78.5t-73.5 -54.5h-78v-76h660v76h-33q-17 0 -57.5 49t-61.5 84l-254 1313l-133 -88l-618 -1223q-23 -30 -88 -82t-84 -53h-27v-76zM516 535l268 532h11l92 -532h-371zM631 1591l287 316h204 l127 -316h-82l-166 158l-276 -158h-94z" />
<glyph unicode="&#xc3;" horiz-adv-x="1396" d="M41 0v76h27q19 1 84 53t88 82l618 1223l133 88l254 -1313q21 -35 61.5 -84t57.5 -49h33v-76h-660v76h78q24 2 73.5 54.5t49.5 78.5l-35 223h-434l-113 -221q0 -29 25.5 -82t44.5 -53h82v-76h-467zM516 535h371l-92 532h-11zM666 1810l55 43q0 -33 24 -56t58 -23 q46 0 102.5 25.5t113.5 51t103 25.5q73 0 110.5 -53.5t24.5 -143.5l-55 -43q-2 36 -22.5 58.5t-59.5 21.5q-37 -2 -94 -28t-117 -51t-108 -25q-73 0 -110 53.5t-25 144.5z" />
<glyph unicode="&#xc4;" horiz-adv-x="1396" d="M41 0h467v76h-82q-19 0 -44.5 53t-25.5 82l113 221h434l35 -223q0 -26 -49.5 -78.5t-73.5 -54.5h-78v-76h660v76h-33q-17 0 -57.5 49t-61.5 84l-254 1313l-133 -88l-618 -1223q-23 -30 -88 -82t-84 -53h-27v-76zM516 535l268 532h11l92 -532h-371zM592 1720 q0 59 43 101.5t104 42.5t103.5 -42.5t42.5 -101.5q0 -60 -42.5 -101.5t-103.5 -41.5q-62 0 -104.5 41.5t-42.5 101.5zM1030 1720q0 59 43.5 101.5t104.5 42.5t103 -42.5t42 -101.5q0 -60 -42 -101.5t-103 -41.5q-62 0 -105 41.5t-43 101.5z" />
<glyph unicode="&#xc5;" horiz-adv-x="1396" d="M41 0v76h27q19 1 84 53t88 82l618 1223l133 88l254 -1313q21 -35 61.5 -84t57.5 -49h33v-76h-660v76h78q24 2 73.5 54.5t49.5 78.5l-35 223h-434l-113 -221q0 -29 25.5 -82t44.5 -53h82v-76h-467zM516 535h371l-92 532h-11zM739 1772q0 89 69.5 155t158.5 66 q90 0 157.5 -65.5t67.5 -155.5q0 -92 -67 -157t-158 -65q-90 0 -159 65t-69 157zM850 1772q0 -52 32 -84.5t85 -32.5q51 0 82.5 32.5t31.5 84.5q0 51 -31.5 82.5t-82.5 31.5q-52 0 -84.5 -31.5t-32.5 -82.5z" />
<glyph unicode="&#xc6;" horiz-adv-x="1863" d="M14 0v76h35q19 0 84.5 52.5t87.5 82.5l653 1221l127 59h932l-69 -408h-68q5 31 -75 170.5t-103 139.5h-547q-8 0 -24 -19t-15 -28l94 -529h234q21 0 87 65.5t66 88.5v33h80l-4 -490h-76v47q0 24 -65.5 90t-87.5 66h-219l104 -570q2 -9 19 -27t24 -18h172q33 0 96.5 84.5 t112.5 178t49 122.5h76v-487h-1069v76h72q22 1 69 53.5t52 79.5l-31 223h-434l-115 -221q0 -30 23 -82.5t42 -52.5h70v-76h-459zM506 535h366l-77 532h-13z" />
<glyph unicode="&#xc7;" horiz-adv-x="1402" d="M197 618q0 104 27.5 212t77.5 207.5t123.5 188t161 153.5t195.5 103t222 38q77 0 177 -35t148 -35q60 0 90 41h76l-125 -516h-80q0 41 -8 92.5t-29.5 115t-53.5 114.5t-87 85.5t-123 34.5q-70 0 -132.5 -25t-120.5 -78.5t-104 -147t-73 -220.5q-38 -166 -61 -379 q-22 -192 73.5 -315t264.5 -123q136 0 258.5 66t218.5 194h117q-68 -115 -160 -204t-223 -148t-277 -62h-39l-69 -98q45 29 96 29q60 0 97.5 -37t37.5 -94q0 -96 -76.5 -153.5t-185.5 -57.5q-63 0 -112.5 29.5t-74.5 74.5l72 56q44 -64 117 -64q51 0 86 27.5t35 68.5 q0 29 -18.5 45.5t-47.5 16.5q-26 0 -70 -21l-47 41l70 146q-216 33 -330 199t-114 435z" />
<glyph unicode="&#xc8;" horiz-adv-x="1347" d="M92 0h1188v487h-74q0 -24 -50 -117.5t-115 -180.5t-97 -87h-381q-7 0 -16.5 17.5t-9.5 27.5l96 566h168q24 0 99 -65.5t75 -90.5v-43h78v490h-78v-37q0 -23 -75 -88.5t-99 -65.5h-150l88 539q1 9 17 25t22 16h326q23 0 102 -139.5t74 -170.5h70l69 408h-1157v-76h90 q21 0 53.5 -48.5t28.5 -74.5l-184 -1099q-4 -25 -50.5 -71t-66.5 -46h-41v-76zM584 1878h334l94 -287h-97z" />
<glyph unicode="&#xc9;" horiz-adv-x="1347" d="M92 0v76h41q20 0 66.5 46t50.5 71l184 1099q4 26 -28.5 74.5t-53.5 48.5h-90v76h1157l-69 -408h-70q5 31 -74 170.5t-102 139.5h-326q-6 0 -22 -16t-17 -25l-88 -539h150q24 0 99 65.5t75 88.5v37h78v-490h-78v43q0 25 -75 90.5t-99 65.5h-168l-96 -566q0 -10 9.5 -27.5 t16.5 -17.5h381q32 0 97 87t115 180.5t50 117.5h74v-487h-1188zM772 1591l197 287h331l-428 -287h-100z" />
<glyph unicode="&#xca;" horiz-adv-x="1347" d="M92 0h1188v487h-74q0 -24 -50 -117.5t-115 -180.5t-97 -87h-381q-7 0 -16.5 17.5t-9.5 27.5l96 566h168q24 0 99 -65.5t75 -90.5v-43h78v490h-78v-37q0 -23 -75 -88.5t-99 -65.5h-150l88 539q1 9 17 25t22 16h326q23 0 102 -139.5t74 -170.5h70l69 408h-1157v-76h90 q21 0 53.5 -48.5t28.5 -74.5l-184 -1099q-4 -25 -50.5 -71t-66.5 -46h-41v-76zM590 1591l287 316h204l127 -316h-82l-165 158l-277 -158h-94z" />
<glyph unicode="&#xcb;" horiz-adv-x="1347" d="M92 0h1188v487h-74q0 -24 -50 -117.5t-115 -180.5t-97 -87h-381q-7 0 -16.5 17.5t-9.5 27.5l96 566h168q24 0 99 -65.5t75 -90.5v-43h78v490h-78v-37q0 -23 -75 -88.5t-99 -65.5h-150l88 539q1 9 17 25t22 16h326q23 0 102 -139.5t74 -170.5h70l69 408h-1157v-76h90 q21 0 53.5 -48.5t28.5 -74.5l-184 -1099q-4 -25 -50.5 -71t-66.5 -46h-41v-76zM555 1720q0 59 43 101.5t104 42.5t103.5 -42.5t42.5 -101.5q0 -60 -42.5 -101.5t-103.5 -41.5q-62 0 -104.5 41.5t-42.5 101.5zM993 1720q0 59 43.5 101.5t104.5 42.5t103 -42.5t42 -101.5 q0 -60 -42 -101.5t-103 -41.5q-62 0 -105 41.5t-43 101.5z" />
<glyph unicode="&#xcc;" horiz-adv-x="720" d="M92 0h647v76h-102q-20 0 -50.5 49t-27.5 74l184 1093q3 23 53 73t72 50h58v76h-658v-76h103q20 0 53.5 -49.5t30.5 -73.5l-183 -1093q-4 -24 -53.5 -73.5t-68.5 -49.5h-58v-76zM317 1878h334l94 -287h-96z" />
<glyph unicode="&#xcd;" horiz-adv-x="720" d="M92 0v76h58q19 0 68.5 49.5t53.5 73.5l183 1093q3 24 -30.5 73.5t-53.5 49.5h-103v76h658v-76h-58q-22 0 -72 -50t-53 -73l-184 -1093q-3 -25 27.5 -74t50.5 -49h102v-76h-647zM508 1591l197 287h331l-428 -287h-100z" />
<glyph unicode="&#xce;" horiz-adv-x="720" d="M92 0h647v76h-102q-20 0 -50.5 49t-27.5 74l184 1093q3 23 53 73t72 50h58v76h-658v-76h103q20 0 53.5 -49.5t30.5 -73.5l-183 -1093q-4 -24 -53.5 -73.5t-68.5 -49.5h-58v-76zM307 1591l287 316h205l127 -316h-82l-166 158l-277 -158h-94z" />
<glyph unicode="&#xcf;" horiz-adv-x="720" d="M92 0h647v76h-102q-20 0 -50.5 49t-27.5 74l184 1093q3 23 53 73t72 50h58v76h-658v-76h103q20 0 53.5 -49.5t30.5 -73.5l-183 -1093q-4 -24 -53.5 -73.5t-68.5 -49.5h-58v-76zM281 1720q0 59 43 101.5t104 42.5t103 -42.5t42 -101.5q0 -60 -42 -101.5t-103 -41.5 q-62 0 -104.5 41.5t-42.5 101.5zM719 1720q0 59 43 101.5t104 42.5t103.5 -42.5t42.5 -101.5q0 -60 -42.5 -101.5t-103.5 -41.5q-62 0 -104.5 41.5t-42.5 101.5z" />
<glyph unicode="&#xd0;" horiz-adv-x="1398" d="M92 0v76h37q21 0 69 46t52 73l88 526h-174v98h190l80 475q3 22 -30 71.5t-52 49.5h-90v76h621q165 0 295.5 -73t206 -211.5t75.5 -321.5q0 -178 -64.5 -341t-173.5 -282.5t-262.5 -190.5t-322.5 -71h-545zM547 201q-4 -22 25.5 -60.5t45.5 -38.5h46q348 0 458 471 q36 150 56 347q14 130 -2 223.5t-58.5 148t-102.5 79t-141 24.5h-43q-20 0 -59.5 -40t-40.5 -63l-80 -473h387l-16 -98h-387z" />
<glyph unicode="&#xd1;" horiz-adv-x="1449" d="M92 0v76h39q18 0 84.5 65.5t69.5 89.5l178 1049q1 23 -33.5 79t-48.5 56h-84v76h457l493 -920h10l115 705q4 24 -34 81.5t-54 57.5h-90v76h461v-76h-39q-19 0 -75 -57t-60 -82l-219 -1315l-695 1264h-10l-160 -994q-4 -24 42 -89.5t65 -65.5h94v-76h-506zM741 1810l56 43 q0 -33 24 -56t58 -23q46 0 102.5 25.5t113.5 51t103 25.5q73 0 110.5 -53.5t24.5 -143.5l-55 -43q-2 36 -22.5 58.5t-59.5 21.5q-37 -2 -94 -28t-117 -51t-108 -25q-73 0 -110.5 53.5t-25.5 144.5z" />
<glyph unicode="&#xd2;" horiz-adv-x="1560" d="M207 616q-3 -185 67 -330t205 -228t314 -83q172 0 327 76t264 201t177 287t77 333q6 182 -64.5 329t-207.5 232.5t-317 86.5q-167 1 -324 -76.5t-269.5 -203t-180.5 -290.5t-68 -334zM494 510q22 224 75 446q46 199 174.5 327t288.5 128q168 0 250.5 -111.5t65.5 -314.5 q-8 -93 -29.5 -224.5t-44.5 -221.5q-51 -198 -179.5 -320.5t-283.5 -122.5q-171 0 -254 106.5t-63 307.5zM754 1878h333l95 -287h-97z" />
<glyph unicode="&#xd3;" horiz-adv-x="1560" d="M207 616q0 169 68 334t180.5 290.5t269.5 203t324 76.5q180 -1 317 -86.5t207.5 -232.5t64.5 -329q-9 -171 -77 -333t-177 -287t-264 -201t-327 -76q-179 0 -314 83t-205 228t-67 330zM494 510q-20 -201 63 -307.5t254 -106.5q155 0 283.5 122.5t179.5 320.5 q23 90 44.5 221.5t29.5 224.5q17 203 -65.5 314.5t-250.5 111.5q-160 0 -288.5 -128t-174.5 -327q-53 -222 -75 -446zM997 1591l197 287h332l-428 -287h-101z" />
<glyph unicode="&#xd4;" horiz-adv-x="1560" d="M207 616q-3 -185 67 -330t205 -228t314 -83q172 0 327 76t264 201t177 287t77 333q6 182 -64.5 329t-207.5 232.5t-317 86.5q-167 1 -324 -76.5t-269.5 -203t-180.5 -290.5t-68 -334zM494 510q22 224 75 446q46 199 174.5 327t288.5 128q168 0 250.5 -111.5t65.5 -314.5 q-8 -93 -29.5 -224.5t-44.5 -221.5q-51 -198 -179.5 -320.5t-283.5 -122.5q-171 0 -254 106.5t-63 307.5zM758 1591l286 316h205l127 -316h-82l-166 158l-276 -158h-94z" />
<glyph unicode="&#xd5;" horiz-adv-x="1560" d="M207 616q0 169 68 334t180.5 290.5t269.5 203t324 76.5q180 -1 317 -86.5t207.5 -232.5t64.5 -329q-9 -171 -77 -333t-177 -287t-264 -201t-327 -76q-179 0 -314 83t-205 228t-67 330zM494 510q-20 -201 63 -307.5t254 -106.5q155 0 283.5 122.5t179.5 320.5 q23 90 44.5 221.5t29.5 224.5q17 203 -65.5 314.5t-250.5 111.5q-160 0 -288.5 -128t-174.5 -327q-53 -222 -75 -446zM795 1810l55 43q0 -33 24 -56t58 -23q46 0 103 25.5t113.5 51t102.5 25.5q73 0 110.5 -53.5t24.5 -143.5l-55 -43q-2 36 -22.5 58.5t-59.5 21.5 q-37 -2 -94 -28t-117 -51t-108 -25q-73 0 -110 53.5t-25 144.5z" />
<glyph unicode="&#xd6;" horiz-adv-x="1560" d="M207 616q-3 -185 67 -330t205 -228t314 -83q172 0 327 76t264 201t177 287t77 333q6 182 -64.5 329t-207.5 232.5t-317 86.5q-167 1 -324 -76.5t-269.5 -203t-180.5 -290.5t-68 -334zM494 510q22 224 75 446q46 199 174.5 327t288.5 128q168 0 250.5 -111.5t65.5 -314.5 q-8 -93 -29.5 -224.5t-44.5 -221.5q-51 -198 -179.5 -320.5t-283.5 -122.5q-171 0 -254 106.5t-63 307.5zM705 1720q0 59 43 101.5t104 42.5t103 -42.5t42 -101.5q0 -60 -42 -101.5t-103 -41.5q-62 0 -104.5 41.5t-42.5 101.5zM1143 1720q0 59 43 101.5t104 42.5 t103.5 -42.5t42.5 -101.5q0 -60 -42.5 -101.5t-103.5 -41.5q-62 0 -104.5 41.5t-42.5 101.5z" />
<glyph unicode="&#xd7;" horiz-adv-x="1310" d="M209 920l104 106l408 -408l403 404l103 -102l-404 -404l410 -410l-107 -104l-407 408l-404 -402l-102 103l401 401z" />
<glyph unicode="&#xd8;" horiz-adv-x="1572" d="M207 616q0 169 68.5 334t181.5 290.5t271 203t325 76.5q203 -3 350 -109l127 148l84 -76l-127 -148q164 -185 155 -463q-9 -171 -77 -333t-177 -287t-264 -201t-327 -76q-219 0 -371 121l-133 -155l-82 75l135 158q-145 178 -139 442zM496 510q-11 -83 2 -160l800 938 q-85 123 -262 123q-161 0 -291.5 -128.5t-173.5 -326.5q-49 -222 -75 -446zM539 227q81 -131 276 -131q157 0 288 123.5t175 319.5q47 213 74 446q11 95 -6 184z" />
<glyph unicode="&#xd9;" horiz-adv-x="1452" d="M276 1415h89q11 0 46.5 -57t32.5 -74l-133 -725q-22 -123 4.5 -232.5t90 -186t157.5 -121t203 -44.5q242 0 411.5 143.5t202.5 391.5l99 747q3 20 66 89t77 69h35v76h-479v-76h94q14 0 56.5 -69t41.5 -89l-98 -751q-14 -101 -66 -182.5t-138 -130.5t-191 -50 q-152 -2 -230.5 105t-46.5 284l137 752q3 17 57.5 74t67.5 57h47v76h-633v-76zM717 1878h334l94 -287h-96z" />
<glyph unicode="&#xda;" horiz-adv-x="1452" d="M276 1415v76h633v-76h-47q-13 0 -67.5 -57t-57.5 -74l-137 -752q-32 -177 46.5 -284t230.5 -105q105 1 191 50t138 130.5t66 182.5l98 751q1 20 -41.5 89t-56.5 69h-94v76h479v-76h-35q-14 0 -77 -69t-66 -89l-99 -747q-33 -248 -202.5 -391.5t-411.5 -143.5 q-109 0 -203 44.5t-157.5 121t-90 186t-4.5 232.5l133 725q3 17 -32.5 74t-46.5 57h-89zM950 1591l197 287h332l-428 -287h-101z" />
<glyph unicode="&#xdb;" horiz-adv-x="1452" d="M276 1415h89q11 0 46.5 -57t32.5 -74l-133 -725q-22 -123 4.5 -232.5t90 -186t157.5 -121t203 -44.5q242 0 411.5 143.5t202.5 391.5l99 747q3 20 66 89t77 69h35v76h-479v-76h94q14 0 56.5 -69t41.5 -89l-98 -751q-14 -101 -66 -182.5t-138 -130.5t-191 -50 q-152 -2 -230.5 105t-46.5 284l137 752q3 17 57.5 74t67.5 57h47v76h-633v-76zM745 1591l287 316h205l127 -316h-82l-166 158l-276 -158h-95z" />
<glyph unicode="&#xdc;" horiz-adv-x="1452" d="M276 1415h89q11 0 46.5 -57t32.5 -74l-133 -725q-22 -123 4.5 -232.5t90 -186t157.5 -121t203 -44.5q242 0 411.5 143.5t202.5 391.5l99 747q3 20 66 89t77 69h35v76h-479v-76h94q14 0 56.5 -69t41.5 -89l-98 -751q-14 -101 -66 -182.5t-138 -130.5t-191 -50 q-152 -2 -230.5 105t-46.5 284l137 752q3 17 57.5 74t67.5 57h47v76h-633v-76zM698 1720q0 59 43.5 101.5t104.5 42.5t103 -42.5t42 -101.5q0 -60 -42 -101.5t-103 -41.5q-62 0 -105 41.5t-43 101.5zM1137 1720q0 59 43 101.5t104 42.5t103.5 -42.5t42.5 -101.5 q0 -60 -42.5 -101.5t-103.5 -41.5q-62 0 -104.5 41.5t-42.5 101.5z" />
<glyph unicode="&#xdd;" horiz-adv-x="1312" d="M248 1415v76h676v-76h-88q-18 0 -61.5 -62t-51.5 -93l143 -531h13l311 524q3 30 -17 96t-36 66h-86v76h485v-76h-35q-22 -4 -98.5 -70.5t-95.5 -93.5l-389 -628l-70 -424q-4 -22 27.5 -72.5t48.5 -50.5h104v-76h-694v76h104q15 0 64 51t53 72l74 426l-209 626 q-10 26 -62 95t-71 69h-39zM864 1591l197 287h332l-428 -287h-101z" />
<glyph unicode="&#xde;" horiz-adv-x="1214" d="M76 0v76h39q18 0 68 48.5t53 72.5l188 1095q3 24 -30.5 73.5t-53.5 49.5h-102v76h655v-76h-57q-21 0 -71.5 -49.5t-53.5 -71.5l-13 -65h131q93 0 176 -22t151.5 -65.5t108.5 -116.5t40 -167q0 -98 -35 -184.5t-96 -150t-142 -109.5t-175.5 -69t-194.5 -23h-113l-21 -125 q-3 -23 29 -72t51 -49h90v-76h-622zM563 428h113q102 0 197.5 77.5t121.5 180.5q23 89 31 174q11 111 -50.5 193t-162.5 82h-133z" />
<glyph unicode="&#xdf;" horiz-adv-x="1150" d="M55 -422l51 422l201 1063q22 119 85.5 218.5t147.5 162t178.5 97t184.5 34.5q99 0 162 -55t63 -158q0 -202 -315 -383q12 -21 28 -40.5t42.5 -42t43 -35.5t55 -41.5t52.5 -39.5q137 -104 137 -266q0 -143 -89.5 -268.5t-233.5 -198.5t-301 -72q-90 0 -176 41l174 254h41 q29 -56 79 -91.5t105 -35.5q92 0 151.5 60.5t59.5 154.5q0 121 -152 244q-129 104 -171 148q-55 58 -80 114l12 66l141 74q72 37 123 100t51 141q0 82 -49 144.5t-115 62.5q-35 0 -61.5 -17t-44.5 -46t-32.5 -72.5t-24.5 -90t-22 -105.5q-1 -4 -1 -7l-219 -1114l-49 -422 h-232z" />
<glyph unicode="&#xe0;" horiz-adv-x="1171" d="M150 334q0 -162 81 -259.5t224 -97.5q87 0 174 51.5t153 155.5h11q-12 -87 11 -145t91 -57q61 1 143 65.5t125 120.5l-39 53q-15 -19 -50 -46.5t-46 -27.5q-21 0 -42 25.5t-17 48.5l166 760h-19l-188 -137q-60 160 -238 160q-111 0 -213 -61t-172.5 -157.5t-112.5 -216 t-42 -235.5zM371 381q18 151 63 272q40 109 109 179.5t149 70.5q84 0 114.5 -73.5t12.5 -190.5q-25 -174 -61 -281q-36 -106 -103 -176.5t-147 -70.5q-81 0 -116 77.5t-21 192.5zM483 1460h265l61 -360h-74z" />
<glyph unicode="&#xe1;" horiz-adv-x="1171" d="M150 334q0 116 42 235.5t112.5 216t172.5 157.5t213 61q178 0 238 -160l188 137h19l-166 -760q-4 -23 17 -48.5t42 -25.5q11 0 46 27.5t50 46.5l39 -53q-43 -56 -125 -120.5t-143 -65.5q-68 -1 -91 57t-11 145h-11q-66 -104 -153 -155.5t-174 -51.5q-143 0 -224 97.5 t-81 259.5zM371 381q-14 -115 21 -192.5t116 -77.5q80 0 147 70.5t103 176.5q36 107 61 281q18 117 -12.5 190.5t-114.5 73.5q-80 0 -149 -70.5t-109 -179.5q-45 -121 -63 -272zM651 1100l178 360h289l-391 -360h-76z" />
<glyph unicode="&#xe2;" horiz-adv-x="1171" d="M150 334q0 -162 81 -259.5t224 -97.5q87 0 174 51.5t153 155.5h11q-12 -87 11 -145t91 -57q61 1 143 65.5t125 120.5l-39 53q-15 -19 -50 -46.5t-46 -27.5q-21 0 -42 25.5t-17 48.5l166 760h-19l-188 -137q-60 160 -238 160q-111 0 -213 -61t-172.5 -157.5t-112.5 -216 t-42 -235.5zM371 381q18 151 63 272q40 109 109 179.5t149 70.5q84 0 114.5 -73.5t12.5 -190.5q-25 -174 -61 -281q-36 -106 -103 -176.5t-147 -70.5q-81 0 -116 77.5t-21 192.5zM461 1100l293 360h176l110 -360h-84l-139 194l-268 -194h-88z" />
<glyph unicode="&#xe3;" horiz-adv-x="1171" d="M150 334q0 116 42 235.5t112.5 216t172.5 157.5t213 61q178 0 238 -160l188 137h19l-166 -760q-4 -23 17 -48.5t42 -25.5q11 0 46 27.5t50 46.5l39 -53q-43 -56 -125 -120.5t-143 -65.5q-68 -1 -91 57t-11 145h-11q-66 -104 -153 -155.5t-174 -51.5q-143 0 -224 97.5 t-81 259.5zM371 381q-14 -115 21 -192.5t116 -77.5q80 0 147 70.5t103 176.5q36 107 61 281q18 117 -12.5 190.5t-114.5 73.5q-80 0 -149 -70.5t-109 -179.5q-45 -121 -63 -272zM489 1337l60 47q0 -35 25.5 -59.5t60.5 -24.5q39 0 81.5 17.5t74 39t74 39t81.5 17.5 q75 0 115.5 -58t28.5 -153l-60 -47q-11 42 -29 63.5t-57 20.5q-32 -1 -73 -19.5t-74.5 -39.5t-78.5 -38.5t-85 -17.5q-75 0 -114.5 58.5t-29.5 154.5z" />
<glyph unicode="&#xe4;" horiz-adv-x="1171" d="M150 334q0 -162 81 -259.5t224 -97.5q87 0 174 51.5t153 155.5h11q-12 -87 11 -145t91 -57q61 1 143 65.5t125 120.5l-39 53q-15 -19 -50 -46.5t-46 -27.5q-21 0 -42 25.5t-17 48.5l166 760h-19l-188 -137q-60 160 -238 160q-111 0 -213 -61t-172.5 -157.5t-112.5 -216 t-42 -235.5zM371 381q18 151 63 272q40 109 109 179.5t149 70.5q84 0 114.5 -73.5t12.5 -190.5q-25 -174 -61 -281q-36 -106 -103 -176.5t-147 -70.5q-81 0 -116 77.5t-21 192.5zM453 1272q0 53 37.5 90t91.5 37t91.5 -37t37.5 -90t-37.5 -90t-91.5 -37t-91.5 37t-37.5 90z M870 1272q0 53 37.5 90t91.5 37t91.5 -37t37.5 -90t-37.5 -90t-91.5 -37t-91.5 37t-37.5 90z" />
<glyph unicode="&#xe5;" horiz-adv-x="1171" d="M150 334q0 116 42 235.5t112.5 216t172.5 157.5t213 61q178 0 238 -160l188 137h19l-166 -760q-4 -23 17 -48.5t42 -25.5q11 0 46 27.5t50 46.5l39 -53q-43 -56 -125 -120.5t-143 -65.5q-68 -1 -91 57t-11 145h-11q-66 -104 -153 -155.5t-174 -51.5q-143 0 -224 97.5 t-81 259.5zM371 381q-14 -115 21 -192.5t116 -77.5q80 0 147 70.5t103 176.5q36 107 61 281q18 117 -12.5 190.5t-114.5 73.5q-80 0 -149 -70.5t-109 -179.5q-45 -121 -63 -272zM571 1303q0 90 67.5 154.5t156.5 64.5q90 0 155.5 -64.5t65.5 -154.5q0 -93 -65.5 -156.5 t-155.5 -63.5t-157 64t-67 156zM680 1303q0 -47 34 -81t81 -34q46 0 79 34t33 81q0 46 -33 79t-79 33q-47 0 -81 -33t-34 -79z" />
<glyph unicode="&#xe6;" horiz-adv-x="1601" d="M150 332q0 117 40 236t108 215t168.5 157t211.5 61q158 0 233 -155l93 135h18v-135q134 158 299 158q118 0 194 -55t76 -158q0 -118 -92.5 -188t-249.5 -97l-219 -29q-21 -134 33.5 -220.5t173.5 -86.5q92 0 176.5 56.5t136.5 146.5h76q-70 -172 -202 -284t-273 -112 q-125 0 -201 66q-47 -68 -96 -68q-31 0 -47.5 17t-18 51t1 61.5t10.5 72.5q1 3 1 5h-15q-122 -205 -315 -205q-150 0 -235.5 93t-85.5 262zM371 381q-11 -118 23 -195t118 -77q87 0 151.5 70.5t94.5 178.5q37 133 55 281q13 117 -22 190.5t-119 73.5q-82 0 -143 -68 t-99 -182q-47 -142 -59 -272zM1038 549q111 18 217 45q78 20 130.5 69.5t52.5 118.5q0 60 -33.5 96.5t-87.5 36.5q-63 -7 -124 -66t-101.5 -140t-53.5 -160z" />
<glyph unicode="&#xe7;" horiz-adv-x="946" d="M150 365q0 88 24.5 178t73 172.5t114 147t155 103t188.5 38.5q182 0 292 -148l-192 -242q-44 0 -61 33t1 82q16 46 17.5 86t-21.5 70t-73 30q-95 -14 -163.5 -84.5t-101 -171.5t-32.5 -219q0 -121 65 -194.5t176 -73.5q58 0 111 20.5t87.5 50t60.5 59.5t37 50l12 21h75 q-73 -169 -205 -280.5t-282 -115.5l-70 -100q45 29 97 29q60 0 97.5 -37t37.5 -94q0 -96 -76.5 -153.5t-185.5 -57.5q-63 0 -112.5 29.5t-74.5 74.5l72 56q44 -64 117 -64q51 0 85.5 27.5t34.5 68.5q0 29 -18.5 45.5t-46.5 16.5q-26 0 -70 -21l-47 41l70 148 q-123 27 -195.5 131t-72.5 248z" />
<glyph unicode="&#xe8;" horiz-adv-x="948" d="M150 369q0 85 27.5 176.5t78 172.5t114.5 145.5t144 102.5t160 38q118 0 190 -53.5t72 -159.5q0 -109 -95.5 -181.5t-240.5 -99.5q-96 -18 -221 -31q-21 -134 32.5 -221.5t172.5 -87.5q91 0 175 56t138 147h76q-73 -173 -204 -284.5t-271 -111.5q-170 0 -259 111t-89 281 zM385 549q116 17 217 45q76 21 129 72.5t53 115.5q0 59 -33 96t-87 37q-64 -7 -125.5 -66t-101.5 -140t-52 -160zM420 1460h264l61 -360h-73z" />
<glyph unicode="&#xe9;" horiz-adv-x="948" d="M150 369q0 85 27.5 176.5t78 172.5t114.5 145.5t144 102.5t160 38q118 0 190 -53.5t72 -159.5q0 -109 -95.5 -181.5t-240.5 -99.5q-96 -18 -221 -31q-21 -134 32.5 -221.5t172.5 -87.5q91 0 175 56t138 147h76q-73 -173 -204 -284.5t-271 -111.5q-170 0 -259 111t-89 281 zM385 549q116 17 217 45q76 21 129 72.5t53 115.5q0 59 -33 96t-87 37q-64 -7 -125.5 -66t-101.5 -140t-52 -160zM600 1100l178 360h289l-391 -360h-76z" />
<glyph unicode="&#xea;" horiz-adv-x="948" d="M150 369q0 85 27.5 176.5t78 172.5t114.5 145.5t144 102.5t160 38q118 0 190 -53.5t72 -159.5q0 -109 -95.5 -181.5t-240.5 -99.5q-96 -18 -221 -31q-21 -134 32.5 -221.5t172.5 -87.5q91 0 175 56t138 147h76q-73 -173 -204 -284.5t-271 -111.5q-170 0 -259 111t-89 281 zM385 549q116 17 217 45q76 21 129 72.5t53 115.5q0 59 -33 96t-87 37q-64 -7 -125.5 -66t-101.5 -140t-52 -160zM399 1100l293 360h176l111 -360h-84l-139 194l-269 -194h-88z" />
<glyph unicode="&#xeb;" horiz-adv-x="948" d="M150 369q0 85 27.5 176.5t78 172.5t114.5 145.5t144 102.5t160 38q118 0 190 -53.5t72 -159.5q0 -109 -95.5 -181.5t-240.5 -99.5q-96 -18 -221 -31q-21 -134 32.5 -221.5t172.5 -87.5q91 0 175 56t138 147h76q-73 -173 -204 -284.5t-271 -111.5q-170 0 -259 111t-89 281 zM365 1272q0 53 37.5 90t91.5 37t91.5 -37t37.5 -90t-37.5 -90t-91.5 -37t-91.5 37t-37.5 90zM385 549q116 17 217 45q76 21 129 72.5t53 115.5q0 59 -33 96t-87 37q-64 -7 -125.5 -66t-101.5 -140t-52 -160zM782 1272q0 53 37.5 90t91.5 37t91.5 -37t37.5 -90t-37.5 -90 t-91.5 -37t-91.5 37t-37.5 90z" />
<glyph unicode="&#xec;" d="M154 811v66q92 21 201.5 53.5t172.5 55.5l64 22q-25 -124 -82 -420t-68 -367q-3 -24 17 -50t41 -26q11 0 42 25.5t52 46.5l39 -53q-27 -31 -66 -68.5t-99.5 -77.5t-102.5 -41q-72 -1 -117.5 52t-42.5 127q2 46 26 174t50.5 251.5t27.5 129.5q4 24 -27 62t-49 38h-79z M254 1460h264l62 -360h-74z" />
<glyph unicode="&#xed;" d="M154 811v66q92 21 201.5 53.5t172.5 55.5l64 22q-25 -124 -82 -420t-68 -367q-3 -24 17 -50t41 -26q11 0 42 25.5t52 46.5l39 -53q-27 -31 -66 -68.5t-99.5 -77.5t-102.5 -41q-72 -1 -117.5 52t-42.5 127q2 46 26 174t50.5 251.5t27.5 129.5q4 24 -27 62t-49 38h-79z M350 1100l178 360h289l-391 -360h-76z" />
<glyph unicode="&#xee;" d="M154 811v66q92 21 201.5 53.5t172.5 55.5l64 22q-25 -124 -82 -420t-68 -367q-3 -24 17 -50t41 -26q11 0 42 25.5t52 46.5l39 -53q-27 -31 -66 -68.5t-99.5 -77.5t-102.5 -41q-72 -1 -117.5 52t-42.5 127q2 46 26 174t50.5 251.5t27.5 129.5q4 24 -27 62t-49 38h-79z M180 1100l293 360h176l111 -360h-84l-139 194l-269 -194h-88z" />
<glyph unicode="&#xef;" d="M154 811v66q92 21 201.5 53.5t172.5 55.5l64 22q-25 -124 -82 -420t-68 -367q-3 -24 17 -50t41 -26q11 0 42 25.5t52 46.5l39 -53q-27 -31 -66 -68.5t-99.5 -77.5t-102.5 -41q-72 -1 -117.5 52t-42.5 127q2 46 26 174t50.5 251.5t27.5 129.5q4 24 -27 62t-49 38h-79z M158 1272q0 53 37.5 90t91.5 37t91.5 -37t37.5 -90t-37.5 -90t-91.5 -37t-91.5 37t-37.5 90zM575 1272q0 53 38 90t92 37t91.5 -37t37.5 -90t-37.5 -90t-91.5 -37t-92 37t-38 90z" />
<glyph unicode="&#xf0;" horiz-adv-x="1142" d="M129 350q0 113 44 229.5t118 210.5t183 154t228 60q102 0 172.5 -63t94.5 -165q80 230 -6 430l-420 -147v102l372 131q-103 147 -272 199l37 78q249 -44 387 -223l197 69v-102l-144 -51q70 -140 70 -312q0 -111 -22.5 -226.5t-64 -223t-103.5 -202t-136.5 -164.5 t-168 -111t-193.5 -41q-174 0 -273.5 98.5t-99.5 269.5zM319 285q0 -85 46.5 -139t128.5 -54q100 0 191.5 100.5t142.5 238t51 257.5q0 81 -44 137t-120 56q-75 0 -150 -61t-127.5 -151.5t-85.5 -194.5t-33 -189z" />
<glyph unicode="&#xf1;" horiz-adv-x="1153" d="M141 815v62q76 24 166 56t143 53l52 20v-283h10q56 63 118 120t143.5 109t137.5 52q114 0 176.5 -91.5t26.5 -199.5q-101 -311 -153 -496q-6 -25 14.5 -48.5t42.5 -23.5q14 0 48.5 27.5t51.5 48.5l39 -53q-48 -66 -122 -126t-136 -60q-86 0 -139.5 65.5t-30.5 159.5 q36 149 154 502q10 31 -27 74.5t-68 43.5q-34 0 -100.5 -47.5t-118 -99t-53.5 -66.5l-108 -614h-238l127 717q3 22 -26 60t-48 38h-82zM481 1337l60 47q0 -35 25.5 -59.5t60.5 -24.5q39 0 81.5 17.5t74 39t74 39t81.5 17.5q75 0 115 -58t28 -153l-59 -47q-11 42 -29 63.5 t-57 20.5q-32 -1 -73 -19.5t-74.5 -39.5t-78.5 -38.5t-85 -17.5q-75 0 -114.5 58.5t-29.5 154.5z" />
<glyph unicode="&#xf2;" horiz-adv-x="1062" d="M143 387q0 -190 103 -300t278 -110q89 0 173.5 33t151.5 92t118 135.5t78.5 167t27.5 183.5q0 189 -103 302.5t-280 113.5q-111 0 -213.5 -53t-175 -139t-115.5 -198t-43 -227zM373 336q13 160 51 305q29 113 102.5 186.5t153.5 73.5q89 0 134 -60t36 -171 q-12 -160 -51 -314q-28 -112 -104 -188t-158 -76q-88 0 -130.5 63.5t-33.5 180.5zM463 1460h264l61 -360h-73z" />
<glyph unicode="&#xf3;" horiz-adv-x="1062" d="M143 387q0 115 43 227t115.5 198t175 139t213.5 53q177 0 280 -113.5t103 -302.5q0 -93 -27.5 -183.5t-78.5 -167t-118 -135.5t-151.5 -92t-173.5 -33q-175 0 -278 110t-103 300zM373 336q-9 -117 33.5 -180.5t130.5 -63.5q82 0 158 76t104 188q39 154 51 314 q9 111 -36 171t-134 60q-80 0 -153.5 -73.5t-102.5 -186.5q-38 -145 -51 -305zM637 1100l178 360h289l-391 -360h-76z" />
<glyph unicode="&#xf4;" horiz-adv-x="1062" d="M143 387q0 -190 103 -300t278 -110q89 0 173.5 33t151.5 92t118 135.5t78.5 167t27.5 183.5q0 189 -103 302.5t-280 113.5q-111 0 -213.5 -53t-175 -139t-115.5 -198t-43 -227zM373 336q13 160 51 305q29 113 102.5 186.5t153.5 73.5q89 0 134 -60t36 -171 q-12 -160 -51 -314q-28 -112 -104 -188t-158 -76q-88 0 -130.5 63.5t-33.5 180.5zM426 1100l293 360h176l111 -360h-84l-140 194l-268 -194h-88z" />
<glyph unicode="&#xf5;" horiz-adv-x="1062" d="M143 387q0 115 43 227t115.5 198t175 139t213.5 53q177 0 280 -113.5t103 -302.5q0 -93 -27.5 -183.5t-78.5 -167t-118 -135.5t-151.5 -92t-173.5 -33q-175 0 -278 110t-103 300zM373 336q-9 -117 33.5 -180.5t130.5 -63.5q82 0 158 76t104 188q39 154 51 314 q9 111 -36 171t-134 60q-80 0 -153.5 -73.5t-102.5 -186.5q-38 -145 -51 -305zM453 1337l59 47q0 -35 25.5 -59.5t60.5 -24.5q39 0 81.5 17.5t74 39t74 39t81.5 17.5q75 0 115.5 -58t28.5 -153l-60 -47q-11 42 -29 63.5t-57 20.5q-32 -1 -73 -19.5t-74.5 -39.5t-78.5 -38.5 t-85 -17.5q-75 0 -114 58t-29 155z" />
<glyph unicode="&#xf6;" horiz-adv-x="1062" d="M143 387q0 -190 103 -300t278 -110q89 0 173.5 33t151.5 92t118 135.5t78.5 167t27.5 183.5q0 189 -103 302.5t-280 113.5q-111 0 -213.5 -53t-175 -139t-115.5 -198t-43 -227zM373 336q13 160 51 305q29 113 102.5 186.5t153.5 73.5q89 0 134 -60t36 -171 q-12 -160 -51 -314q-28 -112 -104 -188t-158 -76q-88 0 -130.5 63.5t-33.5 180.5zM414 1272q0 53 37.5 90t91.5 37t91.5 -37t37.5 -90t-37.5 -90t-91.5 -37t-91.5 37t-37.5 90zM831 1272q0 53 38 90t92 37t91.5 -37t37.5 -90t-37.5 -90t-91.5 -37t-92 37t-38 90z" />
<glyph unicode="&#xf7;" horiz-adv-x="1171" d="M129 514v152h1114v-152h-1114zM545 190q0 60 42 102t103 42q62 0 104 -42t42 -102t-41.5 -101.5t-104.5 -41.5q-61 0 -103 41.5t-42 101.5zM545 995q0 60 42 102t103 42q62 0 104 -41.5t42 -102.5q0 -60 -41.5 -101.5t-104.5 -41.5q-61 0 -103 41.5t-42 101.5z" />
<glyph unicode="&#xf8;" horiz-adv-x="1062" d="M94 23l113 116q-62 105 -62 248q0 115 43 227t115.5 198t175 139t213.5 53q147 0 254 -89l101 105l63 -62l-106 -110q71 -103 71 -260q0 -93 -27.5 -183.5t-78.5 -167t-118 -135.5t-151.5 -92t-173.5 -33q-164 0 -266 97l-106 -111zM373 313l465 488q-41 100 -156 100 q-78 0 -153.5 -74t-102.5 -186q-40 -165 -53 -305v-23zM385 203q35 -111 154 -111q81 0 158 76.5t104 187.5q39 155 51 312v22z" />
<glyph unicode="&#xf9;" horiz-adv-x="1144" d="M143 811l47 -47q21 21 52.5 46.5t42.5 25.5q21 0 42 -27.5t15 -48.5l-147 -496q-17 -67 2.5 -134t71 -111t118.5 -44q95 0 187.5 65.5t191.5 176.5h10l-2 -43q-3 -83 33.5 -138t110.5 -54q82 2 260 190l-39 55q-79 -69 -97 -69q-19 0 -38.5 26.5t-16.5 46.5l131 750h-231 l-113 -647q-59 -69 -137 -125.5t-123 -56.5q-50 0 -73.5 42t-8.5 99l141 485q25 88 -24 157.5t-135 68.5q-42 -1 -103.5 -43t-101 -80t-66.5 -70zM471 1460h264l62 -360h-74z" />
<glyph unicode="&#xfa;" horiz-adv-x="1144" d="M143 811q27 32 66.5 70t101 80t103.5 43q86 1 135 -68.5t24 -157.5l-141 -485q-15 -57 8.5 -99t73.5 -42q45 0 123 56.5t137 125.5l113 647h231l-131 -750q-3 -20 16.5 -46.5t38.5 -26.5q18 0 97 69l39 -55q-178 -188 -260 -190q-74 -1 -110.5 54t-33.5 138l2 43h-10 q-99 -111 -191.5 -176.5t-187.5 -65.5q-67 0 -118.5 44t-71 111t-2.5 134l147 496q6 21 -15 48.5t-42 27.5q-11 0 -42.5 -25.5t-52.5 -46.5zM637 1100l178 360h289l-391 -360h-76z" />
<glyph unicode="&#xfb;" horiz-adv-x="1144" d="M143 811l47 -47q21 21 52.5 46.5t42.5 25.5q21 0 42 -27.5t15 -48.5l-147 -496q-17 -67 2.5 -134t71 -111t118.5 -44q95 0 187.5 65.5t191.5 176.5h10l-2 -43q-3 -83 33.5 -138t110.5 -54q82 2 260 190l-39 55q-79 -69 -97 -69q-19 0 -38.5 26.5t-16.5 46.5l131 750h-231 l-113 -647q-59 -69 -137 -125.5t-123 -56.5q-50 0 -73.5 42t-8.5 99l141 485q25 88 -24 157.5t-135 68.5q-42 -1 -103.5 -43t-101 -80t-66.5 -70zM434 1100l293 360h176l111 -360h-84l-139 194l-269 -194h-88z" />
<glyph unicode="&#xfc;" horiz-adv-x="1144" d="M143 811l47 -47q21 21 52.5 46.5t42.5 25.5q21 0 42 -27.5t15 -48.5l-147 -496q-17 -67 2.5 -134t71 -111t118.5 -44q95 0 187.5 65.5t191.5 176.5h10l-2 -43q-3 -83 33.5 -138t110.5 -54q82 2 260 190l-39 55q-79 -69 -97 -69q-19 0 -38.5 26.5t-16.5 46.5l131 750h-231 l-113 -647q-59 -69 -137 -125.5t-123 -56.5q-50 0 -73.5 42t-8.5 99l141 485q25 88 -24 157.5t-135 68.5q-42 -1 -103.5 -43t-101 -80t-66.5 -70zM424 1272q0 53 37.5 90t91.5 37t91.5 -37t37.5 -90t-37.5 -90t-91.5 -37t-91.5 37t-37.5 90zM842 1272q0 53 37.5 90t91.5 37 t91.5 -37t37.5 -90t-37.5 -90t-91.5 -37t-91.5 37t-37.5 90z" />
<glyph unicode="&#xfd;" horiz-adv-x="927" d="M88 909v72h387v-197l74 -458h14l246 465q6 29 -14 73.5t-39 44.5h-66v72h379v-72h-31q-12 0 -57.5 -44.5t-67.5 -73.5l-419 -740l-226 -473h-137l236 475q-70 421 -146 733q-8 26 -44 74.5t-52 48.5h-37zM530 1100l179 360h288l-391 -360h-76z" />
<glyph unicode="&#xfe;" horiz-adv-x="1120" d="M-72 -348h39q20 0 64.5 42t48.5 70l274 1534q4 23 -27 61t-48 38h-46v65q98 21 196.5 50t148.5 48l49 19l-121 -711q50 54 125.5 95t165.5 41q154 0 240.5 -95.5t86.5 -279.5q0 -89 -25.5 -182t-75 -176t-114.5 -148.5t-151 -104t-178 -38.5q-76 0 -130 47.5t-75 122.5 h-10l-48 -386q-3 -28 25 -70t47 -42h92v-74h-553v74zM420 346q-10 -109 38.5 -174.5t127.5 -65.5q78 0 149.5 73t106.5 188q44 139 47 280q3 108 -37.5 170t-118.5 62q-91 0 -170 -73.5t-100 -189.5q-32 -147 -43 -270z" />
<glyph unicode="&#xff;" horiz-adv-x="927" d="M88 909h37q16 0 52 -48.5t44 -74.5q34 -139 70.5 -322.5t56.5 -297.5l19 -113l-236 -475h137l226 473l419 740q22 29 67.5 73.5t57.5 44.5h31v72h-379v-72h66q19 0 39 -44.5t14 -73.5l-246 -465h-14q-39 259 -74 458v197h-387v-72zM307 1272q0 53 37.5 90t91.5 37 t91.5 -37t37.5 -90t-37.5 -90t-91.5 -37t-91.5 37t-37.5 90zM725 1272q0 53 37.5 90t91.5 37t91.5 -37t37.5 -90t-37.5 -90t-91.5 -37t-91.5 37t-37.5 90z" />
<glyph unicode="&#x152;" horiz-adv-x="1986" d="M205 627q0 135 42.5 265t121 237t181.5 189t231 127.5t263 45.5h1012l-69 -408h-70q5 31 -74 170.5t-102 139.5h-281q-6 0 -22 -16t-17 -25l-90 -539h88q24 0 99 65.5t75 88.5v37h78v-490h-78v43q0 25 -75 90.5t-99 65.5h-104l-96 -566q0 -10 9.5 -27.5t16.5 -17.5h336 q33 0 96.5 84.5t112.5 178t49 122.5h76v-487h-1127q-270 0 -426.5 172.5t-156.5 454.5zM492 520q-23 -200 62.5 -308t258.5 -108q21 0 71 46.5t54 70.5l178 1047q4 26 -29.5 74.5t-54.5 48.5q-162 0 -289.5 -124t-175.5 -323q-50 -206 -75 -424z" />
<glyph unicode="&#x153;" horiz-adv-x="1591" d="M143 387q0 115 43 227t115.5 198t175 139t213.5 53q203 0 311 -177q160 177 336 177q119 0 195 -55t76 -158q0 -118 -92.5 -188t-249.5 -97l-217 -29q-21 -134 32 -220.5t172 -86.5q92 0 167 55.5t120 151.5h76q-60 -173 -184.5 -286.5t-264.5 -113.5q-110 0 -181.5 47.5 t-104.5 125.5q-72 -77 -165.5 -125t-191.5 -48q-175 0 -278 110t-103 300zM373 336q-10 -117 33 -180.5t131 -63.5q81 0 158 76.5t104 187.5q39 154 51 314q9 111 -36 171t-134 60q-78 0 -153.5 -74t-102.5 -186q-37 -152 -51 -305zM1055 549q111 18 217 45q78 20 130 69.5 t52 118.5q0 60 -33.5 96.5t-87.5 36.5q-63 -7 -124.5 -65.5t-101.5 -140t-52 -160.5z" />
<glyph unicode="&#x178;" horiz-adv-x="1312" d="M248 1415v76h676v-76h-88q-18 0 -61.5 -62t-51.5 -93l143 -531h13l311 524q3 30 -17 96t-36 66h-86v76h485v-76h-35q-22 -4 -98.5 -70.5t-95.5 -93.5l-389 -628l-70 -424q-4 -22 27.5 -72.5t48.5 -50.5h104v-76h-694v76h104q15 0 64 51t53 72l74 426l-209 626 q-10 26 -62 95t-71 69h-39zM614 1720q0 59 43.5 101.5t104.5 42.5t103 -42.5t42 -101.5q0 -60 -42 -101.5t-103 -41.5q-62 0 -105 41.5t-43 101.5zM1053 1720q0 59 43 101.5t104 42.5t103.5 -42.5t42.5 -101.5q0 -60 -42.5 -101.5t-103.5 -41.5q-62 0 -104.5 41.5 t-42.5 101.5z" />
<glyph unicode="&#x2c6;" horiz-adv-x="849" d="M289 1100l293 360h176l110 -360h-84l-139 194l-268 -194h-88z" />
<glyph unicode="&#x2dc;" horiz-adv-x="849" d="M330 1337l59 47q0 -35 25.5 -59.5t60.5 -24.5q39 0 81.5 17.5t74 39t74 39t81.5 17.5q75 0 115.5 -58t28.5 -153l-60 -47q-11 42 -29 63.5t-57 20.5q-32 -1 -73 -19.5t-74.5 -39.5t-78.5 -38.5t-85 -17.5q-75 0 -114 58t-29 155z" />
<glyph unicode="&#x2000;" horiz-adv-x="996" />
<glyph unicode="&#x2001;" horiz-adv-x="1993" />
<glyph unicode="&#x2002;" horiz-adv-x="996" />
<glyph unicode="&#x2003;" horiz-adv-x="1993" />
<glyph unicode="&#x2004;" horiz-adv-x="664" />
<glyph unicode="&#x2005;" horiz-adv-x="498" />
<glyph unicode="&#x2006;" horiz-adv-x="332" />
<glyph unicode="&#x2007;" horiz-adv-x="332" />
<glyph unicode="&#x2008;" horiz-adv-x="249" />
<glyph unicode="&#x2009;" horiz-adv-x="398" />
<glyph unicode="&#x200a;" horiz-adv-x="110" />
<glyph unicode="&#x2010;" d="M121 440l43 236h541l-41 -236h-543z" />
<glyph unicode="&#x2011;" d="M121 440l43 236h541l-41 -236h-543z" />
<glyph unicode="&#x2012;" d="M121 440l43 236h541l-41 -236h-543z" />
<glyph unicode="&#x2013;" horiz-adv-x="1124" d="M137 489l31 187h1034l-31 -187h-1034z" />
<glyph unicode="&#x2014;" horiz-adv-x="1626" d="M92 514l27 162h1626l-27 -162h-1626z" />
<glyph unicode="&#x2018;" horiz-adv-x="380" d="M184 1135l11 53q29 150 134 230t263 73v-84q-98 9 -179 -33t-98 -117h58q41 -9 66.5 -43.5t25.5 -80.5q0 -60 -43 -106t-109 -46q-62 0 -101.5 45t-27.5 109z" />
<glyph unicode="&#x2019;" horiz-adv-x="450" d="M193 981v84q98 -9 177.5 32.5t96.5 116.5h-55q-41 9 -67 44t-26 81q0 60 43 106t109 46q62 0 101.5 -45t27.5 -109l-10 -53q-28 -147 -134 -228.5t-263 -74.5z" />
<glyph unicode="&#x201a;" horiz-adv-x="425" d="M-14 -150q97 -9 177 33t97 117h-55q-41 9 -66.5 44t-25.5 81q0 60 42.5 105.5t108.5 45.5q62 0 101.5 -44.5t27.5 -108.5l-10 -53q-28 -147 -134 -228.5t-263 -74.5v83z" />
<glyph unicode="&#x201c;" horiz-adv-x="724" d="M184 1135l11 53q28 147 134 228.5t263 74.5v-84q-98 9 -178 -33t-97 -117h56q41 -9 66.5 -43.5t25.5 -80.5q0 -60 -43 -106t-109 -46q-62 0 -101.5 45t-27.5 109zM528 1135l11 53q25 129 111.5 210t215.5 93v-84q-77 -8 -134 -48.5t-70 -101.5h55q41 -9 66.5 -43.5 t25.5 -80.5q0 -60 -43 -106t-109 -46q-62 0 -101.5 45t-27.5 109z" />
<glyph unicode="&#x201d;" horiz-adv-x="788" d="M256 981v84q77 8 134.5 48t70.5 101h-55q-41 9 -67 44t-26 81q0 60 43 106t109 46q62 0 101.5 -45t27.5 -109l-10 -53q-25 -129 -112 -210t-216 -93zM530 981v84q98 -9 178 32.5t97 116.5h-55q-41 9 -67 44t-26 81q0 60 43 106t109 46q62 0 101.5 -45t27.5 -109l-10 -53 q-28 -147 -134.5 -228.5t-263.5 -74.5z" />
<glyph unicode="&#x201e;" horiz-adv-x="770" d="M55 -150q77 8 134.5 48.5t70.5 101.5h-55q-41 9 -66.5 44t-25.5 81q0 60 42.5 105.5t108.5 45.5q62 0 101.5 -44.5t27.5 -108.5l-10 -53q-25 -129 -112 -210t-216 -93v83zM330 -150q97 -9 177 33t97 117h-55q-41 9 -66.5 44t-25.5 81q0 60 42.5 105.5t108.5 45.5 q62 0 101.5 -44.5t27.5 -108.5l-10 -53q-28 -147 -134 -228.5t-263 -74.5v83z" />
<glyph unicode="&#x2022;" horiz-adv-x="696" d="M186 815q0 117 82 198t201 81t201 -81t82 -198t-82 -197.5t-201 -80.5t-201 80.5t-82 197.5z" />
<glyph unicode="&#x2026;" horiz-adv-x="1472" d="M121 162q0 66 48.5 114t117.5 48t117.5 -48t48.5 -114t-48.5 -114t-117.5 -48t-117.5 48t-48.5 114zM668 143q0 60 42 102t103 42q62 0 103.5 -41.5t41.5 -102.5t-41 -102t-104 -41q-61 0 -103 41.5t-42 101.5zM1165 127q0 53 37.5 90t91.5 37t91.5 -37t37.5 -90 t-37.5 -90t-91.5 -37t-91.5 37t-37.5 90z" />
<glyph unicode="&#x202f;" horiz-adv-x="398" />
<glyph unicode="&#x2039;" horiz-adv-x="665" d="M145 545v131l633 493v-165l-504 -394l338 -323v-193z" />
<glyph unicode="&#x203a;" horiz-adv-x="665" d="M117 94v170l499 350l-321 365v190l457 -491v-133z" />
<glyph unicode="&#x205f;" horiz-adv-x="498" />
<glyph unicode="&#x20ac;" horiz-adv-x="1286" d="M115 610v97h194v96h-129v96h146q72 280 248 450.5t409 170.5q63 0 152.5 -33t130.5 -33q60 0 90 37h76l-148 -487h-80q17 98 -5.5 193.5t-82 157.5t-139.5 62q-160 0 -271 -129.5t-139 -388.5h441v-96h-449v-96h514v-97h-538q-34 -251 36.5 -378.5t219.5 -127.5 q130 0 228 76t152 207h111q-178 -412 -543 -412q-146 0 -254 85.5t-159.5 228.5t-46.5 321h-164z" />
<glyph unicode="&#x2122;" horiz-adv-x="1828" d="M213 1149q17 56 38 143t33 146l13 59l176 -6h318l180 6q-27 -215 -35 -348h-43q-2 5 -27.5 79.5t-50.5 138t-33 63.5h-67l-111 -660q-3 -12 13.5 -41t25.5 -29h82v-59h-451v59h80q6 0 35.5 29.5t32.5 40.5l110 660h-67q-11 0 -58 -63.5t-97.5 -138.5t-53.5 -79h-43z M850 641v59h82q8 0 34 29t29 41l101 594q1 13 -17 41.5t-26 28.5h-31v57h293l98 -537l301 537h266v-57h-30q-11 0 -41 -29t-31 -41l-98 -594q-3 -12 15.5 -41t29.5 -29h35v-59h-400v59h78q9 0 37 29t29 41l92 541l-396 -695l-137 699l-92 -545q-3 -12 16.5 -41t28.5 -29h60 v-59h-326z" />
<glyph unicode="&#x25fc;" horiz-adv-x="983" d="M0 0v983h983v-983h-983z" />
</font>
</defs>
</svg>
