<?xml version="1.0" standalone="no"?>
<!DOCTYPE svg PUBLIC "-//W3C//DTD SVG 1.1//EN" "http://www.w3.org/Graphics/SVG/1.1/DTD/svg11.dtd" >
<svg xmlns="http://www.w3.org/2000/svg">
<metadata></metadata>
<defs>
<font id="romana_btbold" horiz-adv-x="1186" >
<font-face units-per-em="2048" ascent="1638" descent="-410" />
<missing-glyph horiz-adv-x="592" />
<glyph horiz-adv-x="0" />
<glyph unicode="&#xd;" horiz-adv-x="592" />
<glyph unicode=" "  horiz-adv-x="592" />
<glyph unicode="&#x09;" horiz-adv-x="592" />
<glyph unicode="&#xa0;" horiz-adv-x="592" />
<glyph unicode="!" horiz-adv-x="592" d="M100 1298q0 108 51.5 168t143.5 60t144.5 -60t52.5 -168q-1 -34 -4.5 -68.5t-10.5 -66.5l-153 -700h-56l-153 700q-7 33 -11 67t-4 68zM111 156q0 75 54.5 130.5t129.5 55.5q77 0 131.5 -54.5t54.5 -131.5t-55 -131t-131 -54q-74 0 -129 55.5t-55 129.5z" />
<glyph unicode="&#x22;" horiz-adv-x="707" d="M80 1350q0 52 28 83t74 31q48 0 75.5 -29t27.5 -81q0 -16 -0.5 -24.5t-1.5 -16.5l-80 -461h-41l-80 461q-1 7 -1.5 14.5t-0.5 22.5zM418 1350q0 53 28 83.5t76 30.5q49 0 77 -29.5t28 -80.5q0 -6 -1 -15t-3 -26l-80 -461h-41l-80 461q-2 12 -3 21t-1 16z" />
<glyph unicode="#" horiz-adv-x="1575" d="M45 406l74 196h287l88 248h-304l74 199h299l148 415h215l-148 -415h254l150 415h213l-148 -415h283l-74 -199h-278l-88 -248h292l-71 -196h-291l-148 -416h-215l148 416h-254l-150 -416h-215l148 416h-289zM614 600h265l88 252h-262z" />
<glyph unicode="$" d="M43 209l111 264l49 -10q33 -153 123 -248t227 -123v506q-268 108 -364.5 201.5t-96.5 230.5q0 171 128.5 287t332.5 125v123h104v-127q100 -11 195.5 -49t189.5 -105l-102 -248l-41 13q-24 126 -84.5 201.5t-157.5 99.5v-453q252 -93 369 -204.5t117 -256.5 q0 -178 -130.5 -295.5t-355.5 -138.5v-143h-104v141q-152 12 -279.5 64.5t-230.5 144.5zM352 1161q0 -72 49.5 -128.5t151.5 -100.5v426q-90 -6 -145.5 -60.5t-55.5 -136.5zM657 90q101 15 159 78.5t58 157.5q0 81 -52 139.5t-165 103.5v-479z" />
<glyph unicode="%" horiz-adv-x="1550" d="M76 1014q0 210 85 335.5t224 125.5q134 0 217.5 -116t83.5 -304q0 -220 -81.5 -345.5t-221.5 -125.5q-144 0 -225.5 113.5t-81.5 316.5zM272 1034q0 -271 23.5 -336t87.5 -65q61 0 85 58.5t24 238.5v92q0 268 -24 335.5t-87 67.5t-86 -67.5t-23 -323.5zM332 20l788 1455 l101 -54l-789 -1454zM864 397q0 210 85.5 335.5t224.5 125.5q134 0 217.5 -115.5t83.5 -304.5q0 -219 -82.5 -345t-223.5 -126q-143 0 -224 114t-81 316zM1061 418q0 -272 23.5 -338t86.5 -66q61 0 84 57.5t23 239.5v119q0 246 -23 312.5t-86 66.5q-62 0 -85 -67.5 t-23 -323.5z" />
<glyph unicode="&#x26;" horiz-adv-x="1413" d="M66 332q0 141 96 269t287 239q-38 80 -56 144t-18 118q0 162 102.5 267.5t261.5 105.5q112 0 192.5 -78t80.5 -185q0 -87 -64.5 -166t-199.5 -157q29 -56 91.5 -163t139.5 -232q36 68 55 129t19 112q0 54 -20 86.5t-64 50.5v37h374v-37q-84 -16 -204 -262 q-62 -126 -103 -200q117 -208 184 -285t129 -86l1 -39h-416l-88 150q-82 -87 -180.5 -131t-210.5 -44q-170 0 -279.5 101t-109.5 256zM328 510q0 -68 29 -139t81 -127q47 -50 94.5 -74.5t98.5 -24.5q47 0 88.5 21t79.5 63q-126 215 -199.5 341.5t-107.5 189.5 q-86 -56 -125 -115.5t-39 -134.5zM614 1227q0 -67 22 -132.5t64 -129.5q63 62 94 130t31 142q0 67 -29 109.5t-73 42.5q-47 0 -78 -46t-31 -116z" />
<glyph unicode="'" horiz-adv-x="365" d="M78 1350q0 53 28 83.5t76 30.5t75.5 -29t27.5 -81q0 -16 -0.5 -24.5t-1.5 -16.5l-80 -461h-41l-80 461q-2 12 -3 21t-1 16z" />
<glyph unicode="(" horiz-adv-x="786" d="M162 522q0 332 162 603.5t436 400.5v-58q-128 -111 -200.5 -360t-72.5 -586t72.5 -586t200.5 -362v-57q-275 129 -436.5 401t-161.5 604z" />
<glyph unicode=")" horiz-adv-x="786" d="M27 -426q128 113 200 362t72 586q0 336 -72 584.5t-200 361.5v58q274 -130 437 -402t163 -602t-163 -603t-437 -402v57z" />
<glyph unicode="*" horiz-adv-x="1024" d="M119 936q0 43 31 70.5t83 31.5q8 1 23 2q147 11 223 52q-85 45 -235 52q-12 0 -19 1q-47 3 -76.5 31t-29.5 71q0 49 32 85t74 36q61 0 115 -82l16 -24q33 -48 66.5 -82t72.5 -59q-4 86 -49 180.5t-45 121.5q0 46 30.5 74.5t80.5 28.5t80.5 -29t30.5 -76q0 -20 -44.5 -115 t-52.5 -184q39 22 73 55.5t69 84.5q4 6 11 16q61 90 122 90q41 0 72.5 -36t31.5 -83q0 -51 -30 -74.5t-119 -31.5q-86 -7 -129.5 -18t-81.5 -31q36 -23 84 -35.5t129 -18.5q83 -5 115 -29t32 -77q0 -48 -33 -83.5t-77 -35.5q-57 0 -118 93q-6 9 -9 13q-41 61 -72 93t-65 51 q3 -88 48.5 -184.5t45.5 -120.5q0 -44 -31.5 -72.5t-81.5 -28.5t-80.5 27t-30.5 72q0 26 46.5 124t52.5 181q-41 -24 -76.5 -59.5t-67.5 -81.5q-4 -7 -11 -18q-57 -89 -116 -89q-45 0 -77.5 36.5t-32.5 84.5z" />
<glyph unicode="+" horiz-adv-x="1706" d="M254 512v199h498v510h202v-510h498v-199h-498v-512h-202v512h-498z" />
<glyph unicode="," horiz-adv-x="592" d="M102 -371q72 77 111 148.5t39 124.5q0 52 -71.5 142.5t-71.5 160.5q0 69 50.5 117.5t121.5 48.5q96 0 152 -66.5t56 -181.5q0 -137 -83 -273.5t-248 -269.5z" />
<glyph unicode="-" horiz-adv-x="692" d="M57 426v209h578v-209h-578z" />
<glyph unicode="." horiz-adv-x="592" d="M111 156q0 75 54.5 130.5t129.5 55.5q77 0 131.5 -54.5t54.5 -131.5t-55 -131t-131 -54q-74 0 -129 55.5t-55 129.5z" />
<glyph unicode="/" horiz-adv-x="844" d="M-113 -135l881 1661l109 -58l-879 -1658z" />
<glyph unicode="0" d="M76 694q0 358 143 569.5t381 211.5q228 0 369 -194.5t141 -514.5q0 -373 -137.5 -586t-376.5 -213q-243 0 -381.5 193t-138.5 534zM408 750q0 -474 40 -587.5t150 -113.5q102 0 141 98.5t39 413.5v129q0 469 -39.5 586t-146.5 117q-106 0 -145 -115t-39 -528z" />
<glyph unicode="1" d="M330 1221v43q111 43 201.5 95.5t158.5 115.5h58v-1285q0 -72 21 -104.5t75 -46.5v-39h-494v39q53 14 73.5 46t20.5 105v873q0 77 -25.5 111.5t-88.5 46.5z" />
<glyph unicode="2" d="M37 0v6l14 43q41 113 123.5 230t253.5 294l18 19q293 307 293 532q0 124 -47.5 197.5t-126.5 73.5q-69 0 -103.5 -43t-51.5 -164q-14 -98 -52.5 -145.5t-103.5 -47.5q-59 0 -95 39t-36 105q0 136 135.5 236t329.5 100q202 0 336.5 -122t134.5 -304q0 -84 -25.5 -152.5 t-81.5 -136.5q-71 -86 -350 -242q-87 -49 -133 -76q-62 -35 -121 -88t-106 -116h409q119 0 195.5 38t132.5 123l39 -16l-96 -383h-885z" />
<glyph unicode="3" d="M98 256q0 57 39.5 95t98.5 38q63 0 103 -37t79 -147q30 -87 66 -122.5t91 -35.5q79 0 120.5 74.5t41.5 216.5q0 186 -78 275t-241 89h-10v84q154 10 227.5 87t73.5 231q0 143 -40.5 217t-117.5 74q-65 0 -100 -41t-54 -142q-19 -98 -50.5 -133t-90.5 -35q-57 0 -94 40 t-37 100q0 118 125.5 204.5t308.5 86.5q194 0 320.5 -100t126.5 -249q0 -120 -71 -208t-204 -134q159 -35 247.5 -136.5t88.5 -248.5q0 -193 -141 -312.5t-371 -119.5q-202 0 -329.5 82t-127.5 207z" />
<glyph unicode="4" d="M72 346v129l639 985h180v-948h203v-166h-203v-156q0 -73 20.5 -105t73.5 -46v-39h-483v39q52 14 73 46t21 105v156h-524zM248 512h348l6 567z" />
<glyph unicode="5" d="M115 248q0 59 38 98t95 39q63 0 100.5 -32.5t73.5 -141.5q28 -88 62.5 -122t93.5 -34q85 0 123 84.5t38 274.5q0 211 -52.5 310t-164.5 99q-75 0 -125 -45t-71 -131h-111v823q94 -34 186 -51.5t185 -17.5q99 0 187 18.5t159 55.5l31 -48q-93 -127 -228 -198.5t-282 -71.5 q-23 0 -46 1.5t-48 4.5l-1 -307q63 75 137 113.5t156 38.5q175 0 295.5 -140t120.5 -346q0 -124 -42.5 -225t-127.5 -180q-76 -71 -177 -110.5t-208 -39.5q-160 0 -278.5 86t-118.5 195z" />
<glyph unicode="6" d="M92 690q0 351 161 568t417 217q133 0 229 -67t96 -153q0 -59 -35.5 -97t-91.5 -38q-48 0 -80 25t-71 106q-42 86 -68 108.5t-63 22.5q-79 0 -121.5 -118.5t-42.5 -339.5q0 -15 1 -43.5t1 -42.5q49 70 117 106.5t151 36.5q177 0 295.5 -135t118.5 -340q0 -229 -143 -384 t-349 -155q-240 0 -381 193t-141 530zM426 455q0 -219 43 -313.5t141 -94.5q96 0 138.5 98.5t42.5 327.5q0 206 -41.5 298.5t-133.5 92.5q-96 0 -143 -101t-47 -308z" />
<glyph unicode="7" d="M176 1042v400h905v-80q-169 -282 -266 -628t-115 -734h-333q43 340 172 637t352 567h-320q-149 0 -221 -37t-110 -129z" />
<glyph unicode="8" d="M78 358q0 111 76.5 202t242.5 175q-123 75 -186.5 168t-63.5 199q0 163 125.5 268t323.5 105q181 0 300.5 -92.5t119.5 -227.5q0 -90 -52.5 -164t-162.5 -139q162 -104 233.5 -206.5t71.5 -231.5q0 -192 -148.5 -319.5t-377.5 -127.5q-213 0 -357.5 114.5t-144.5 276.5z M311 377q0 -140 80 -234t199 -94q110 0 175.5 63.5t65.5 170.5q0 113 -83.5 206.5t-276.5 192.5q-80 -61 -120 -137.5t-40 -167.5zM395 1223q0 -77 72.5 -150.5t237.5 -161.5q46 59 68 120.5t22 131.5q0 101 -62 166.5t-158 65.5q-78 0 -129 -49t-51 -123z" />
<glyph unicode="9" d="M96 948q0 226 143 376.5t359 150.5q229 0 369.5 -192t140.5 -511q0 -174 -44 -328.5t-126 -271.5q-69 -99 -160 -152t-192 -53q-157 0 -272 83t-115 188q0 55 38.5 93t94.5 38q63 0 103.5 -41t70.5 -136q1 -3 4 -13q39 -122 121 -122q83 0 116 82t33 320q0 46 -0.5 89 t-1.5 88q-50 -70 -125.5 -111.5t-156.5 -41.5q-165 0 -282.5 135.5t-117.5 329.5zM416 1034q0 -240 39.5 -332t136.5 -92q88 0 132 79.5t44 240.5q0 264 -42.5 364.5t-145.5 100.5q-88 0 -126 -82t-38 -279z" />
<glyph unicode=":" horiz-adv-x="592" d="M111 156q0 75 54.5 130.5t129.5 55.5q77 0 131.5 -54.5t54.5 -131.5t-55 -131t-131 -54q-74 0 -129 55.5t-55 129.5zM111 829q0 75 54 130t130 55q78 0 132 -53.5t54 -131.5q0 -75 -55.5 -129.5t-130.5 -54.5q-74 0 -129 55.5t-55 128.5z" />
<glyph unicode=";" horiz-adv-x="592" d="M102 -371q72 77 111 148.5t39 124.5q0 52 -70.5 142.5t-70.5 160.5q0 69 49.5 117.5t120.5 48.5q96 0 152 -66.5t56 -181.5q0 -137 -83 -273.5t-248 -269.5zM111 829q0 75 54 130t130 55q78 0 132 -53.5t54 -131.5q0 -75 -55.5 -129.5t-130.5 -54.5q-74 0 -129 55.5 t-55 128.5z" />
<glyph unicode="&#x3c;" horiz-adv-x="1706" d="M264 512v199l1178 483v-219l-893 -365l893 -364v-219z" />
<glyph unicode="=" horiz-adv-x="1706" d="M254 297v199h1198v-199h-1198zM254 727v199h1198v-199h-1198z" />
<glyph unicode="&#x3e;" horiz-adv-x="1706" d="M264 27v219l895 364l-895 365v219l1178 -483v-199z" />
<glyph unicode="?" horiz-adv-x="981" d="M16 1231q0 117 122.5 206t293.5 89q217 0 352.5 -129t135.5 -334q0 -189 -125.5 -305t-352.5 -137l-16 -175h-96v441q149 6 241.5 97.5t92.5 232.5q0 100 -49 162.5t-128 62.5q-62 0 -104.5 -33.5t-56.5 -93.5l-9 -39q-43 -195 -153 -195q-61 0 -104.5 44t-43.5 106z M207 156q0 75 54.5 130.5t129.5 55.5q77 0 130.5 -54t53.5 -132q0 -77 -54 -131t-130 -54q-74 0 -129 55.5t-55 129.5z" />
<glyph unicode="@" horiz-adv-x="2019" d="M133 535q0 155 52 298.5t153 264.5q145 174 346.5 267t435.5 93q349 0 558.5 -189t209.5 -503q0 -161 -59 -299.5t-170 -239.5q-59 -53 -126.5 -80.5t-137.5 -27.5q-98 0 -155 52t-64 148q-62 -100 -134.5 -148t-160.5 -48q-142 0 -222.5 91t-80.5 251q0 114 50 221.5 t144 196.5q69 64 148 97.5t161 33.5q96 0 150.5 -45t71.5 -138l49 164h190l-174 -618l-2 -7q-14 -58 -14 -87q0 -47 20.5 -74t54.5 -27q33 0 85 25t98 63q103 88 158 217t55 285q0 275 -188.5 446t-489.5 171q-138 0 -262 -38t-228 -112q-173 -121 -266.5 -308.5 t-93.5 -416.5q0 -335 210.5 -532t565.5 -197q166 0 319.5 50.5t307.5 156.5l39 -51q-151 -113 -318 -169.5t-348 -56.5q-187 0 -347.5 46t-277.5 133q-151 112 -232 277.5t-81 363.5zM788 362q0 -79 34.5 -125.5t92.5 -46.5q64 0 124.5 62t115.5 182q40 92 63 185.5 t23 162.5q0 80 -32 123t-91 43q-62 0 -112.5 -44.5t-100.5 -143.5q-57 -114 -87 -215t-30 -183z" />
<glyph unicode="A" horiz-adv-x="1280" d="M0 0v39q59 22 106.5 96.5t86.5 204.5l333 1153h283l328 -1174q42 -153 73.5 -213t69.5 -68v-38h-483v39q26 12 39.5 30.5t13.5 41.5q0 16 -2.5 34t-7.5 39l-56 205h-450l-21 -74q-10 -35 -15 -65.5t-5 -52.5q0 -56 27.5 -95.5t82.5 -62.5v-39h-403zM369 512h383l-187 688 z" />
<glyph unicode="B" horiz-adv-x="1432" d="M66 0v39q53 14 74.5 46.5t21.5 104.5v1115q0 72 -21.5 104.5t-74.5 46.5v37l456 14h62q347 0 529.5 -95.5t182.5 -276.5q0 -124 -93.5 -208.5t-276.5 -127.5q223 -62 331.5 -162.5t108.5 -245.5q0 -183 -151 -287t-420 -104h-729zM494 231q0 -68 34 -95t121 -27 q168 0 254 80.5t86 238.5q0 156 -97 236.5t-284 80.5h-114v-514zM494 854h32q220 0 317 65t97 209q0 124 -80 197.5t-215 73.5q-92 0 -121.5 -27t-29.5 -139v-53v-326z" />
<glyph unicode="C" horiz-adv-x="1374" d="M76 743q0 162 50 311t136 246q102 116 228 171t290 55q132 0 249 -41t212 -121l-104 -299l-52 8q-40 163 -139 258.5t-225 95.5q-134 0 -211.5 -131.5t-77.5 -359.5q0 -343 112.5 -539t305.5 -196q125 0 227.5 61t161.5 172l68 -20q-79 -211 -235 -329t-355 -118 q-104 0 -198 33t-171 96q-133 110 -202.5 275t-69.5 372z" />
<glyph unicode="D" horiz-adv-x="1522" d="M66 0v39q53 14 74.5 46.5t21.5 104.5v1115q0 72 -21.5 104.5t-74.5 46.5v37l282 16q105 6 169.5 9.5t76.5 3.5q208 0 357 -50.5t261 -158.5q115 -110 174.5 -254.5t59.5 -313.5q0 -346 -214 -545.5t-587 -199.5h-579zM494 301q0 -113 31 -152.5t114 -39.5 q224 0 326 146.5t102 473.5q0 368 -96 525t-318 157q-54 0 -88 -9t-47 -26q-13 -19 -18.5 -58.5t-5.5 -135.5v-47v-834z" />
<glyph unicode="E" horiz-adv-x="1284" d="M66 0v39q53 14 74.5 46.5t21.5 104.5v1115q0 72 -21.5 104.5t-74.5 46.5v37h1064l58 -322l-51 -24q-80 111 -191.5 167t-251.5 56q-120 0 -160 -32t-40 -128v-309h106q150 0 231 38t117 124h51v-447h-51q-27 87 -108.5 124.5t-247.5 37.5h-98v-510q0 -94 34.5 -119.5 t165.5 -25.5q159 0 285 49t233 154l56 -29l-94 -297h-1108z" />
<glyph unicode="F" d="M66 0v39q53 14 74.5 46.5t21.5 104.5v1115q0 72 -21.5 104.5t-74.5 46.5v37h1056l35 -303l-43 -14q-62 96 -167 145t-249 49q-121 0 -162.5 -28t-41.5 -117v-324h63q176 0 270.5 37.5t122.5 118.5h43v-434h-43q-43 85 -125 120t-254 35h-77v-588q0 -73 20.5 -105 t73.5 -46v-39h-522z" />
<glyph unicode="G" horiz-adv-x="1526" d="M66 729q0 157 48.5 301t137.5 250q99 119 236 182.5t296 63.5q150 0 287 -46.5t275 -144.5l-117 -313l-47 12q-60 188 -168.5 293t-243.5 105q-169 0 -247.5 -139.5t-78.5 -444.5q0 -449 77 -617t267 -168q127 0 178.5 57t51.5 210v315q0 89 -21.5 136.5t-62.5 52.5v38 h487v-38q-40 -15 -55.5 -43t-15.5 -93v-426q0 -66 17.5 -99t59.5 -50v-41q-182 -57 -329 -86t-258 -29q-352 0 -563 207.5t-211 554.5z" />
<glyph unicode="H" horiz-adv-x="1456" d="M66 0v39q53 14 74.5 46.5t21.5 104.5v1115q0 72 -21.5 104.5t-74.5 46.5v37h522v-37q-53 -14 -73.5 -45.5t-20.5 -105.5v-375h469v375q0 74 -21 105.5t-74 45.5v37h521v-37q-53 -14 -74 -45.5t-21 -105.5v-1115q0 -42 4.5 -64t14.5 -38q10 -17 28 -29t48 -20v-39h-521v39 q53 14 74 46t21 105v617h-469v-617q0 -73 20.5 -105t73.5 -46v-39h-522z" />
<glyph unicode="I" horiz-adv-x="696" d="M80 0v39q53 14 74.5 46.5t21.5 104.5v1115q0 41 -4 62.5t-14 37.5q-11 18 -30 30.5t-48 20.5v37h536v-37q-52 -14 -73 -45.5t-21 -105.5v-1115q0 -73 21 -105t73 -46v-39h-536z" />
<glyph unicode="J" horiz-adv-x="702" d="M-270 -209q0 59 41 99t102 40q63 0 105 -41.5t83 -156.5q19 -53 33.5 -67.5t36.5 -14.5q34 0 46.5 53.5t12.5 230.5v1371q0 41 -4 62.5t-14 37.5q-10 18 -29.5 30.5t-48.5 20.5v37h537v-37q-53 -14 -73.5 -45.5t-20.5 -105.5v-1211q0 -154 -19.5 -233.5t-64.5 -139.5 q-62 -83 -158.5 -127.5t-216.5 -44.5q-149 0 -248.5 70.5t-99.5 171.5z" />
<glyph unicode="K" horiz-adv-x="1403" d="M66 0v39q53 14 74.5 46.5t21.5 104.5v1115q0 72 -21.5 104.5t-74.5 46.5v37h522v-37q-53 -14 -73.5 -45.5t-20.5 -105.5v-543l303 362q72 85 105.5 143.5t33.5 98.5q0 35 -18.5 59.5t-49.5 30.5v37h478v-37q-100 -22 -360 -311l-11 -12l-176 -199l452 -705 q50 -75 96.5 -124.5t84.5 -65.5v-39h-570v39q30 17 44 34.5t14 37.5t-17 56.5t-57 100.5l-256 420l-96 -113v-385q0 -73 20.5 -105t73.5 -46v-39h-522z" />
<glyph unicode="L" horiz-adv-x="1262" d="M80 0v39q53 14 74.5 46.5t21.5 104.5v1115q0 42 -4 64t-14 38q-10 17 -29 29t-49 20v39h536v-39q-52 -14 -73 -45.5t-21 -105.5v-963q0 -157 25 -187t127 -30q201 0 307.5 52.5t206.5 187.5l47 -19l-88 -346h-1067z" />
<glyph unicode="M" horiz-adv-x="1726" d="M-18 0v39q69 19 105 97.5t65 312.5l92 753q2 17 3 36.5t1 57.5q0 65 -19.5 105t-58.5 55v37h455l258 -963l221 963h465v-37q-46 -20 -67 -50.5t-21 -76.5q0 -12 1 -24t3 -25l117 -1014q15 -125 39.5 -170t74.5 -57v-39h-504v39q43 17 60.5 41t17.5 67q0 17 -2.5 47.5 t-7.5 79.5l-111 953l-297 -1227h-161l-340 1227l-107 -893q-1 -9 -2 -24q-6 -55 -6 -74q0 -80 31 -128.5t96 -68.5v-39h-401z" />
<glyph unicode="N" horiz-adv-x="1399" d="M29 0v39q74 40 103.5 119t29.5 327v693q0 97 -35 172t-94 106v37h407l674 -969v639q0 123 -35 196.5t-104 96.5v37h387v-37q-69 -32 -97 -88t-28 -186v-1182h-141l-811 1159v-737q0 -169 33 -259t106 -124v-39h-395z" />
<glyph unicode="O" horiz-adv-x="1507" d="M66 739q0 172 49.5 315.5t148.5 256.5q93 106 216.5 160.5t273.5 54.5q111 0 219 -39t180 -105q143 -129 216 -287t73 -339q0 -188 -69.5 -348.5t-205.5 -284.5q-80 -75 -188.5 -115.5t-226.5 -40.5q-119 0 -229.5 41.5t-198.5 118.5q-127 111 -192.5 267t-65.5 345z M444 803q0 -391 75 -566.5t239 -175.5q160 0 232.5 158t72.5 516q0 353 -81 525t-249 172q-155 0 -222 -142.5t-67 -486.5z" />
<glyph unicode="P" horiz-adv-x="1352" d="M66 0v39q53 14 74.5 46.5t21.5 104.5v1115q0 72 -21.5 104.5t-74.5 46.5v37l367 23q57 3 110 4.5t98 1.5q326 0 504 -116t178 -327q0 -224 -181.5 -337t-543.5 -113q-40 0 -62.5 0.5t-41.5 1.5v-441q0 -73 20.5 -105t73.5 -46v-39h-522zM494 741q6 0 18 -1q58 -3 80 -3 q193 0 284 80t91 248q0 169 -81.5 257.5t-238.5 88.5q-93 0 -123 -24t-30 -107v-539z" />
<glyph unicode="Q" horiz-adv-x="1507" d="M66 739q0 172 49.5 315.5t148.5 256.5q93 106 216.5 160.5t273.5 54.5q111 0 219 -39t180 -105q142 -128 215.5 -287t73.5 -339q0 -200 -77.5 -368.5t-221.5 -285.5q45 -85 93.5 -133.5t86.5 -48.5q20 0 40.5 8t47.5 27l31 -53q-72 -69 -147.5 -106.5t-141.5 -37.5 q-84 0 -152 55.5t-120 166.5q-42 -7 -75.5 -10t-60.5 -3q-115 0 -224.5 41.5t-196.5 118.5q-127 111 -192.5 267t-65.5 345zM444 803q0 -396 76 -569t246 -173q25 0 43.5 3.5t34.5 11.5q-55 131 -99.5 181t-101.5 50q-5 0 -17.5 -3t-43.5 -13l-25 41q61 51 121.5 78.5 t109.5 27.5q68 0 125 -35t107 -106q21 80 32 192.5t11 245.5q0 353 -81 525t-249 172q-155 0 -222 -142.5t-67 -486.5z" />
<glyph unicode="R" horiz-adv-x="1395" d="M66 0v39q53 14 74.5 46.5t21.5 104.5v1115q0 72 -21.5 104.5t-74.5 46.5v37l399 20q67 4 122 6.5t85 2.5q306 0 487.5 -122.5t181.5 -324.5q0 -141 -95 -244.5t-279 -162.5q76 -255 175 -431.5t214 -265.5v-32q-238 9 -429 193t-301 511q-39 -2 -59 -3t-37 -1h-36v-449 q0 -73 20.5 -105t73.5 -46v-39h-522zM494 750h51q238 0 342 76.5t104 250.5q0 165 -80 250.5t-233 85.5q-108 0 -146 -28.5t-38 -112.5v-522z" />
<glyph unicode="S" horiz-adv-x="1262" d="M66 195l112 299l51 -19q42 -191 155 -302.5t263 -111.5q107 0 172.5 68t65.5 178q0 82 -49.5 139t-237.5 150q-25 13 -73 37q-244 121 -310 192q-46 49 -69 112t-23 138q0 201 137 326t363 125q115 0 232.5 -43t234.5 -127l-107 -273l-43 15q-27 154 -112.5 244 t-204.5 90q-98 0 -160 -55t-62 -140q0 -83 56.5 -142.5t220.5 -133.5q14 -7 40 -19q270 -124 353 -211q61 -62 92 -134t31 -151q0 -212 -156.5 -345.5t-404.5 -133.5q-155 0 -298 57.5t-269 170.5z" />
<glyph unicode="T" horiz-adv-x="1352" d="M0 1161l74 332h1222l56 -332l-45 -14q-67 111 -161.5 175t-189.5 64q-58 0 -79 -27.5t-21 -129.5v-99v-940q0 -73 21 -105t73 -46v-39h-534v39q52 14 73 46t21 105v1020q0 117 -18 146.5t-70 29.5q-76 0 -183 -66t-196 -173z" />
<glyph unicode="U" horiz-adv-x="1432" d="M80 1456v37h536v-37q-52 -14 -73 -45.5t-21 -105.5v-760q0 -220 80 -328t242 -108q74 0 134 24.5t101 71.5q45 50 63.5 123.5t18.5 242.5v70v522q0 123 -35 196.5t-104 96.5v37h387v-37q-69 -32 -97 -88t-28 -186v-717q0 -237 -140 -367.5t-394 -130.5q-128 0 -243 43 t-200 121q-66 60 -98.5 144.5t-32.5 197.5v832q0 41 -4 62.5t-14 37.5q-11 18 -30 30.5t-48 20.5z" />
<glyph unicode="V" horiz-adv-x="1298" d="M0 1456v37h508v-37q-34 -15 -48 -35.5t-14 -54.5q1 -17 4.5 -36.5t14.5 -59.5l285 -924l206 760q13 46 19 89t6 83q0 68 -24.5 113t-71.5 65v37h413v-37q-70 -37 -121 -118.5t-90 -221.5l-309 -1126h-233l-377 1149q-57 175 -92.5 239.5t-75.5 77.5z" />
<glyph unicode="W" horiz-adv-x="2009" d="M0 1456v37h516v-37q-34 -14 -49.5 -37t-15.5 -59q0 -18 5 -45t15 -62l250 -897l211 803l-33 92q-31 94 -68 142.5t-88 62.5v37h541v-37q-36 -8 -56 -37.5t-20 -75.5q0 -28 4.5 -54.5t14.5 -59.5l235 -873l168 648q22 81 33.5 152.5t11.5 121.5q0 69 -27.5 115t-78.5 63 v37h440v-37q-68 -27 -127 -126t-102 -259l-260 -950q-14 -50 -22.5 -87.5t-12.5 -66.5h-234l-256 971l-215 -836q0 -2 -10.5 -46.5t-19.5 -88.5h-234l-364 1254q-29 96 -70.5 159.5t-81.5 75.5z" />
<glyph unicode="X" horiz-adv-x="1327" d="M0 0v39q71 35 165.5 147.5t196.5 282.5l142 233l-295 484q-85 139 -133.5 201.5t-75.5 69.5v36h551v-37q-32 -6 -50 -25t-18 -47q0 -19 13.5 -51t40.5 -78l161 -270l115 195q29 49 44 91.5t15 74.5q0 37 -18 65t-53 45v37h432v-37q-129 -69 -312 -347l-18 -28l-135 -204 l377 -613q2 -3 6 -10q118 -195 176 -215v-39h-563v39q33 2 53.5 23t20.5 53q0 52 -121 248q-13 22 -21 35l-118 192l-103 -174q-41 -69 -64.5 -138t-23.5 -114q0 -52 22.5 -84t65.5 -41v-39h-475z" />
<glyph unicode="Y" horiz-adv-x="1294" d="M0 1457v36h537v-37q-32 -9 -51 -31t-19 -49q0 -18 9.5 -44t33.5 -72l252 -488l151 352q28 64 42 116.5t14 90.5q0 42 -23.5 77.5t-58.5 47.5v37h407v-37q-55 -18 -118 -100.5t-119 -212.5l-236 -543v-410q0 -73 21 -105t73 -46v-39h-520v39q53 14 73.5 46t20.5 105v443 l-348 657q-37 71 -75 115.5t-66 51.5z" />
<glyph unicode="Z" horiz-adv-x="1294" d="M0 0v6l795 1360l-33 2q-15 1 -33 1.5t-55 0.5q-162 0 -288 -57t-212 -168l-45 18l68 330h1034l-799 -1370h37q190 0 274 9t150 30q80 25 152 80t145 147l53 -18l-96 -371h-1147z" />
<glyph unicode="[" horiz-adv-x="811" d="M270 -451v1944h498v-55q-19 2 -36.5 3t-39.5 1q-92 0 -127 -38t-35 -179v-1407q0 -142 35 -179.5t127 -37.5q11 0 29.5 1.5t46.5 3.5v-57h-498z" />
<glyph unicode="\" horiz-adv-x="844" d="M-16 1468l108 58l881 -1661l-109 -55z" />
<glyph unicode="]" horiz-adv-x="811" d="M43 -394q28 -2 46.5 -3.5t29.5 -1.5q92 0 127 38.5t35 178.5v1407q0 139 -35 178t-127 39q-22 0 -39.5 -1t-36.5 -3v55h498v-1944h-498v57z" />
<glyph unicode="^" horiz-adv-x="2048" d="M412 897l493 565h236l491 -565h-112l-498 373l-498 -373h-112z" />
<glyph unicode="_" horiz-adv-x="1024" d="M0 -279h1024v-204h-1024v204z" />
<glyph unicode="`" horiz-adv-x="1024" d="M209 1460q0 40 25 65t65 25q30 0 61.5 -19t73.5 -63l273 -280h-91l-313 164q-56 30 -75 53t-19 55z" />
<glyph unicode="a" horiz-adv-x="1042" d="M57 223q0 84 47 159t134 130q56 36 191 93t198 87v131q0 97 -27 136.5t-90 39.5q-48 0 -72.5 -26.5t-40.5 -102.5q-24 -112 -55.5 -149t-87.5 -37q-54 0 -92.5 38t-38.5 93q0 104 115.5 182t277.5 78q193 0 282 -74t89 -235v-502q0 -70 13 -99.5t44 -29.5q17 0 30 4.5 t25 14.5l39 -41q-63 -68 -131.5 -105t-130.5 -37q-67 0 -103.5 39.5t-45.5 122.5q-101 -80 -185 -121t-149 -41q-102 0 -169 72t-67 180zM324 303q0 -68 39.5 -108.5t103.5 -40.5q42 0 83.5 19.5t76.5 55.5v383q-163 -75 -233 -147.5t-70 -161.5z" />
<glyph unicode="b" horiz-adv-x="1067" d="M39 1307v43q93 20 167 64.5t128 111.5h49v-604q70 78 143.5 115.5t155.5 37.5q146 0 231.5 -128.5t85.5 -350.5q0 -271 -138 -448t-343 -177q-61 0 -124 20.5t-154 71.5q-1 1 -2 1q-83 49 -107 49q-6 0 -17 -2.5t-30 -7.5l-18 34q30 23 43.5 54t13.5 77v844 q0 110 -18.5 145.5t-65.5 49.5zM383 266q0 -102 42.5 -159.5t117.5 -57.5q95 0 135.5 94t40.5 328q0 218 -49 326t-148 108q-37 0 -71 -17t-68 -52v-570z" />
<glyph unicode="c" horiz-adv-x="930" d="M57 487q0 268 126 428t333 160q145 0 245.5 -76t100.5 -180q0 -48 -31.5 -80t-76.5 -32q-54 0 -85 28.5t-61 118.5q-27 84 -56.5 113.5t-80.5 29.5q-67 0 -99 -86.5t-32 -271.5q0 -242 69 -365.5t203 -123.5q62 0 114.5 32t100.5 101l47 -25q-61 -143 -157 -215t-225 -72 q-199 0 -317 139.5t-118 376.5z" />
<glyph unicode="d" horiz-adv-x="1067" d="M66 465q0 261 117 435.5t282 174.5q63 0 117 -25t106 -79v141q0 108 -18.5 144.5t-67.5 50.5v43q94 20 169 64.5t128 111.5h49v-1323q0 -102 14 -130t52 -34v-39h-326v137q-88 -86 -158.5 -126t-136.5 -40q-150 0 -238.5 133t-88.5 361zM334 580q0 -206 55 -316t158 -110 q42 0 77 18.5t64 56.5v461q0 143 -50.5 222t-141.5 79q-83 0 -122.5 -101t-39.5 -310z" />
<glyph unicode="e" horiz-adv-x="1042" d="M57 522q0 237 133.5 395t329.5 158q191 0 308.5 -140.5t121.5 -375.5h-608q5 -194 85.5 -296.5t227.5 -102.5q80 0 147.5 32.5t129.5 100.5l39 -31q-86 -144 -195.5 -217.5t-238.5 -73.5q-214 0 -347 152.5t-133 398.5zM340 653h184q117 0 143.5 20.5t26.5 88.5 q0 112 -47.5 175.5t-130.5 63.5q-88 0 -132 -86.5t-44 -261.5z" />
<glyph unicode="f" horiz-adv-x="616" d="M0 944v105h160q-20 74 -29.5 131t-9.5 102q0 113 68 178.5t186 65.5q97 0 168 -56.5t71 -132.5q0 -37 -30 -66.5t-68 -29.5q-42 0 -71 29.5t-56 101.5q0 1 -1 3q-25 67 -54 67q-22 0 -36.5 -14.5t-14.5 -36.5q0 -34 126 -295q15 -31 23 -47h199v-105h-195v-741 q0 -102 14 -130t52 -34v-39h-408v39q39 6 53.5 35.5t14.5 146.5v723h-162z" />
<glyph unicode="g" horiz-adv-x="1118" d="M66 -221q0 54 54 102t181 103q-99 19 -150 55t-51 86t61 103t201 124q-116 52 -178.5 141t-62.5 201q0 160 129 270.5t317 110.5q78 0 148 -24t125 -70q60 61 108 88t94 27q47 0 81 -35t34 -84q0 -41 -25.5 -68.5t-62.5 -27.5q-41 0 -80 35.5t-47 35.5q-9 0 -20.5 -7 t-26.5 -21q43 -48 64.5 -108t21.5 -132q0 -158 -122 -263.5t-308 -105.5q-34 0 -58 2.5t-45 7.5q-38 -29 -53.5 -47.5t-15.5 -33.5q0 -30 125 -55q45 -9 72 -15l57 -12q254 -56 317 -92q68 -40 102.5 -94.5t34.5 -122.5q0 -130 -144 -217t-370 -87q-222 0 -364.5 66.5 t-142.5 163.5zM293 -197q0 -81 79.5 -129.5t217.5 -48.5q112 0 188 44t76 104q0 79 -388 165q-56 12 -87 19q-42 -32 -64 -71t-22 -83zM395 733q0 -175 39 -258.5t121 -83.5q78 0 115 67t37 212q0 167 -40 248t-122 81q-73 0 -111.5 -67.5t-38.5 -198.5z" />
<glyph unicode="h" horiz-adv-x="1067" d="M47 1307v43q94 20 169 64.5t128 111.5h49v-637q134 103 216.5 144.5t148.5 41.5q92 0 139 -57.5t47 -169.5v-645q0 -102 14 -130t52 -34v-39h-394v39q38 6 52 34t14 130v18v443q0 114 -27 164.5t-88 50.5q-27 0 -66.5 -12.5t-107.5 -43.5v-602q0 -117 14.5 -146.5 t53.5 -35.5v-39h-395v39q38 6 52.5 35.5t14.5 146.5v891q0 108 -18.5 144.5t-67.5 50.5z" />
<glyph unicode="i" horiz-adv-x="559" d="M61 895v41q93 20 168.5 65.5t128.5 112.5h64v-911q0 -102 14 -130t51 -34v-39h-407v39q39 6 53 35.5t14 146.5v477q0 109 -18.5 146t-67.5 51zM125 1366q0 66 47 113t113 47q68 0 114.5 -46.5t46.5 -113.5q0 -66 -47.5 -114t-113.5 -48q-65 0 -112.5 48.5t-47.5 113.5z " />
<glyph unicode="j" horiz-adv-x="559" d="M-133 -244q0 47 31.5 80t76.5 33q53 0 83 -37t38 -112q6 -54 18.5 -71.5t39.5 -17.5q19 0 31 17.5t12 46.5q0 17 -25 96t-25 146v761q0 109 -18.5 146t-67.5 51v41q93 20 168.5 65.5t128.5 112.5h64v-1032q0 -58 6 -147.5t6 -120.5q0 -116 -83 -190.5t-216 -74.5 q-115 0 -191.5 60t-76.5 147zM125 1366q0 66 47 113t113 47q68 0 114.5 -46.5t46.5 -113.5q0 -66 -47.5 -114t-113.5 -48q-65 0 -112.5 48.5t-47.5 113.5z" />
<glyph unicode="k" horiz-adv-x="1063" d="M47 1307v43q94 20 169 64.5t128 111.5h49v-994l182 207q76 87 103 130t27 71t-17 47t-43 23v39h381v-39h-10q-33 0 -65 -21t-99 -94l-184 -201l268 -514q34 -64 62 -94t65 -47v-39h-432v39q22 5 33.5 15.5t11.5 27.5q0 16 -13.5 51t-39.5 88l-138 279l-92 -109v-170 q0 -117 14.5 -146.5t53.5 -35.5v-39h-395v39q38 6 52.5 35.5t14.5 146.5v891q0 108 -18.5 144.5t-67.5 50.5z" />
<glyph unicode="l" horiz-adv-x="559" d="M57 1307v43q93 20 167.5 64.5t127.5 111.5h66v-1323q0 -102 14 -130t51 -34v-39h-407v39q37 6 51 34t14 130v18v891q0 110 -18 145.5t-66 49.5z" />
<glyph unicode="m" horiz-adv-x="1630" d="M47 856v43q98 25 169 69.5t114 106.5h49v-213q150 113 246.5 163t162.5 50q78 0 117 -42.5t39 -127.5v-43q159 120 247.5 166.5t154.5 46.5q79 0 120 -50.5t41 -147.5v-656q0 -117 14.5 -146.5t53.5 -35.5v-39h-381v39q39 6 53.5 35.5t14.5 146.5v531q0 59 -23 92t-63 33 q-37 0 -86 -17.5t-146 -66.5v-590q0 -102 14 -130t52 -34v-39h-379v39q37 6 51 34t14 130v18v492q0 97 -21 125t-77 28q-37 0 -91.5 -18.5t-127.5 -56.5v-570q0 -117 14.5 -146.5t52.5 -35.5v-39h-380v39q38 6 52.5 35.5t14.5 146.5v441q0 107 -18.5 143.5t-67.5 50.5z" />
<glyph unicode="n" horiz-adv-x="1071" d="M47 856v43q94 20 169 65t128 111h49v-192q130 101 222 147.5t159 46.5q99 0 136.5 -65.5t37.5 -282.5v-526q0 -102 14 -130t52 -34v-39h-393v39q38 6 52.5 35.5t14.5 146.5v484q0 107 -17.5 138t-66.5 31q-37 0 -87.5 -18t-123.5 -57v-578q0 -117 14.5 -146.5t53.5 -35.5 v-39h-395v39q38 6 52.5 35.5t14.5 146.5v441q0 107 -18.5 143.5t-67.5 50.5z" />
<glyph unicode="o" horiz-adv-x="1067" d="M57 528q0 230 142.5 389.5t347.5 159.5q200 0 331.5 -155.5t131.5 -397.5q0 -120 -45.5 -230t-128.5 -194q-66 -64 -142.5 -96.5t-161.5 -32.5q-86 0 -161 32.5t-140 96.5q-84 85 -129 195t-45 233zM356 524q0 -276 39.5 -376.5t136.5 -100.5q100 0 139.5 98.5 t39.5 378.5q0 281 -39.5 378t-139.5 97q-97 0 -136.5 -100t-39.5 -375z" />
<glyph unicode="p" horiz-adv-x="1071" d="M39 856v43q93 20 167 64.5t128 111.5h49v-157q86 78 165.5 117.5t149.5 39.5q140 0 224 -132t84 -355q0 -283 -112.5 -450t-299.5 -167q-64 0 -116 19t-95 57v-276q0 -117 14.5 -146.5t53.5 -36.5v-39h-394v39q38 8 52 35.5t14 128.5v19v891q0 110 -18.5 145.5 t-65.5 48.5zM385 436q0 -209 41.5 -297t136.5 -88q92 0 134 94.5t42 298.5q0 244 -45.5 343.5t-152.5 99.5q-47 0 -85.5 -16t-70.5 -48v-387z" />
<glyph unicode="q" horiz-adv-x="1071" d="M66 455q0 275 124 447.5t316 172.5q82 0 158 -36t149 -109l80 145h51v-1323q0 -101 14 -128.5t52 -35.5v-39h-394v39q38 8 52 35.5t14 128.5v19v333q-89 -68 -160.5 -100.5t-132.5 -32.5q-149 0 -236 130t-87 354zM336 580q0 -226 48.5 -336.5t147.5 -110.5q42 0 80 15 t70 45v466q0 181 -40 261.5t-128 80.5q-93 0 -135.5 -100t-42.5 -321z" />
<glyph unicode="r" horiz-adv-x="868" d="M61 856v43q94 20 169 65t128 111h64v-201q80 102 146.5 151.5t123.5 49.5q65 0 109.5 -43.5t44.5 -107.5q0 -71 -43 -116.5t-109 -45.5q-29 0 -81.5 26.5t-82.5 26.5q-60 0 -84 -43t-24 -174v-395q0 -102 14 -130t51 -34v-39h-407v39q39 6 53 35.5t14 146.5v441 q0 107 -18.5 143.5t-67.5 50.5z" />
<glyph unicode="s" horiz-adv-x="948" d="M57 100l86 277l54 -23q40 -142 123 -224.5t184 -82.5q60 0 101.5 43t41.5 105q0 55 -31.5 94.5t-119.5 85.5q-31 15 -88 44q-314 155 -314 329q0 142 109.5 234.5t283.5 92.5q87 0 174 -31t173 -92l-72 -229l-49 16q-39 121 -110 189.5t-157 68.5q-61 0 -98 -35.5 t-37 -95.5q0 -73 169 -161l10 -5l16 -8q387 -198 387 -373q0 -150 -112.5 -249t-282.5 -99q-91 0 -197 31t-244 98z" />
<glyph unicode="t" horiz-adv-x="688" d="M25 889v72q98 58 181 177t154 304h76v-449h223v-104h-223v-635q0 -68 18 -96.5t58 -28.5q22 0 44.5 13t51.5 44l43 -32q-51 -89 -119.5 -136t-146.5 -47q-113 0 -168 60.5t-55 183.5v674h-137z" />
<glyph unicode="u" horiz-adv-x="1053" d="M47 895v41q92 20 167.5 65.5t129.5 112.5h49v-813q0 -70 23.5 -103.5t72.5 -33.5q47 0 93.5 19t85.5 55v460q0 112 -19 148t-65 49v41q91 20 165.5 65t129.5 113h51v-911q0 -102 14 -130t51 -34v-39h-327v162q-112 -96 -201.5 -143.5t-159.5 -47.5q-89 0 -131.5 46.5 t-42.5 144.5v536q0 109 -19 146t-67 51z" />
<glyph unicode="v" horiz-adv-x="963" d="M0 1010v39h403v-39q-25 -12 -37 -29t-12 -43q0 -12 4.5 -36t12.5 -52l166 -576l168 490q13 38 19.5 70t6.5 57q0 47 -23.5 79.5t-62.5 39.5v39h318v-39q-38 -11 -68 -58t-88 -217l-262 -753h-166l-262 825q-30 95 -57.5 143t-59.5 60z" />
<glyph unicode="w" horiz-adv-x="1464" d="M0 1010v39h393v-39q-15 -10 -24 -27t-9 -39q0 -10 2.5 -24.5t6.5 -28.5l161 -584l140 524l-4 25q-10 60 -33.5 95t-69.5 59v39h389v-39q-23 -11 -33 -24.5t-10 -37.5q0 -14 3.5 -36t9.5 -44l155 -561l143 499q8 24 11.5 47t3.5 46q0 35 -15 62.5t-44 48.5v39h288v-39 q-38 -16 -69 -65t-58 -136l-252 -823h-155l-203 678l-186 -678h-158l-279 858q-25 78 -50.5 118t-53.5 48z" />
<glyph unicode="x" horiz-adv-x="999" d="M0 0v39h4q34 0 91 54t138 163l158 213l-231 375q-49 79 -82 117.5t-60 48.5v39h428v-39q-18 -5 -28 -19.5t-10 -36.5q0 -16 13 -45.5t38 -70.5l90 -152l72 94q43 57 56 85.5t13 56.5q0 33 -15.5 57.5t-41.5 30.5v39h340v-39q-30 -6 -70 -43.5t-104 -122.5l-191 -250 l266 -440q40 -65 66 -87.5t59 -27.5v-39h-440v38q22 6 33.5 18t11.5 30q0 14 -10.5 37.5t-34.5 62.5l-113 189l-81 -117q-28 -40 -42 -75t-14 -64q0 -35 14 -58.5t42 -35.5v-25h-365z" />
<glyph unicode="y" horiz-adv-x="977" d="M0 1010v39h418v-39q-28 -13 -39.5 -28.5t-11.5 -39.5q0 -15 3.5 -32.5t10.5 -37.5l188 -569l138 443q9 30 13.5 64.5t4.5 70.5q0 44 -18 76t-54 53v39h324v-39q-44 -18 -81.5 -77.5t-70.5 -162.5l-247 -780q-80 -250 -158.5 -345.5t-194.5 -95.5q-92 0 -151.5 51.5 t-59.5 129.5q0 63 42 105t106 42q47 0 79.5 -33t32.5 -82q0 -1 -1 -7t-1 -11q0 -25 7 -38t20 -13q22 0 43 28.5t47 94.5l49 127l-303 862q-36 102 -69 152t-66 53z" />
<glyph unicode="z" horiz-adv-x="991" d="M-18 0l634 944h-57q-159 0 -231.5 -42.5t-143.5 -149.5l-57 22l59 275h777v-39l-611 -904l47 -2h88q149 0 241 51t175 177l45 -17l-51 -315h-915z" />
<glyph unicode="{" horiz-adv-x="1024" d="M178 598v76q156 15 212 76.5t56 226.5v192q0 201 85.5 274t320.5 73v-61q-121 -3 -165 -55t-44 -210v-133q0 -225 -53.5 -307t-196.5 -115q143 -32 196.5 -113t53.5 -307v-135q0 -158 44 -210t165 -55v-59q-235 0 -320.5 72.5t-85.5 273.5v193q0 165 -56 226.5t-212 76.5 z" />
<glyph unicode="|" horiz-adv-x="1024" d="M410 -483v2048h206v-2048h-206z" />
<glyph unicode="}" horiz-adv-x="1024" d="M172 -185q119 2 164 55t45 210v135q0 226 53.5 307t196.5 113q-143 33 -196.5 115t-53.5 307v133q0 156 -45 209.5t-164 55.5v61q236 0 322 -73t86 -274v-192q0 -165 56 -226.5t212 -76.5v-76q-156 -15 -212 -76.5t-56 -226.5v-193q0 -198 -85 -272t-311 -74h-12v59z" />
<glyph unicode="~" horiz-adv-x="1706" d="M178 418v221q107 72 204 107.5t183 35.5q117 0 291 -58q3 -1 4 -1q18 -6 55 -19q155 -55 240 -55t175 37t200 117v-221q-104 -71 -196.5 -104.5t-182.5 -33.5q-46 0 -92 8t-92 23q-24 8 -71 25q-219 75 -333 75q-85 0 -177.5 -37.5t-207.5 -119.5z" />
<glyph unicode="&#xa0;" />
<glyph unicode="&#xa1;" horiz-adv-x="592" d="M100 199q0 34 4 69.5t11 67.5l153 700h56l153 -700q7 -32 11 -67.5t4 -69.5q0 -107 -52.5 -167.5t-144.5 -60.5t-143.5 60t-51.5 168zM111 1341q0 77 54 131t130 54q72 0 129 -56.5t57 -128.5q0 -74 -55 -129t-131 -55q-78 0 -131 53t-53 131z" />
<glyph unicode="&#xa2;" d="M182 680q0 244 100.5 397.5t280.5 188.5v90h101v-82q140 -10 232.5 -85t92.5 -173q0 -48 -32 -80.5t-78 -32.5q-49 0 -80 25.5t-51 83.5q-5 13 -13 38q-32 97 -71 126v-818q19 -6 36.5 -9t36.5 -3q62 0 115.5 33t101.5 100l47 -24q-54 -128 -140 -200.5t-197 -84.5v-127 h-101v127q-184 28 -282.5 160t-98.5 350zM442 819q0 -152 30 -252t91 -153v772q-64 -18 -92.5 -103t-28.5 -264z" />
<glyph unicode="&#xa3;" d="M113 0v174q159 33 254.5 105.5t95.5 156.5q0 33 -13 62.5t-38 56.5h-258v104h196q-109 107 -162 205.5t-53 196.5q0 186 130.5 300t346.5 114q98 0 196 -32t198 -95l-60 -248l-55 16q-53 141 -127 209t-176 68q-95 0 -153 -56.5t-58 -146.5q0 -79 115 -231q9 -13 14 -19 q10 -14 31 -40q129 -167 147 -241h240v-104h-224v-14q0 -99 -57 -175t-172 -128h258q118 0 195 38t133 123l39 -16l-99 -383h-884z" />
<glyph unicode="&#xa4;" horiz-adv-x="1241" d="M68 438l202 205q-38 54 -56.5 113.5t-18.5 128.5q0 67 18.5 127.5t56.5 113.5l-202 205l104 107l205 -203q54 39 114 58.5t130 19.5t131.5 -19.5t115.5 -58.5l203 203l105 -107l-203 -205q38 -53 57 -113.5t19 -127.5t-19 -127t-57 -115l203 -205l-105 -104l-203 203 q-54 -40 -115 -59t-130 -19q-72 0 -132.5 19t-113.5 59l-205 -203zM346 885q0 -114 81 -194.5t196 -80.5q113 0 194.5 80.5t81.5 194.5q0 112 -81.5 194t-194.5 82t-195 -82t-82 -194z" />
<glyph unicode="&#xa5;" d="M0 1405v37h489v-37q-28 -8 -45.5 -28.5t-17.5 -47.5q0 -17 7 -39t32 -73l233 -510l146 378q26 70 38.5 118.5t12.5 82.5q0 39 -21.5 73t-54.5 46v37h367v-37q-52 -15 -112 -95.5t-111 -205.5l-64 -156h229v-86h-264l-80 -198h344v-86h-378v-396q0 -72 19 -101.5t71 -43.5 v-37h-486v37q52 14 72 45t20 100v396h-389v86h365l-100 198h-265v86h224l-148 297q-33 67 -70.5 111t-62.5 49z" />
<glyph unicode="&#xa6;" horiz-adv-x="1024" d="M410 -350v758h206v-758h-206zM410 674v758h206v-758h-206z" />
<glyph unicode="&#xa7;" horiz-adv-x="1024" d="M84 711q0 108 76 179t202 79q-90 72 -135 141.5t-45 136.5q0 128 87.5 203.5t236.5 75.5q97 0 186 -30.5t174 -92.5l-69 -213l-47 16q-38 123 -104 190.5t-148 67.5q-54 0 -88.5 -34.5t-34.5 -88.5q0 -86 180 -239q24 -20 37 -31l176 -151q84 -72 129 -151t45 -153 q0 -104 -79 -174.5t-204 -76.5q87 -64 131 -137t44 -154q0 -118 -95 -192.5t-245 -74.5q-80 0 -171 31t-208 96l73 263l48 -21q33 -141 105 -224t159 -83q64 0 106.5 40.5t42.5 100.5q0 75 -148 197q-38 31 -59 49l-184 156q-89 77 -131.5 149.5t-42.5 149.5zM262 793 q0 -48 29 -94t98 -107q9 -8 25 -22q157 -140 221 -140q55 0 92 37.5t37 91.5q0 38 -25.5 77.5t-107.5 117.5q-85 80 -141 114.5t-99 34.5q-56 0 -92.5 -31.5t-36.5 -78.5z" />
<glyph unicode="&#xa8;" horiz-adv-x="1024" d="M209 1352q0 48 36 83t85 35t84 -34.5t35 -83.5q0 -54 -33.5 -88.5t-85.5 -34.5q-51 0 -86 35.5t-35 87.5zM573 1352q0 48 36 83t85 35t84 -34.5t35 -83.5q0 -54 -33.5 -88.5t-85.5 -34.5q-51 0 -86 35.5t-35 87.5z" />
<glyph unicode="&#xa9;" horiz-adv-x="1683" d="M111 678q0 148 54.5 281.5t158.5 236.5q103 104 239 160.5t281 56.5q141 0 275.5 -56t238.5 -159q102 -102 159.5 -239.5t57.5 -280.5t-56.5 -277.5t-160.5 -240.5q-102 -104 -235 -158.5t-281 -54.5t-279 54t-237 159q-105 104 -160 237t-55 281zM217 678 q0 -128 46.5 -242t135.5 -203q90 -89 202 -135.5t241 -46.5q127 0 240 47t200 135q89 91 136.5 206t47.5 239q0 127 -47.5 244t-134.5 202q-87 88 -203 136.5t-237 48.5q-127 0 -241.5 -48t-203.5 -139q-89 -90 -135.5 -204t-46.5 -240zM410 664q0 191 121 316.5t305 125.5 q79 0 153 -33t80 -33q24 0 37.5 15t19.5 47h45v-326h-47q-31 131 -100 202t-164 71q-118 0 -175.5 -90.5t-57.5 -274.5q0 -185 62.5 -281t182.5 -96q80 0 148.5 44t124.5 130l45 -28q-63 -107 -150.5 -161t-197.5 -54q-185 0 -308.5 122.5t-123.5 303.5z" />
<glyph unicode="&#xaa;" horiz-adv-x="782" d="M43 915q0 58 35 111t100 92q42 25 144 65.5t149 61.5v90q0 68 -20.5 96.5t-67.5 28.5q-36 0 -55 -19.5t-29 -70.5q-18 -79 -41.5 -105t-67.5 -26q-41 0 -69.5 26.5t-28.5 65.5q0 72 87 127t208 55q144 0 211.5 -52t67.5 -165v-352q0 -49 9.5 -69.5t33.5 -20.5 q10 0 20 3.5t20 10.5l29 -28q-46 -48 -97.5 -74.5t-98.5 -26.5q-51 0 -78 28t-33 87q-76 -57 -139 -86t-113 -29q-76 0 -126 50.5t-50 125.5zM244 973q0 -48 28.5 -76.5t77.5 -28.5q31 0 62 13.5t59 38.5v268q-122 -52 -174.5 -102.5t-52.5 -112.5z" />
<glyph unicode="&#xab;" horiz-adv-x="891" d="M94 524q104 95 179.5 194.5t123.5 207.5l54 -19q-14 -98 -46 -194t-83 -189q50 -92 82.5 -188.5t46.5 -196.5l-54 -18q-49 109 -124.5 209.5t-178.5 193.5zM426 524q104 95 179 194.5t124 207.5l53 -19q-13 -98 -45 -194t-84 -189q51 -92 83.5 -188.5t45.5 -196.5 l-53 -18q-49 109 -124.5 209.5t-178.5 193.5z" />
<glyph unicode="&#xac;" horiz-adv-x="1706" d="M254 668v196h1198v-502h-199v306h-999z" />
<glyph unicode="&#xad;" horiz-adv-x="692" d="M57 426v209h578v-209h-578z" />
<glyph unicode="&#xae;" horiz-adv-x="1683" d="M111 678q0 146 55 280t158 238q102 104 237.5 160.5t282.5 56.5q145 0 284 -59.5t242 -165.5q98 -101 150.5 -236.5t52.5 -285.5q0 -139 -61 -277t-171 -244q-99 -96 -227.5 -147t-271.5 -51q-110 0 -211.5 30.5t-190.5 90.5q-157 104 -243 263.5t-86 346.5zM217 678 q0 -128 46.5 -242t135.5 -203q90 -89 202 -135.5t241 -46.5q127 0 240 47t200 135q89 91 136.5 206t47.5 239q0 125 -48.5 243t-135.5 203q-88 88 -202.5 136.5t-235.5 48.5q-126 0 -241.5 -48.5t-203.5 -138.5q-89 -90 -135.5 -204t-46.5 -240zM465 285v50q61 4 83.5 24 t22.5 69v522q0 49 -22.5 69.5t-83.5 25.5v53h403q146 0 234 -55.5t88 -143.5q0 -86 -64.5 -134.5t-214.5 -74.5q95 -22 149 -69.5t70 -124.5q6 -25 10 -74q5 -84 46 -84q28 0 42.5 29.5t14.5 87.5v12h51v-23q0 -88 -44 -134t-128 -46q-47 0 -82.5 14t-56.5 41 q-28 40 -33 134q-2 45 -6 67q-14 79 -54 116.5t-112 37.5h-18v-246q0 -46 20 -65t78 -27v-51h-393zM760 723q7 -1 16 -1.5t27 -0.5q96 0 144 45t48 135q0 60 -43 103t-106 43q-44 0 -65 -16.5t-21 -49.5v-258z" />
<glyph unicode="&#xaf;" horiz-adv-x="1024" d="M236 1276v147h552v-147h-552z" />
<glyph unicode="&#xb0;" horiz-adv-x="674" d="M35 1159q0 127 88.5 216t214.5 89t214.5 -89.5t88.5 -215.5q0 -125 -89 -214t-216 -89q-126 0 -213.5 88t-87.5 215zM162 1161q0 -74 51 -125t125 -51q72 0 123 52t51 124t-51 123t-123 51q-73 0 -124.5 -51t-51.5 -123z" />
<glyph unicode="&#xb1;" horiz-adv-x="1706" d="M254 -2v199h1198v-199h-1198zM254 698v199h498v326h202v-326h498v-199h-498v-325h-202v325h-498z" />
<glyph unicode="&#xb2;" horiz-adv-x="782" d="M25 575v5l10 24q25 67 77.5 136t170.5 180l16 15q188 182 188 314q0 75 -31 119.5t-83 44.5q-45 0 -68 -26t-35 -99q-9 -58 -34 -86t-68 -28q-40 0 -63 22.5t-23 63.5q0 81 89 140.5t216 59.5q134 0 222.5 -73t88.5 -183q0 -51 -16.5 -91.5t-52.5 -80.5 q-48 -52 -236 -148q-55 -27 -84 -42q-41 -22 -79.5 -54t-69.5 -69h270q79 0 128.5 22.5t86.5 73.5l27 -10l-64 -230h-583z" />
<glyph unicode="&#xb3;" horiz-adv-x="782" d="M66 729q0 34 25.5 57t64.5 23q41 0 67.5 -22t52.5 -89q21 -52 44 -73t59 -21q53 0 80.5 44.5t27.5 129.5q0 112 -51.5 165.5t-159.5 53.5h-8v50q103 6 151 52t48 138q0 87 -26 131.5t-76 44.5q-44 0 -67.5 -24.5t-35.5 -85.5q-13 -60 -33.5 -80.5t-58.5 -20.5t-63 23.5 t-25 60.5q0 71 83 122.5t204 51.5q127 0 211 -60t84 -149q0 -72 -46.5 -124.5t-134.5 -79.5q105 -22 163.5 -83t58.5 -149q0 -116 -93 -188t-245 -72q-133 0 -217 49.5t-84 124.5z" />
<glyph unicode="&#xb4;" horiz-adv-x="1024" d="M317 1188l273 280q42 44 73.5 63t61.5 19q40 0 65 -25t25 -65q0 -32 -19 -55t-75 -53l-313 -164h-91z" />
<glyph unicode="&#xb5;" horiz-adv-x="1202" d="M-121 -309q0 47 68 274t106 408l109 512h256l-99 -459q-11 -53 -16.5 -89t-5.5 -58q0 -59 30.5 -92t84.5 -33q71 0 116 53t68 166l109 512h256l-115 -533q-9 -41 -13 -66.5t-4 -43.5q0 -47 17.5 -67.5t56.5 -20.5q40 0 66 18t45 59q8 19 21 50q27 69 55 69q15 0 23.5 -10 t8.5 -29q0 -34 -16.5 -88.5t-42.5 -101.5q-41 -74 -99 -110t-137 -36q-85 0 -129.5 48t-54.5 151q-40 -106 -98.5 -152.5t-149.5 -46.5q-93 0 -149.5 61t-67.5 173q-12 -95 -29 -252q-40 -381 -155 -381q-54 0 -84.5 30.5t-30.5 84.5z" />
<glyph unicode="&#xb6;" horiz-adv-x="1024" d="M41 1130q0 158 107 253.5t284 95.5h551v-111h-113v-1368h-151v1368h-158v-1368h-153v784q-167 6 -267 101t-100 245z" />
<glyph unicode="&#xb7;" horiz-adv-x="592" d="M111 735q0 75 55 130t131 55q77 0 130.5 -53.5t53.5 -131.5q0 -75 -54.5 -129.5t-129.5 -54.5q-74 0 -130 55.5t-56 128.5z" />
<glyph unicode="&#xb8;" horiz-adv-x="1024" d="M262 -375l41 88q73 -39 129.5 -56t108.5 -17q49 0 72.5 21.5t23.5 66.5q0 37 -27 59.5t-73 22.5q-8 0 -37 -5q-15 -2 -25 -3v198h70v-112q16 2 32.5 3.5t32.5 2.5q86 0 136.5 -46t50.5 -124q0 -86 -60.5 -133.5t-169.5 -47.5q-55 0 -123.5 18t-181.5 64z" />
<glyph unicode="&#xb9;" horiz-adv-x="782" d="M217 1309v24q75 28 134.5 60t103.5 67h39v-770q0 -44 14 -64t49 -28v-23h-326v23q35 8 48.5 27.5t13.5 64.5v522q0 46 -17 67.5t-59 29.5z" />
<glyph unicode="&#xba;" horiz-adv-x="801" d="M43 1130q0 161 107 272t260 111q150 0 249 -109t99 -278q0 -83 -34 -160t-97 -137q-49 -44 -107 -67t-121 -23q-64 0 -120.5 23t-104.5 67q-64 61 -97.5 138t-33.5 163zM268 1126q0 -194 29 -263.5t102 -69.5q75 0 104 68t29 265q0 199 -29 266.5t-104 67.5 q-72 0 -101.5 -70t-29.5 -264z" />
<glyph unicode="&#xbb;" horiz-adv-x="891" d="M109 139q13 104 45.5 200.5t83.5 184.5q-51 90 -83.5 185.5t-45.5 197.5l53 19q49 -108 124 -207.5t179 -194.5q-103 -93 -178.5 -193.5t-124.5 -209.5zM440 139q14 104 46.5 200.5t82.5 184.5q-51 90 -83 185.5t-46 197.5l54 19q48 -108 123.5 -207.5t179.5 -194.5 q-103 -93 -178.5 -193.5t-124.5 -209.5z" />
<glyph unicode="&#xbc;" horiz-adv-x="1835" d="M207 1317v24q72 25 129 54t98 63h35v-719q0 -40 13.5 -58t47.5 -26v-22h-311v22q33 7 46.5 25t13.5 59v490q0 42 -16 61t-56 27zM406 18l929 1457l95 -54l-928 -1454zM1135 195v71l403 551h113v-530h127v-92h-127v-89q0 -41 13.5 -59t45.5 -25v-22h-305v22q32 7 45.5 25 t13.5 59v89h-329zM1245 287h219l4 317z" />
<glyph unicode="&#xbd;" horiz-adv-x="1835" d="M207 1317v24q72 25 129 54t98 63h35v-719q0 -40 13.5 -58t47.5 -26v-22h-311v22q33 7 46.5 25t13.5 59v490q0 42 -16 61t-56 27zM406 18l929 1457l95 -54l-928 -1454zM1112 0v4l10 23q27 66 81 133.5t157 161.5l13 12q181 171 181 295q0 69 -29.5 110t-78.5 41 q-43 0 -65 -23t-33 -91q-10 -55 -34 -82t-65 -27q-36 0 -59 22t-23 58q0 76 86 132t207 56q128 0 212.5 -67.5t84.5 -169.5q0 -48 -16 -86.5t-51 -75.5q-46 -48 -221 -136q-55 -27 -84 -42q-37 -19 -74.5 -48.5t-69.5 -66.5h258q74 0 122.5 21t84.5 69l25 -8l-60 -215h-559z " />
<glyph unicode="&#xbe;" horiz-adv-x="1837" d="M61 776q0 32 25 53t61 21q41 0 67 -21t50 -81q19 -50 41 -69.5t57 -19.5q50 0 76.5 41.5t26.5 120.5q0 104 -49.5 154.5t-151.5 50.5h-8v47q98 5 144 48.5t46 129.5q0 80 -25.5 121t-74.5 41q-41 0 -62.5 -22t-33.5 -78q-11 -55 -30.5 -74.5t-57.5 -19.5 q-37 0 -60.5 21.5t-23.5 55.5q0 66 79.5 114t194.5 48q123 0 202 -55.5t79 -138.5q0 -68 -44.5 -117.5t-127.5 -75.5q99 -18 155 -75.5t56 -139.5q0 -108 -88.5 -175t-233.5 -67q-127 0 -208 46t-81 116zM406 18l929 1457l95 -54l-928 -1454zM1135 195v71l403 551h113v-530 h127v-92h-127v-89q0 -41 13.5 -59t45.5 -25v-22h-305v22q32 7 45.5 25t13.5 59v89h-329zM1245 287h219l4 317z" />
<glyph unicode="&#xbf;" horiz-adv-x="981" d="M61 434q0 188 126 304.5t354 138.5l14 176h96v-443q-150 -6 -242 -96.5t-92 -230.5q0 -102 49.5 -165t127.5 -63q62 0 104.5 33.5t56.5 93.5q5 19 11 54q14 76 28 102q20 37 50.5 57.5t66.5 20.5q66 0 110 -42.5t44 -105.5q0 -117 -122.5 -207t-293.5 -90 q-217 0 -352.5 129t-135.5 334zM406 1341q0 77 54 131t130 54q72 0 128 -56t56 -129q0 -74 -54.5 -129t-129.5 -55q-79 0 -131.5 53t-52.5 131z" />
<glyph unicode="&#xc0;" horiz-adv-x="1280" d="M0 0v39q59 22 106.5 96.5t86.5 204.5l333 1153h283l328 -1174q42 -153 73.5 -213t69.5 -68v-38h-483v39q26 12 39.5 30.5t13.5 41.5q0 16 -2.5 34t-7.5 39l-56 205h-450l-21 -74q-10 -35 -15 -65.5t-5 -52.5q0 -56 27.5 -95.5t82.5 -62.5v-39h-403zM363 1911q0 40 25 65 t65 25q30 0 61.5 -19t73.5 -63l273 -280h-91l-313 164q-56 30 -75 53t-19 55zM369 512h383l-187 688z" />
<glyph unicode="&#xc1;" horiz-adv-x="1280" d="M0 0v39q59 22 106.5 96.5t86.5 204.5l333 1153h283l328 -1174q42 -153 73.5 -213t69.5 -68v-38h-483v39q26 12 39.5 30.5t13.5 41.5q0 16 -2.5 34t-7.5 39l-56 205h-450l-21 -74q-10 -35 -15 -65.5t-5 -52.5q0 -56 27.5 -95.5t82.5 -62.5v-39h-403zM369 512h383l-187 688 zM471 1639l273 280q42 44 73.5 63t61.5 19q40 0 65 -25t25 -65q0 -32 -19 -55t-75 -53l-313 -164h-91z" />
<glyph unicode="&#xc2;" horiz-adv-x="1280" d="M0 0v39q59 22 106.5 96.5t86.5 204.5l333 1153h283l328 -1174q42 -153 73.5 -213t69.5 -68v-38h-483v39q26 12 39.5 30.5t13.5 41.5q0 16 -2.5 34t-7.5 39l-56 205h-450l-21 -74q-10 -35 -15 -65.5t-5 -52.5q0 -56 27.5 -95.5t82.5 -62.5v-39h-403zM367 1639l225 348h148 l225 -348h-84l-215 178l-215 -178h-84zM369 512h383l-187 688z" />
<glyph unicode="&#xc3;" horiz-adv-x="1280" d="M0 0v39q59 22 106.5 96.5t86.5 204.5l333 1153h283l328 -1174q42 -153 73.5 -213t69.5 -68v-38h-483v39q26 12 39.5 30.5t13.5 41.5q0 16 -2.5 34t-7.5 39l-56 205h-450l-21 -74q-10 -35 -15 -65.5t-5 -52.5q0 -56 27.5 -95.5t82.5 -62.5v-39h-403zM369 512h383l-187 688 zM375 1670q17 123 69.5 184t141.5 61q19 0 34.5 -2t29.5 -6l109 -27q9 -2 19.5 -4t18.5 -2q32 0 54 20.5t38 65.5h66q-14 -117 -68 -182t-137 -65q-17 0 -52 7q-3 0 -5 1l-105 28q-14 4 -29 6.5t-28 2.5q-31 0 -52.5 -21t-37.5 -67h-66z" />
<glyph unicode="&#xc4;" horiz-adv-x="1280" d="M0 0v39q59 22 106.5 96.5t86.5 204.5l333 1153h283l328 -1174q42 -153 73.5 -213t69.5 -68v-38h-483v39q26 12 39.5 30.5t13.5 41.5q0 16 -2.5 34t-7.5 39l-56 205h-450l-21 -74q-10 -35 -15 -65.5t-5 -52.5q0 -56 27.5 -95.5t82.5 -62.5v-39h-403zM363 1803q0 48 36 83 t85 35t84 -34.5t35 -83.5q0 -54 -33.5 -88.5t-85.5 -34.5q-51 0 -86 35.5t-35 87.5zM369 512h383l-187 688zM727 1803q0 48 36 83t85 35t84 -34.5t35 -83.5q0 -54 -33.5 -88.5t-85.5 -34.5q-51 0 -86 35.5t-35 87.5z" />
<glyph unicode="&#xc5;" horiz-adv-x="1280" d="M0 0v37q58 21 106 95t87 202l329 1108h293l322 -1129q43 -154 74.5 -212.5t68.5 -64.5v-36h-483v37q26 12 39.5 30.5t13.5 41.5q0 15 -2.5 32.5t-7.5 38.5l-56 201h-450l-21 -72q-10 -36 -15 -65.5t-5 -50.5q0 -56 28 -95.5t82 -60.5v-37h-403zM369 502h383l-187 674z M436 1741q0 97 67.5 164t164.5 67q98 0 165.5 -67t67.5 -164q0 -99 -67.5 -166.5t-165.5 -67.5t-165 67.5t-67 166.5zM545 1739q0 -52 35 -87.5t88 -35.5q52 0 87.5 35.5t35.5 87.5t-35.5 88.5t-87.5 36.5q-51 0 -87 -36.5t-36 -88.5z" />
<glyph unicode="&#xc6;" horiz-adv-x="1991" d="M0 0v39q66 29 124 101.5t116 199.5l518 1153h1079l57 -322l-51 -24q-80 111 -191.5 167t-250.5 56q-120 0 -160.5 -32t-40.5 -128v-309h105q150 0 232 38t118 124h51v-447h-51q-28 87 -109.5 124.5t-247.5 37.5h-98v-510q0 -94 35 -119.5t166 -25.5q159 0 285 49t233 154 l55 -29l-94 -297h-1108v39q54 14 75 46.5t21 104.5v199h-471l-51 -113q-17 -34 -25 -59.5t-8 -46.5q0 -46 22 -77.5t68 -53.5v-39h-403zM453 512h415v858h-30z" />
<glyph unicode="&#xc7;" horiz-adv-x="1374" d="M76 743q0 162 50 311t136 246q102 116 228 171t290 55q132 0 249 -41t212 -121l-104 -299l-52 8q-40 163 -139 258.5t-225 95.5q-134 0 -211.5 -131.5t-77.5 -359.5q0 -343 112.5 -539t305.5 -196q125 0 227.5 61t161.5 172l68 -20q-79 -211 -235 -329t-355 -118 q-104 0 -198 33t-171 96q-133 110 -202.5 275t-69.5 372zM444 -375l41 88q73 -39 129.5 -56t108.5 -17q49 0 72.5 21.5t23.5 66.5q0 37 -27 59.5t-73 22.5q-8 0 -37 -5q-15 -2 -25 -3v198h70v-112q16 2 32.5 3.5t32.5 2.5q86 0 136.5 -46t50.5 -124q0 -86 -60.5 -133.5 t-169.5 -47.5q-55 0 -123.5 18t-181.5 64z" />
<glyph unicode="&#xc8;" horiz-adv-x="1284" d="M66 0v39q53 14 74.5 46.5t21.5 104.5v1115q0 72 -21.5 104.5t-74.5 46.5v37h1064l58 -322l-51 -24q-80 111 -191.5 167t-251.5 56q-120 0 -160 -32t-40 -128v-309h106q150 0 231 38t117 124h51v-447h-51q-27 87 -108.5 124.5t-247.5 37.5h-98v-510q0 -94 34.5 -119.5 t165.5 -25.5q159 0 285 49t233 154l56 -29l-94 -297h-1108zM330 1911q0 40 25 65t65 25q30 0 61.5 -19t73.5 -63l273 -280h-91l-313 164q-56 30 -75 53t-19 55z" />
<glyph unicode="&#xc9;" horiz-adv-x="1284" d="M66 0v39q53 14 74.5 46.5t21.5 104.5v1115q0 72 -21.5 104.5t-74.5 46.5v37h1064l58 -322l-51 -24q-80 111 -191.5 167t-251.5 56q-120 0 -160 -32t-40 -128v-309h106q150 0 231 38t117 124h51v-447h-51q-27 87 -108.5 124.5t-247.5 37.5h-98v-510q0 -94 34.5 -119.5 t165.5 -25.5q159 0 285 49t233 154l56 -29l-94 -297h-1108zM438 1639l273 280q42 44 73.5 63t61.5 19q40 0 65 -25t25 -65q0 -32 -19 -55t-75 -53l-313 -164h-91z" />
<glyph unicode="&#xca;" horiz-adv-x="1284" d="M66 0v39q53 14 74.5 46.5t21.5 104.5v1115q0 72 -21.5 104.5t-74.5 46.5v37h1064l58 -322l-51 -24q-80 111 -191.5 167t-251.5 56q-120 0 -160 -32t-40 -128v-309h106q150 0 231 38t117 124h51v-447h-51q-27 87 -108.5 124.5t-247.5 37.5h-98v-510q0 -94 34.5 -119.5 t165.5 -25.5q159 0 285 49t233 154l56 -29l-94 -297h-1108zM334 1639l225 348h148l225 -348h-84l-215 178l-215 -178h-84z" />
<glyph unicode="&#xcb;" horiz-adv-x="1284" d="M66 0v39q53 14 74.5 46.5t21.5 104.5v1115q0 72 -21.5 104.5t-74.5 46.5v37h1064l58 -322l-51 -24q-80 111 -191.5 167t-251.5 56q-120 0 -160 -32t-40 -128v-309h106q150 0 231 38t117 124h51v-447h-51q-27 87 -108.5 124.5t-247.5 37.5h-98v-510q0 -94 34.5 -119.5 t165.5 -25.5q159 0 285 49t233 154l56 -29l-94 -297h-1108zM330 1803q0 48 36 83t85 35t84 -34.5t35 -83.5q0 -54 -33.5 -88.5t-85.5 -34.5q-51 0 -86 35.5t-35 87.5zM694 1803q0 48 36 83t85 35t84 -34.5t35 -83.5q0 -54 -33.5 -88.5t-85.5 -34.5q-51 0 -86 35.5t-35 87.5z " />
<glyph unicode="&#xcc;" horiz-adv-x="696" d="M45 1911q0 40 25 65t65 25q30 0 61.5 -19t73.5 -63l273 -280h-91l-313 164q-56 30 -75 53t-19 55zM80 0v39q53 14 74.5 46.5t21.5 104.5v1115q0 41 -4 62.5t-14 37.5q-11 18 -30 30.5t-48 20.5v37h536v-37q-52 -14 -73 -45.5t-21 -105.5v-1115q0 -73 21 -105t73 -46v-39 h-536z" />
<glyph unicode="&#xcd;" horiz-adv-x="696" d="M80 0v39q53 14 74.5 46.5t21.5 104.5v1115q0 41 -4 62.5t-14 37.5q-11 18 -30 30.5t-48 20.5v37h536v-37q-52 -14 -73 -45.5t-21 -105.5v-1115q0 -73 21 -105t73 -46v-39h-536zM153 1639l273 280q42 44 73.5 63t61.5 19q40 0 65 -25t25 -65q0 -32 -19 -55t-75 -53 l-313 -164h-91z" />
<glyph unicode="&#xce;" horiz-adv-x="696" d="M49 1639l225 348h148l225 -348h-84l-215 178l-215 -178h-84zM80 0v39q53 14 74.5 46.5t21.5 104.5v1115q0 41 -4 62.5t-14 37.5q-11 18 -30 30.5t-48 20.5v37h536v-37q-52 -14 -73 -45.5t-21 -105.5v-1115q0 -73 21 -105t73 -46v-39h-536z" />
<glyph unicode="&#xcf;" horiz-adv-x="696" d="M45 1803q0 48 36 83t85 35t84 -34.5t35 -83.5q0 -54 -33.5 -88.5t-85.5 -34.5q-51 0 -86 35.5t-35 87.5zM80 0v39q53 14 74.5 46.5t21.5 104.5v1115q0 41 -4 62.5t-14 37.5q-11 18 -30 30.5t-48 20.5v37h536v-37q-52 -14 -73 -45.5t-21 -105.5v-1115q0 -73 21 -105 t73 -46v-39h-536zM409 1803q0 48 36 83t85 35t84 -34.5t35 -83.5q0 -54 -33.5 -88.5t-85.5 -34.5q-51 0 -86 35.5t-35 87.5z" />
<glyph unicode="&#xd0;" horiz-adv-x="1522" d="M0 815v105h162v385q0 72 -21.5 104.5t-74.5 46.5v37l282 16q105 6 169.5 9.5t76.5 3.5q208 0 357 -50.5t261 -158.5q115 -110 174.5 -254.5t59.5 -313.5q0 -346 -214 -545.5t-587 -199.5h-579v39q53 14 74.5 46.5t21.5 104.5v625h-162zM494 301q0 -113 31 -152.5 t114 -39.5q224 0 326 146.5t102 473.5q0 368 -96 525t-318 157q-54 0 -88 -9t-47 -26q-13 -19 -18.5 -58.5t-5.5 -135.5v-47v-215h249v-105h-249v-514z" />
<glyph unicode="&#xd1;" horiz-adv-x="1399" d="M29 0v39q74 40 103.5 119t29.5 327v693q0 97 -35 172t-94 106v37h407l674 -969v639q0 123 -35 196.5t-104 96.5v37h387v-37q-69 -32 -97 -88t-28 -186v-1182h-141l-811 1159v-737q0 -169 33 -259t106 -124v-39h-395zM409 1670q17 123 69.5 184t141.5 61q19 0 34.5 -2 t29.5 -6l109 -27q9 -2 19.5 -4t18.5 -2q32 0 54 20.5t38 65.5h66q-14 -117 -68 -182t-137 -65q-17 0 -52 7q-3 0 -5 1l-105 28q-14 4 -29 6.5t-28 2.5q-31 0 -52.5 -21t-37.5 -67h-66z" />
<glyph unicode="&#xd2;" horiz-adv-x="1507" d="M66 739q0 172 49.5 315.5t148.5 256.5q93 106 216.5 160.5t273.5 54.5q111 0 219 -39t180 -105q143 -129 216 -287t73 -339q0 -188 -69.5 -348.5t-205.5 -284.5q-80 -75 -188.5 -115.5t-226.5 -40.5q-119 0 -229.5 41.5t-198.5 118.5q-127 111 -192.5 267t-65.5 345z M444 803q0 -391 75 -566.5t239 -175.5q160 0 232.5 158t72.5 516q0 353 -81 525t-249 172q-155 0 -222 -142.5t-67 -486.5zM451 1911q0 40 25 65t65 25q30 0 61.5 -19t73.5 -63l273 -280h-91l-313 164q-56 30 -75 53t-19 55z" />
<glyph unicode="&#xd3;" horiz-adv-x="1507" d="M66 739q0 172 49.5 315.5t148.5 256.5q93 106 216.5 160.5t273.5 54.5q111 0 219 -39t180 -105q143 -129 216 -287t73 -339q0 -188 -69.5 -348.5t-205.5 -284.5q-80 -75 -188.5 -115.5t-226.5 -40.5q-119 0 -229.5 41.5t-198.5 118.5q-127 111 -192.5 267t-65.5 345z M444 803q0 -391 75 -566.5t239 -175.5q160 0 232.5 158t72.5 516q0 353 -81 525t-249 172q-155 0 -222 -142.5t-67 -486.5zM559 1639l273 280q42 44 73.5 63t61.5 19q40 0 65 -25t25 -65q0 -32 -19 -55t-75 -53l-313 -164h-91z" />
<glyph unicode="&#xd4;" horiz-adv-x="1507" d="M66 739q0 172 49.5 315.5t148.5 256.5q93 106 216.5 160.5t273.5 54.5q111 0 219 -39t180 -105q143 -129 216 -287t73 -339q0 -188 -69.5 -348.5t-205.5 -284.5q-80 -75 -188.5 -115.5t-226.5 -40.5q-119 0 -229.5 41.5t-198.5 118.5q-127 111 -192.5 267t-65.5 345z M444 803q0 -391 75 -566.5t239 -175.5q160 0 232.5 158t72.5 516q0 353 -81 525t-249 172q-155 0 -222 -142.5t-67 -486.5zM455 1639l225 348h148l225 -348h-84l-215 178l-215 -178h-84z" />
<glyph unicode="&#xd5;" horiz-adv-x="1507" d="M66 739q0 172 49.5 315.5t148.5 256.5q93 106 216.5 160.5t273.5 54.5q111 0 219 -39t180 -105q143 -129 216 -287t73 -339q0 -188 -69.5 -348.5t-205.5 -284.5q-80 -75 -188.5 -115.5t-226.5 -40.5q-119 0 -229.5 41.5t-198.5 118.5q-127 111 -192.5 267t-65.5 345z M444 803q0 -391 75 -566.5t239 -175.5q160 0 232.5 158t72.5 516q0 353 -81 525t-249 172q-155 0 -222 -142.5t-67 -486.5zM463 1670q17 123 69.5 184t141.5 61q19 0 34.5 -2t29.5 -6l109 -27q9 -2 19.5 -4t18.5 -2q32 0 54 20.5t38 65.5h66q-14 -117 -68 -182t-137 -65 q-17 0 -52 7q-3 0 -5 1l-105 28q-14 4 -29 6.5t-28 2.5q-31 0 -52.5 -21t-37.5 -67h-66z" />
<glyph unicode="&#xd6;" horiz-adv-x="1507" d="M66 739q0 172 49.5 315.5t148.5 256.5q93 106 216.5 160.5t273.5 54.5q111 0 219 -39t180 -105q143 -129 216 -287t73 -339q0 -188 -69.5 -348.5t-205.5 -284.5q-80 -75 -188.5 -115.5t-226.5 -40.5q-119 0 -229.5 41.5t-198.5 118.5q-127 111 -192.5 267t-65.5 345z M444 803q0 -391 75 -566.5t239 -175.5q160 0 232.5 158t72.5 516q0 353 -81 525t-249 172q-155 0 -222 -142.5t-67 -486.5zM451 1803q0 48 36 83t85 35t84 -34.5t35 -83.5q0 -54 -33.5 -88.5t-85.5 -34.5q-51 0 -86 35.5t-35 87.5zM815 1803q0 48 36 83t85 35t84 -34.5 t35 -83.5q0 -54 -33.5 -88.5t-85.5 -34.5q-51 0 -86 35.5t-35 87.5z" />
<glyph unicode="&#xd7;" horiz-adv-x="1706" d="M276 160l451 450l-451 453l140 139l450 -450l451 450l141 -139l-450 -453l450 -450l-141 -140l-451 451l-450 -451z" />
<glyph unicode="&#xd8;" horiz-adv-x="1507" d="M66 739q0 172 49.5 315.5t148.5 256.5q93 106 216.5 160.5t273.5 54.5q95 0 183.5 -28t174.5 -85l92 150l80 -52l-98 -157q124 -120 190 -274t66 -324q0 -188 -69.5 -348.5t-205.5 -284.5q-80 -75 -188.5 -115.5t-226.5 -40.5q-96 0 -186 27.5t-177 83.5l-96 -154l-80 51 l100 162q-121 107 -184 261t-63 341zM444 778q0 -106 8 -202.5t23 -184.5l520 836q-35 101 -101.5 153t-160.5 52q-157 0 -223 -143.5t-66 -510.5zM508 268q35 -101 98.5 -154t151.5 -53q160 0 232.5 158t72.5 516q0 110 -8.5 200t-26.5 167z" />
<glyph unicode="&#xd9;" horiz-adv-x="1432" d="M80 1456v37h536v-37q-52 -14 -73 -45.5t-21 -105.5v-760q0 -220 80 -328t242 -108q74 0 134 24.5t101 71.5q45 50 63.5 123.5t18.5 242.5v70v522q0 123 -35 196.5t-104 96.5v37h387v-37q-69 -32 -97 -88t-28 -186v-717q0 -237 -140 -367.5t-394 -130.5q-128 0 -243 43 t-200 121q-66 60 -98.5 144.5t-32.5 197.5v832q0 41 -4 62.5t-14 37.5q-11 18 -30 30.5t-48 20.5zM524 1911q0 40 25 65t65 25q30 0 61.5 -19t73.5 -63l273 -280h-91l-313 164q-56 30 -75 53t-19 55z" />
<glyph unicode="&#xda;" horiz-adv-x="1432" d="M80 1456v37h536v-37q-52 -14 -73 -45.5t-21 -105.5v-760q0 -220 80 -328t242 -108q74 0 134 24.5t101 71.5q45 50 63.5 123.5t18.5 242.5v70v522q0 123 -35 196.5t-104 96.5v37h387v-37q-69 -32 -97 -88t-28 -186v-717q0 -237 -140 -367.5t-394 -130.5q-128 0 -243 43 t-200 121q-66 60 -98.5 144.5t-32.5 197.5v832q0 41 -4 62.5t-14 37.5q-11 18 -30 30.5t-48 20.5zM632 1639l273 280q42 44 73.5 63t61.5 19q40 0 65 -25t25 -65q0 -32 -19 -55t-75 -53l-313 -164h-91z" />
<glyph unicode="&#xdb;" horiz-adv-x="1432" d="M80 1456v37h536v-37q-52 -14 -73 -45.5t-21 -105.5v-760q0 -220 80 -328t242 -108q74 0 134 24.5t101 71.5q45 50 63.5 123.5t18.5 242.5v70v522q0 123 -35 196.5t-104 96.5v37h387v-37q-69 -32 -97 -88t-28 -186v-717q0 -237 -140 -367.5t-394 -130.5q-128 0 -243 43 t-200 121q-66 60 -98.5 144.5t-32.5 197.5v832q0 41 -4 62.5t-14 37.5q-11 18 -30 30.5t-48 20.5zM528 1639l225 348h148l225 -348h-84l-215 178l-215 -178h-84z" />
<glyph unicode="&#xdc;" horiz-adv-x="1432" d="M80 1456v37h536v-37q-52 -14 -73 -45.5t-21 -105.5v-760q0 -220 80 -328t242 -108q74 0 134 24.5t101 71.5q45 50 63.5 123.5t18.5 242.5v70v522q0 123 -35 196.5t-104 96.5v37h387v-37q-69 -32 -97 -88t-28 -186v-717q0 -237 -140 -367.5t-394 -130.5q-128 0 -243 43 t-200 121q-66 60 -98.5 144.5t-32.5 197.5v832q0 41 -4 62.5t-14 37.5q-11 18 -30 30.5t-48 20.5zM524 1803q0 48 36 83t85 35t84 -34.5t35 -83.5q0 -54 -33.5 -88.5t-85.5 -34.5q-51 0 -86 35.5t-35 87.5zM888 1803q0 48 36 83t85 35t84 -34.5t35 -83.5q0 -54 -33.5 -88.5 t-85.5 -34.5q-51 0 -86 35.5t-35 87.5z" />
<glyph unicode="&#xdd;" horiz-adv-x="1294" d="M0 1457v36h537v-37q-32 -9 -51 -31t-19 -49q0 -18 9.5 -44t33.5 -72l252 -488l151 352q28 64 42 116.5t14 90.5q0 42 -23.5 77.5t-58.5 47.5v37h407v-37q-55 -18 -118 -100.5t-119 -212.5l-236 -543v-410q0 -73 21 -105t73 -46v-39h-520v39q53 14 73.5 46t20.5 105v443 l-348 657q-37 71 -75 115.5t-66 51.5zM452 1639l273 280q42 44 73.5 63t61.5 19q40 0 65 -25t25 -65q0 -32 -19 -55t-75 -53l-313 -164h-91z" />
<glyph unicode="&#xde;" horiz-adv-x="1352" d="M66 0v39q53 14 74.5 46.5t21.5 104.5v1115q0 72 -21.5 104.5t-74.5 46.5v37h522v-37q-53 -14 -73.5 -45.5t-20.5 -105.5v-86q41 3 78 4.5t73 1.5q322 0 500 -117.5t178 -327.5q0 -224 -181.5 -337t-543.5 -113q-40 0 -62.5 0.5t-41.5 1.5v-142q0 -73 20.5 -105t73.5 -46 v-39h-522zM494 442q6 0 18 -1q58 -3 80 -3q193 0 284 80t91 248q0 169 -81.5 257.5t-238.5 88.5q-93 0 -123 -24t-30 -107v-539z" />
<glyph unicode="&#xdf;" horiz-adv-x="1139" d="M33 944v105h127v41q0 221 90 328.5t276 107.5q170 0 272.5 -77.5t102.5 -203.5q0 -89 -49 -147.5t-150 -89.5q166 -14 261.5 -140t95.5 -333q0 -107 -29.5 -206.5t-81.5 -172.5q-64 -89 -142 -137t-157 -48q-84 0 -138 49t-54 123q0 44 26 73.5t64 29.5q40 0 68 -28.5 t28 -67.5q0 -14 -6 -34t-6 -26q0 -12 9 -22.5t22 -10.5q46 0 74 117.5t28 317.5q0 278 -47.5 365t-181.5 87h-35v105h18q62 0 88.5 40t26.5 138q0 119 -27.5 171t-89.5 52q-51 0 -72.5 -41t-21.5 -139v-1270h-328v39q39 6 53.5 35.5t14.5 146.5v723h-129z" />
<glyph unicode="&#xe0;" horiz-adv-x="1042" d="M57 223q0 84 47 159t134 130q56 36 191 93t198 87v131q0 97 -27 136.5t-90 39.5q-48 0 -72.5 -26.5t-40.5 -102.5q-24 -112 -55.5 -149t-87.5 -37q-54 0 -92.5 38t-38.5 93q0 104 115.5 182t277.5 78q193 0 282 -74t89 -235v-502q0 -70 13 -99.5t44 -29.5q17 0 30 4.5 t25 14.5l39 -41q-63 -68 -131.5 -105t-130.5 -37q-67 0 -103.5 39.5t-45.5 122.5q-101 -80 -185 -121t-149 -41q-102 0 -169 72t-67 180zM229 1460q0 40 25 65t65 25q30 0 61.5 -19t73.5 -63l273 -280h-91l-313 164q-56 30 -75 53t-19 55zM324 303q0 -68 39.5 -108.5 t103.5 -40.5q42 0 83.5 19.5t76.5 55.5v383q-163 -75 -233 -147.5t-70 -161.5z" />
<glyph unicode="&#xe1;" horiz-adv-x="1042" d="M57 223q0 84 47 159t134 130q56 36 191 93t198 87v131q0 97 -27 136.5t-90 39.5q-48 0 -72.5 -26.5t-40.5 -102.5q-24 -112 -55.5 -149t-87.5 -37q-54 0 -92.5 38t-38.5 93q0 104 115.5 182t277.5 78q193 0 282 -74t89 -235v-502q0 -70 13 -99.5t44 -29.5q17 0 30 4.5 t25 14.5l39 -41q-63 -68 -131.5 -105t-130.5 -37q-67 0 -103.5 39.5t-45.5 122.5q-101 -80 -185 -121t-149 -41q-102 0 -169 72t-67 180zM324 303q0 -68 39.5 -108.5t103.5 -40.5q42 0 83.5 19.5t76.5 55.5v383q-163 -75 -233 -147.5t-70 -161.5zM337 1188l273 280 q42 44 73.5 63t61.5 19q40 0 65 -25t25 -65q0 -32 -19 -55t-75 -53l-313 -164h-91z" />
<glyph unicode="&#xe2;" horiz-adv-x="1042" d="M57 223q0 84 47 159t134 130q56 36 191 93t198 87v131q0 97 -27 136.5t-90 39.5q-48 0 -72.5 -26.5t-40.5 -102.5q-24 -112 -55.5 -149t-87.5 -37q-54 0 -92.5 38t-38.5 93q0 104 115.5 182t277.5 78q193 0 282 -74t89 -235v-502q0 -70 13 -99.5t44 -29.5q17 0 30 4.5 t25 14.5l39 -41q-63 -68 -131.5 -105t-130.5 -37q-67 0 -103.5 39.5t-45.5 122.5q-101 -80 -185 -121t-149 -41q-102 0 -169 72t-67 180zM233 1188l225 348h148l225 -348h-84l-215 178l-215 -178h-84zM324 303q0 -68 39.5 -108.5t103.5 -40.5q42 0 83.5 19.5t76.5 55.5v383 q-163 -75 -233 -147.5t-70 -161.5z" />
<glyph unicode="&#xe3;" horiz-adv-x="1042" d="M57 223q0 84 47 159t134 130q56 36 191 93t198 87v131q0 97 -27 136.5t-90 39.5q-48 0 -72.5 -26.5t-40.5 -102.5q-24 -112 -55.5 -149t-87.5 -37q-54 0 -92.5 38t-38.5 93q0 104 115.5 182t277.5 78q193 0 282 -74t89 -235v-502q0 -70 13 -99.5t44 -29.5q17 0 30 4.5 t25 14.5l39 -41q-63 -68 -131.5 -105t-130.5 -37q-67 0 -103.5 39.5t-45.5 122.5q-101 -80 -185 -121t-149 -41q-102 0 -169 72t-67 180zM241 1219q17 123 69.5 184t141.5 61q19 0 34.5 -2t29.5 -6l109 -27q9 -2 19.5 -4t18.5 -2q32 0 54 20.5t38 65.5h66q-14 -117 -68 -182 t-137 -65q-17 0 -52 7q-3 0 -5 1l-105 28q-14 4 -29 6.5t-28 2.5q-31 0 -52.5 -21t-37.5 -67h-66zM324 303q0 -68 39.5 -108.5t103.5 -40.5q42 0 83.5 19.5t76.5 55.5v383q-163 -75 -233 -147.5t-70 -161.5z" />
<glyph unicode="&#xe4;" horiz-adv-x="1042" d="M57 223q0 84 47 159t134 130q56 36 191 93t198 87v131q0 97 -27 136.5t-90 39.5q-48 0 -72.5 -26.5t-40.5 -102.5q-24 -112 -55.5 -149t-87.5 -37q-54 0 -92.5 38t-38.5 93q0 104 115.5 182t277.5 78q193 0 282 -74t89 -235v-502q0 -70 13 -99.5t44 -29.5q17 0 30 4.5 t25 14.5l39 -41q-63 -68 -131.5 -105t-130.5 -37q-67 0 -103.5 39.5t-45.5 122.5q-101 -80 -185 -121t-149 -41q-102 0 -169 72t-67 180zM229 1352q0 48 36 83t85 35t84 -34.5t35 -83.5q0 -54 -33.5 -88.5t-85.5 -34.5q-51 0 -86 35.5t-35 87.5zM324 303q0 -68 39.5 -108.5 t103.5 -40.5q42 0 83.5 19.5t76.5 55.5v383q-163 -75 -233 -147.5t-70 -161.5zM593 1352q0 48 36 83t85 35t84 -34.5t35 -83.5q0 -54 -33.5 -88.5t-85.5 -34.5q-51 0 -86 35.5t-35 87.5z" />
<glyph unicode="&#xe5;" horiz-adv-x="1042" d="M57 223q0 84 47 159t134 130q56 36 191 93t198 87v131q0 97 -27 136.5t-90 39.5q-48 0 -72.5 -26.5t-40.5 -102.5q-24 -112 -55.5 -149t-87.5 -37q-54 0 -92.5 38t-38.5 93q0 104 115.5 182t277.5 78q193 0 282 -74t89 -235v-502q0 -70 13 -99.5t44 -29.5q17 0 30 4.5 t25 14.5l39 -41q-62 -67 -131 -104.5t-129 -37.5q-69 0 -105.5 39.5t-45.5 122.5q-101 -80 -185 -121t-149 -41q-102 0 -169 72t-67 180zM270 1395q0 106 74 180t180 74t179 -74t73 -180t-73 -179t-179 -73t-180 73t-74 179zM324 303q0 -68 39.5 -108.5t103.5 -40.5 q42 0 83.5 19.5t76.5 55.5v383q-163 -75 -233 -147.5t-70 -161.5zM389 1395q0 -57 39 -96t96 -39t95 39t38 96q0 56 -38.5 95.5t-94.5 39.5q-57 0 -96 -39t-39 -96z" />
<glyph unicode="&#xe6;" horiz-adv-x="1569" d="M57 223q0 84 47 159t134 130q56 36 191 93t198 87v131q0 97 -27 136.5t-90 39.5q-48 0 -72.5 -26.5t-40.5 -102.5q-24 -112 -55.5 -149t-87.5 -37q-54 0 -92.5 38t-38.5 93q0 105 115 182.5t278 77.5q98 0 170 -19.5t117 -58.5q56 40 116 59t128 19q190 0 307.5 -140 t121.5 -376h-609q4 -193 86 -297t229 -104q78 0 146 33t130 102l39 -31q-85 -141 -195 -216t-231 -75q-114 0 -213.5 58t-167.5 164q-115 -110 -215.5 -166t-181.5 -56q-102 0 -169 72t-67 180zM324 303q0 -69 39.5 -109t107.5 -40q48 0 94.5 26.5t89.5 79.5 q-15 42 -21.5 95.5t-6.5 152.5v37v67q-163 -75 -233 -147.5t-70 -161.5zM866 653h183q117 0 144.5 21t27.5 88q0 111 -48.5 174t-132.5 63q-88 0 -131 -85t-43 -261z" />
<glyph unicode="&#xe7;" horiz-adv-x="930" d="M57 487q0 268 126 428t333 160q145 0 245.5 -76t100.5 -180q0 -48 -31.5 -80t-76.5 -32q-54 0 -85 28.5t-61 118.5q-27 84 -56.5 113.5t-80.5 29.5q-67 0 -99 -86.5t-32 -271.5q0 -242 69 -365.5t203 -123.5q62 0 114.5 32t100.5 101l47 -25q-61 -143 -157 -215t-225 -72 q-199 0 -317 139.5t-118 376.5zM215 -375l41 88q73 -39 129.5 -56t108.5 -17q49 0 72.5 21.5t23.5 66.5q0 37 -27 59.5t-73 22.5q-8 0 -37 -5q-15 -2 -25 -3v198h70v-112q16 2 32.5 3.5t32.5 2.5q86 0 136.5 -46t50.5 -124q0 -86 -60.5 -133.5t-169.5 -47.5q-55 0 -123.5 18 t-181.5 64z" />
<glyph unicode="&#xe8;" horiz-adv-x="1042" d="M57 522q0 237 133.5 395t329.5 158q191 0 308.5 -140.5t121.5 -375.5h-608q5 -194 85.5 -296.5t227.5 -102.5q80 0 147.5 32.5t129.5 100.5l39 -31q-86 -144 -195.5 -217.5t-238.5 -73.5q-214 0 -347 152.5t-133 398.5zM227 1460q0 40 25 65t65 25q30 0 61.5 -19 t73.5 -63l273 -280h-91l-313 164q-56 30 -75 53t-19 55zM340 653h184q117 0 143.5 20.5t26.5 88.5q0 112 -47.5 175.5t-130.5 63.5q-88 0 -132 -86.5t-44 -261.5z" />
<glyph unicode="&#xe9;" horiz-adv-x="1042" d="M57 522q0 237 133.5 395t329.5 158q191 0 308.5 -140.5t121.5 -375.5h-608q5 -194 85.5 -296.5t227.5 -102.5q80 0 147.5 32.5t129.5 100.5l39 -31q-86 -144 -195.5 -217.5t-238.5 -73.5q-214 0 -347 152.5t-133 398.5zM335 1188l273 280q42 44 73.5 63t61.5 19 q40 0 65 -25t25 -65q0 -32 -19 -55t-75 -53l-313 -164h-91zM340 653h184q117 0 143.5 20.5t26.5 88.5q0 112 -47.5 175.5t-130.5 63.5q-88 0 -132 -86.5t-44 -261.5z" />
<glyph unicode="&#xea;" horiz-adv-x="1042" d="M57 522q0 237 133.5 395t329.5 158q191 0 308.5 -140.5t121.5 -375.5h-608q5 -194 85.5 -296.5t227.5 -102.5q80 0 147.5 32.5t129.5 100.5l39 -31q-86 -144 -195.5 -217.5t-238.5 -73.5q-214 0 -347 152.5t-133 398.5zM231 1188l225 348h148l225 -348h-84l-215 178 l-215 -178h-84zM340 653h184q117 0 143.5 20.5t26.5 88.5q0 112 -47.5 175.5t-130.5 63.5q-88 0 -132 -86.5t-44 -261.5z" />
<glyph unicode="&#xeb;" horiz-adv-x="1042" d="M57 522q0 237 133.5 395t329.5 158q191 0 308.5 -140.5t121.5 -375.5h-608q5 -194 85.5 -296.5t227.5 -102.5q80 0 147.5 32.5t129.5 100.5l39 -31q-86 -144 -195.5 -217.5t-238.5 -73.5q-214 0 -347 152.5t-133 398.5zM227 1352q0 48 36 83t85 35t84 -34.5t35 -83.5 q0 -54 -33.5 -88.5t-85.5 -34.5q-51 0 -86 35.5t-35 87.5zM340 653h184q117 0 143.5 20.5t26.5 88.5q0 112 -47.5 175.5t-130.5 63.5q-88 0 -132 -86.5t-44 -261.5zM591 1352q0 48 36 83t85 35t84 -34.5t35 -83.5q0 -54 -33.5 -88.5t-85.5 -34.5q-51 0 -86 35.5t-35 87.5z " />
<glyph unicode="&#xec;" horiz-adv-x="559" d="M-18 1460q0 40 25 65t65 25q30 0 61.5 -19t73.5 -63l273 -280h-91l-313 164q-56 30 -75 53t-19 55zM61 895v41q93 20 168.5 65.5t128.5 112.5h64v-911q0 -102 14 -130t51 -34v-39h-407v39q39 6 53 35.5t14 146.5v477q0 109 -18.5 146t-67.5 51z" />
<glyph unicode="&#xed;" horiz-adv-x="559" d="M61 895v41q93 20 168.5 65.5t128.5 112.5h64v-911q0 -102 14 -130t51 -34v-39h-407v39q39 6 53 35.5t14 146.5v477q0 109 -18.5 146t-67.5 51zM90 1188l273 280q42 44 73.5 63t61.5 19q40 0 65 -25t25 -65q0 -32 -19 -55t-75 -53l-313 -164h-91z" />
<glyph unicode="&#xee;" horiz-adv-x="559" d="M-14 1188l225 348h148l225 -348h-84l-215 178l-215 -178h-84zM61 895v41q93 20 168.5 65.5t128.5 112.5h64v-911q0 -102 14 -130t51 -34v-39h-407v39q39 6 53 35.5t14 146.5v477q0 109 -18.5 146t-67.5 51z" />
<glyph unicode="&#xef;" horiz-adv-x="559" d="M-18 1352q0 48 36 83t85 35t84 -34.5t35 -83.5q0 -54 -33.5 -88.5t-85.5 -34.5q-51 0 -86 35.5t-35 87.5zM61 895v41q93 20 168.5 65.5t128.5 112.5h64v-911q0 -102 14 -130t51 -34v-39h-407v39q39 6 53 35.5t14 146.5v477q0 109 -18.5 146t-67.5 51zM346 1352 q0 48 36 83t85 35t84 -34.5t35 -83.5q0 -54 -33.5 -88.5t-85.5 -34.5q-51 0 -86 35.5t-35 87.5z" />
<glyph unicode="&#xf0;" horiz-adv-x="1067" d="M57 528q0 124 44.5 231t129.5 189q65 61 143 94t158 33q36 0 65 -4t54 -12q-25 46 -57 91t-74 93l-274 -153l-35 63l256 147q-35 38 -82 75.5t-109 76.5l46 74q66 -33 133 -74t133 -90l250 145l39 -65l-228 -129q187 -164 275 -342t88 -393q0 -267 -136.5 -437 t-343.5 -170q-86 0 -161 32.5t-140 96.5q-84 85 -129 195t-45 233zM356 477q0 -233 41.5 -331.5t134.5 -98.5q100 0 139.5 98.5t39.5 378.5q0 281 -39.5 378t-139.5 97q-99 0 -137.5 -103t-38.5 -419z" />
<glyph unicode="&#xf1;" horiz-adv-x="1071" d="M47 856v43q94 20 169 65t128 111h49v-192q130 101 222 147.5t159 46.5q99 0 136.5 -65.5t37.5 -282.5v-526q0 -102 14 -130t52 -34v-39h-393v39q38 6 52.5 35.5t14.5 146.5v484q0 107 -17.5 138t-66.5 31q-37 0 -87.5 -18t-123.5 -57v-578q0 -117 14.5 -146.5t53.5 -35.5 v-39h-395v39q38 6 52.5 35.5t14.5 146.5v441q0 107 -18.5 143.5t-67.5 50.5zM250 1219q17 123 69.5 184t141.5 61q19 0 34.5 -2t29.5 -6l109 -27q9 -2 19.5 -4t18.5 -2q32 0 54 20.5t38 65.5h66q-14 -117 -68 -182t-137 -65q-17 0 -52 7q-3 0 -5 1l-105 28q-14 4 -29 6.5 t-28 2.5q-31 0 -52.5 -21t-37.5 -67h-66z" />
<glyph unicode="&#xf2;" horiz-adv-x="1067" d="M57 528q0 230 142.5 389.5t347.5 159.5q200 0 331.5 -155.5t131.5 -397.5q0 -120 -45.5 -230t-128.5 -194q-66 -64 -142.5 -96.5t-161.5 -32.5q-86 0 -161 32.5t-140 96.5q-84 85 -129 195t-45 233zM232 1460q0 40 25 65t65 25q30 0 61.5 -19t73.5 -63l273 -280h-91 l-313 164q-56 30 -75 53t-19 55zM356 524q0 -276 39.5 -376.5t136.5 -100.5q100 0 139.5 98.5t39.5 378.5q0 281 -39.5 378t-139.5 97q-97 0 -136.5 -100t-39.5 -375z" />
<glyph unicode="&#xf3;" horiz-adv-x="1067" d="M57 528q0 230 142.5 389.5t347.5 159.5q200 0 331.5 -155.5t131.5 -397.5q0 -120 -45.5 -230t-128.5 -194q-66 -64 -142.5 -96.5t-161.5 -32.5q-86 0 -161 32.5t-140 96.5q-84 85 -129 195t-45 233zM340 1188l273 280q42 44 73.5 63t61.5 19q40 0 65 -25t25 -65 q0 -32 -19 -55t-75 -53l-313 -164h-91zM356 524q0 -276 39.5 -376.5t136.5 -100.5q100 0 139.5 98.5t39.5 378.5q0 281 -39.5 378t-139.5 97q-97 0 -136.5 -100t-39.5 -375z" />
<glyph unicode="&#xf4;" horiz-adv-x="1067" d="M57 528q0 230 142.5 389.5t347.5 159.5q200 0 331.5 -155.5t131.5 -397.5q0 -120 -45.5 -230t-128.5 -194q-66 -64 -142.5 -96.5t-161.5 -32.5q-86 0 -161 32.5t-140 96.5q-84 85 -129 195t-45 233zM236 1188l225 348h148l225 -348h-84l-215 178l-215 -178h-84zM356 524 q0 -276 39.5 -376.5t136.5 -100.5q100 0 139.5 98.5t39.5 378.5q0 281 -39.5 378t-139.5 97q-97 0 -136.5 -100t-39.5 -375z" />
<glyph unicode="&#xf5;" horiz-adv-x="1067" d="M57 528q0 230 142.5 389.5t347.5 159.5q200 0 331.5 -155.5t131.5 -397.5q0 -120 -45.5 -230t-128.5 -194q-66 -64 -142.5 -96.5t-161.5 -32.5q-86 0 -161 32.5t-140 96.5q-84 85 -129 195t-45 233zM244 1219q17 123 69.5 184t141.5 61q19 0 34.5 -2t29.5 -6l109 -27 q9 -2 19.5 -4t18.5 -2q32 0 54 20.5t38 65.5h66q-14 -117 -68 -182t-137 -65q-17 0 -52 7q-3 0 -5 1l-105 28q-14 4 -29 6.5t-28 2.5q-31 0 -52.5 -21t-37.5 -67h-66zM356 524q0 -276 39.5 -376.5t136.5 -100.5q100 0 139.5 98.5t39.5 378.5q0 281 -39.5 378t-139.5 97 q-97 0 -136.5 -100t-39.5 -375z" />
<glyph unicode="&#xf6;" horiz-adv-x="1067" d="M57 528q0 230 142.5 389.5t347.5 159.5q200 0 331.5 -155.5t131.5 -397.5q0 -120 -45.5 -230t-128.5 -194q-66 -64 -142.5 -96.5t-161.5 -32.5q-86 0 -161 32.5t-140 96.5q-84 85 -129 195t-45 233zM232 1352q0 48 36 83t85 35t84 -34.5t35 -83.5q0 -54 -33.5 -88.5 t-85.5 -34.5q-51 0 -86 35.5t-35 87.5zM356 524q0 -276 39.5 -376.5t136.5 -100.5q100 0 139.5 98.5t39.5 378.5q0 281 -39.5 378t-139.5 97q-97 0 -136.5 -100t-39.5 -375zM596 1352q0 48 36 83t85 35t84 -34.5t35 -83.5q0 -54 -33.5 -88.5t-85.5 -34.5q-51 0 -86 35.5 t-35 87.5z" />
<glyph unicode="&#xf7;" horiz-adv-x="1706" d="M254 512v199h1198v-199h-1198zM702 217q0 63 44.5 107.5t107.5 44.5q62 0 107 -45t45 -107q0 -61 -45 -105t-107 -44q-63 0 -107.5 43t-44.5 106zM702 1004q0 63 44.5 107t107.5 44q62 0 107 -44.5t45 -106.5q0 -63 -44.5 -107.5t-107.5 -44.5t-107.5 44.5t-44.5 107.5z " />
<glyph unicode="&#xf8;" horiz-adv-x="1067" d="M57 524q0 235 142.5 394t349.5 159q63 0 121 -18t116 -55l68 112l66 -41l-74 -119q81 -82 122.5 -191.5t41.5 -240.5q0 -121 -45 -230t-129 -194q-66 -64 -142.5 -96.5t-161.5 -32.5q-72 0 -134.5 21.5t-114.5 64.5l-76 -118l-64 45l82 125q-82 84 -125 189.5t-43 225.5z M354 578q0 -30 4 -139q3 -69 5 -109l323 518q-11 75 -49.5 113t-104.5 38q-95 0 -136.5 -97t-41.5 -324zM377 207q22 -87 58 -123.5t97 -36.5q98 0 138.5 97t40.5 339q0 54 -1.5 114.5t-5.5 131.5z" />
<glyph unicode="&#xf9;" horiz-adv-x="1053" d="M47 895v41q92 20 167.5 65.5t129.5 112.5h49v-813q0 -70 23.5 -103.5t72.5 -33.5q47 0 93.5 19t85.5 55v460q0 112 -19 148t-65 49v41q91 20 165.5 65t129.5 113h51v-911q0 -102 14 -130t51 -34v-39h-327v162q-112 -96 -201.5 -143.5t-159.5 -47.5q-89 0 -131.5 46.5 t-42.5 144.5v536q0 109 -19 146t-67 51zM244 1460q0 40 25 65t65 25q30 0 61.5 -19t73.5 -63l273 -280h-91l-313 164q-56 30 -75 53t-19 55z" />
<glyph unicode="&#xfa;" horiz-adv-x="1053" d="M47 895v41q92 20 167.5 65.5t129.5 112.5h49v-813q0 -70 23.5 -103.5t72.5 -33.5q47 0 93.5 19t85.5 55v460q0 112 -19 148t-65 49v41q91 20 165.5 65t129.5 113h51v-911q0 -102 14 -130t51 -34v-39h-327v162q-112 -96 -201.5 -143.5t-159.5 -47.5q-89 0 -131.5 46.5 t-42.5 144.5v536q0 109 -19 146t-67 51zM352 1188l273 280q42 44 73.5 63t61.5 19q40 0 65 -25t25 -65q0 -32 -19 -55t-75 -53l-313 -164h-91z" />
<glyph unicode="&#xfb;" horiz-adv-x="1053" d="M47 895v41q92 20 167.5 65.5t129.5 112.5h49v-813q0 -70 23.5 -103.5t72.5 -33.5q47 0 93.5 19t85.5 55v460q0 112 -19 148t-65 49v41q91 20 165.5 65t129.5 113h51v-911q0 -102 14 -130t51 -34v-39h-327v162q-112 -96 -201.5 -143.5t-159.5 -47.5q-89 0 -131.5 46.5 t-42.5 144.5v536q0 109 -19 146t-67 51zM248 1188l225 348h148l225 -348h-84l-215 178l-215 -178h-84z" />
<glyph unicode="&#xfc;" horiz-adv-x="1053" d="M47 895v41q92 20 167.5 65.5t129.5 112.5h49v-813q0 -70 23.5 -103.5t72.5 -33.5q47 0 93.5 19t85.5 55v460q0 112 -19 148t-65 49v41q91 20 165.5 65t129.5 113h51v-911q0 -102 14 -130t51 -34v-39h-327v162q-112 -96 -201.5 -143.5t-159.5 -47.5q-89 0 -131.5 46.5 t-42.5 144.5v536q0 109 -19 146t-67 51zM244 1352q0 48 36 83t85 35t84 -34.5t35 -83.5q0 -54 -33.5 -88.5t-85.5 -34.5q-51 0 -86 35.5t-35 87.5zM608 1352q0 48 36 83t85 35t84 -34.5t35 -83.5q0 -54 -33.5 -88.5t-85.5 -34.5q-51 0 -86 35.5t-35 87.5z" />
<glyph unicode="&#xfd;" horiz-adv-x="977" d="M0 1010v39h418v-39q-28 -13 -39.5 -28.5t-11.5 -39.5q0 -15 3.5 -32.5t10.5 -37.5l188 -569l138 443q9 30 13.5 64.5t4.5 70.5q0 44 -18 76t-54 53v39h324v-39q-44 -18 -81.5 -77.5t-70.5 -162.5l-247 -780q-80 -250 -158.5 -345.5t-194.5 -95.5q-92 0 -151.5 51.5 t-59.5 129.5q0 63 42 105t106 42q47 0 79.5 -33t32.5 -82q0 -1 -1 -7t-1 -11q0 -25 7 -38t20 -13q22 0 43 28.5t47 94.5l49 127l-303 862q-36 102 -69 152t-66 53zM294 1188l273 280q42 44 73.5 63t61.5 19q40 0 65 -25t25 -65q0 -32 -19 -55t-75 -53l-313 -164h-91z" />
<glyph unicode="&#xfe;" horiz-adv-x="1071" d="M39 1307v43q91 20 164 64.5t125 111.5h57l-2 -608q86 78 165.5 117.5t149.5 39.5q140 0 224 -132t84 -355q0 -283 -112.5 -450t-299.5 -167q-64 0 -116 19t-95 57v-276q0 -117 14.5 -146.5t53.5 -36.5v-39h-394v39q38 8 52 35.5t14 128.5v19v1341q0 110 -18.5 145.5 t-65.5 49.5zM385 436q0 -209 41.5 -297t136.5 -88q92 0 134 94.5t42 298.5q0 244 -45.5 343.5t-152.5 99.5q-47 0 -85.5 -16t-70.5 -48v-387z" />
<glyph unicode="&#xff;" horiz-adv-x="977" d="M0 1010v39h418v-39q-28 -13 -39.5 -28.5t-11.5 -39.5q0 -15 3.5 -32.5t10.5 -37.5l188 -569l138 443q9 30 13.5 64.5t4.5 70.5q0 44 -18 76t-54 53v39h324v-39q-44 -18 -81.5 -77.5t-70.5 -162.5l-247 -780q-80 -250 -158.5 -345.5t-194.5 -95.5q-92 0 -151.5 51.5 t-59.5 129.5q0 63 42 105t106 42q47 0 79.5 -33t32.5 -82q0 -1 -1 -7t-1 -11q0 -25 7 -38t20 -13q22 0 43 28.5t47 94.5l49 127l-303 862q-36 102 -69 152t-66 53zM186 1352q0 48 36 83t85 35t84 -34.5t35 -83.5q0 -54 -33.5 -88.5t-85.5 -34.5q-51 0 -86 35.5t-35 87.5z M550 1352q0 48 36 83t85 35t84 -34.5t35 -83.5q0 -54 -33.5 -88.5t-85.5 -34.5q-51 0 -86 35.5t-35 87.5z" />
<glyph unicode="&#x152;" horiz-adv-x="2204" d="M66 745q0 166 54.5 309t162.5 257q101 106 235.5 160.5t296.5 54.5q45 0 158.5 -16.5t185.5 -16.5h891l57 -322l-51 -24q-80 111 -191.5 167t-250.5 56q-120 0 -160.5 -32t-40.5 -128v-309h107q149 0 230 38t118 124h51v-447h-51q-28 87 -109.5 124.5t-247.5 37.5h-98 v-510q0 -94 35 -119.5t166 -25.5q159 0 285 49t233 154l55 -29l-94 -297h-903q-79 0 -205.5 -16.5t-175.5 -16.5q-129 0 -249 41.5t-214 118.5q-138 112 -209 268.5t-71 349.5zM444 748q0 -356 86.5 -521.5t272.5 -165.5q153 0 215.5 58.5t62.5 210.5v864q0 130 -61.5 184 t-206.5 54q-194 0 -281.5 -161t-87.5 -523z" />
<glyph unicode="&#x153;" horiz-adv-x="1673" d="M57 528q0 124 44.5 231t129.5 189q65 61 143 94t158 33q102 0 180 -31t138 -96q64 64 138 95.5t161 31.5q190 0 306.5 -139.5t121.5 -375.5l-608 -1q4 -192 85.5 -295.5t229.5 -103.5q79 0 147 32.5t130 100.5l38 -31q-85 -143 -194 -217t-236 -74q-99 0 -179.5 38.5 t-143.5 115.5q-62 -78 -138.5 -116t-175.5 -38q-84 0 -159.5 32.5t-141.5 96.5q-84 85 -129 195t-45 233zM356 524q0 -276 39.5 -376.5t136.5 -100.5q100 0 139.5 98.5t39.5 378.5q0 281 -39.5 378t-139.5 97q-97 0 -136.5 -100t-39.5 -375zM969 653h182q118 0 145 21t27 88 q0 111 -48.5 174t-131.5 63q-88 0 -131 -85t-43 -261z" />
<glyph unicode="&#x178;" horiz-adv-x="1294" d="M0 1457v36h537v-37q-32 -9 -51 -31t-19 -49q0 -18 9.5 -44t33.5 -72l252 -488l151 352q28 64 42 116.5t14 90.5q0 42 -23.5 77.5t-58.5 47.5v37h407v-37q-55 -18 -118 -100.5t-119 -212.5l-236 -543v-410q0 -73 21 -105t73 -46v-39h-520v39q53 14 73.5 46t20.5 105v443 l-348 657q-37 71 -75 115.5t-66 51.5zM344 1803q0 48 36 83t85 35t84 -34.5t35 -83.5q0 -54 -33.5 -88.5t-85.5 -34.5q-51 0 -86 35.5t-35 87.5zM708 1803q0 48 36 83t85 35t84 -34.5t35 -83.5q0 -54 -33.5 -88.5t-85.5 -34.5q-51 0 -86 35.5t-35 87.5z" />
<glyph unicode="&#x2c6;" horiz-adv-x="1024" d="M213 1188l225 348h148l225 -348h-84l-215 178l-215 -178h-84z" />
<glyph unicode="&#x2dc;" horiz-adv-x="1024" d="M221 1219q17 123 69.5 184t141.5 61q19 0 34.5 -2t29.5 -6l109 -27q9 -2 19.5 -4t18.5 -2q32 0 54 20.5t38 65.5h66q-14 -117 -68 -182t-137 -65q-17 0 -52 7q-3 0 -5 1l-105 28q-14 4 -29 6.5t-28 2.5q-31 0 -52.5 -21t-37.5 -67h-66z" />
<glyph unicode="&#x2000;" horiz-adv-x="1000" />
<glyph unicode="&#x2001;" horiz-adv-x="2001" />
<glyph unicode="&#x2002;" horiz-adv-x="1000" />
<glyph unicode="&#x2003;" horiz-adv-x="2001" />
<glyph unicode="&#x2004;" horiz-adv-x="667" />
<glyph unicode="&#x2005;" horiz-adv-x="500" />
<glyph unicode="&#x2006;" horiz-adv-x="333" />
<glyph unicode="&#x2007;" horiz-adv-x="333" />
<glyph unicode="&#x2008;" horiz-adv-x="250" />
<glyph unicode="&#x2009;" horiz-adv-x="400" />
<glyph unicode="&#x200a;" horiz-adv-x="111" />
<glyph unicode="&#x2010;" horiz-adv-x="692" d="M57 426v209h578v-209h-578z" />
<glyph unicode="&#x2011;" horiz-adv-x="692" d="M57 426v209h578v-209h-578z" />
<glyph unicode="&#x2012;" horiz-adv-x="692" d="M57 426v209h578v-209h-578z" />
<glyph unicode="&#x2013;" horiz-adv-x="1024" d="M0 446v175h1024v-175h-1024z" />
<glyph unicode="&#x2014;" horiz-adv-x="2048" d="M0 446v175h2048v-175h-2048z" />
<glyph unicode="&#x2018;" horiz-adv-x="592" d="M104 1032q0 117 93 244.5t266 249.5l55 -47q-96 -102 -132 -158t-36 -98q0 -44 61.5 -124.5t61.5 -131.5q0 -63 -49 -106.5t-123 -43.5q-88 0 -142.5 59.5t-54.5 155.5z" />
<glyph unicode="&#x2019;" horiz-adv-x="592" d="M82 866q97 102 133.5 159t36.5 99q0 43 -61.5 123t-61.5 131q0 63 49.5 106.5t122.5 43.5q86 0 141.5 -58t55.5 -147q0 -124 -91.5 -251.5t-269.5 -252.5z" />
<glyph unicode="&#x201a;" horiz-adv-x="592" d="M57 -319q104 113 137 165.5t33 92.5q0 42 -61.5 122t-61.5 132q0 63 49.5 106t122.5 43q86 0 141.5 -58t55.5 -147q0 -124 -91 -251.5t-269 -252.5z" />
<glyph unicode="&#x201c;" horiz-adv-x="1071" d="M104 1032q0 117 93 244.5t266 249.5l55 -47q-96 -102 -132 -158t-36 -98q0 -44 61.5 -124.5t61.5 -131.5q0 -63 -49 -106.5t-123 -43.5q-88 0 -142.5 59.5t-54.5 155.5zM582 1032q0 116 93 244t267 250l55 -47q-95 -102 -131.5 -158t-36.5 -98q0 -44 60.5 -124.5 t60.5 -131.5q0 -63 -49 -106.5t-123 -43.5q-88 0 -142 59.5t-54 155.5z" />
<glyph unicode="&#x201d;" horiz-adv-x="1071" d="M82 866q97 102 133.5 159t36.5 99q0 43 -61.5 123t-61.5 131q0 63 49.5 106.5t122.5 43.5q86 0 141.5 -58t55.5 -147q0 -124 -91.5 -251.5t-269.5 -252.5zM561 866q94 100 131 157.5t37 100.5t-60.5 123t-60.5 131q0 63 49.5 106.5t122.5 43.5q86 0 141.5 -58t55.5 -147 q0 -124 -91 -251.5t-270 -252.5z" />
<glyph unicode="&#x201e;" horiz-adv-x="1071" d="M57 -319q104 113 137 165.5t33 92.5q0 42 -61.5 122t-61.5 132q0 63 49.5 106t122.5 43q86 0 141.5 -58t55.5 -147q0 -124 -91 -251.5t-269 -252.5zM537 -319q100 109 134 163t34 95q0 42 -60.5 122t-60.5 132q0 63 49 106t123 43q86 0 141 -58t55 -147 q0 -124 -91 -251.5t-269 -252.5z" />
<glyph unicode="&#x2022;" horiz-adv-x="1208" d="M307 762q0 123 87 209t210 86q122 0 208.5 -86.5t86.5 -208.5t-87.5 -209.5t-209.5 -87.5q-123 0 -209 87t-86 210z" />
<glyph unicode="&#x2026;" horiz-adv-x="2048" d="M156 156q0 75 54.5 130.5t129.5 55.5q77 0 131.5 -54.5t54.5 -131.5t-55 -131t-131 -54q-74 0 -129 55.5t-55 129.5zM838 156q0 75 54.5 130.5t129.5 55.5q77 0 131.5 -54.5t54.5 -131.5t-55 -131t-131 -54q-74 0 -129 55.5t-55 129.5zM1522 156q0 75 54.5 130.5 t129.5 55.5q77 0 131.5 -54.5t54.5 -131.5t-55 -131t-131 -54q-74 0 -129 55.5t-55 129.5z" />
<glyph unicode="&#x202f;" horiz-adv-x="400" />
<glyph unicode="&#x2039;" horiz-adv-x="559" d="M94 524q104 95 179.5 194.5t123.5 207.5l54 -19q-14 -98 -46 -194t-83 -189q50 -92 82.5 -188.5t46.5 -196.5l-54 -18q-49 109 -124.5 209.5t-178.5 193.5z" />
<glyph unicode="&#x203a;" horiz-adv-x="559" d="M109 139q13 104 45.5 200.5t83.5 184.5q-51 90 -83.5 185.5t-45.5 197.5l53 19q49 -108 124 -207.5t179 -194.5q-103 -93 -178.5 -193.5t-124.5 -209.5z" />
<glyph unicode="&#x205f;" horiz-adv-x="500" />
<glyph unicode="&#x2122;" horiz-adv-x="1683" d="M225 1262l13 192h450l12 -192h-32q-8 79 -39.5 115t-91.5 36h-7v-420q1 -23 9.5 -35.5t25.5 -15.5l31 -4v-33h-266v33l30 4q17 3 26 16t9 35v420h-10q-59 0 -89 -36t-38 -115h-33zM758 905v33l34 4q19 3 28 16t9 35v373q0 23 -9 35.5t-27 15.5l-35 4v33h211l131 -369 l129 369h198v-27l-27 -4q-19 -3 -27.5 -15t-8.5 -36v-379q0 -24 9 -36t28 -15l26 -4v-33h-253v33l30 4q18 3 27.5 16t9.5 35v365l-156 -455h-36l-166 463v-373q0 -22 9 -35t28 -16l34 -4v-33h-196z" />
<glyph unicode="&#x25fc;" horiz-adv-x="1050" d="M0 0v1050h1050v-1050h-1050z" />
</font>
</defs>
</svg>
